SplineFontDB: 3.0
FontName: AlegreyaX-Bold
FullName: Alegreya X Bold
FamilyName: Alegreya X
Weight: Bold
Copyright: Copyright (c) 2011, Juan Pablo del Peral (juan@huertatipografica.com.ar), with Reserved Font Names "Alegreya" "Alegreya SC"
Version: 001.002
ItalicAngle: 0
UnderlinePosition: -59
UnderlineWidth: 56
Ascent: 800
Descent: 200
InvalidEm: 0
sfntRevision: 0x00010106
LayerCount: 2
Layer: 0 0 "Back" 1
Layer: 1 0 "Fore" 0
XUID: [1021 387 -636565393 15689527]
FSType: 0
OS2Version: 2
OS2_WeightWidthSlopeOnly: 0
OS2_UseTypoMetrics: 1
CreationTime: 1325707233
ModificationTime: 1421852647
PfmFamily: 17
TTFWeight: 700
TTFWidth: 5
LineGap: 0
VLineGap: 0
Panose: 2 0 5 3 5 0 0 2 0 4
OS2TypoAscent: 1016
OS2TypoAOffset: 0
OS2TypoDescent: -345
OS2TypoDOffset: 0
OS2TypoLinegap: 0
OS2WinAscent: 1016
OS2WinAOffset: 0
OS2WinDescent: 345
OS2WinDOffset: 0
HheadAscent: 1016
HheadAOffset: 0
HheadDescent: -345
HheadDOffset: 0
OS2SubXSize: 700
OS2SubYSize: 650
OS2SubXOff: 0
OS2SubYOff: 140
OS2SupXSize: 700
OS2SupYSize: 650
OS2SupXOff: 0
OS2SupYOff: 477
OS2StrikeYSize: 50
OS2StrikeYPos: 250
OS2CapHeight: 0
OS2XHeight: 0
OS2FamilyClass: 258
OS2Vendor: 'pyrs'
OS2CodePages: 20000093.00000000
OS2UnicodeRanges: a00000ef.4000204b.00000000.00000000
Lookup: 258 0 0 "'kern' Horizontal Kerning lookup 0" { "'kern' Horizontal Kerning lookup 0 subtable"  } ['kern' ('DFLT' <'dflt' > ) ]
MarkAttachClasses: 1
DEI: 91125
LangName: 1033 "" "" "" "" "" "Version 1.003" "" "Alegreya is a trademark of Juan Pablo del Peral" "Juan Pablo del Peral" "Juan Pablo del Peral" "" "www.huertatipografica.com.ar" "www.huertatipografica.com.ar" "This Font Software is licensed under the SIL Open Font License, Version 1.1. This license is available with a FAQ at: http://scripts.sil.org/OFL" "http://scripts.sil.org/OFL"
Encoding: UnicodeBmp
UnicodeInterp: none
NameList: AGL For New Fonts
DisplaySize: -36
AntiAlias: 1
FitToEm: 1
WinInfo: 54 27 8
BeginPrivate: 4

StartChar: AE
Encoding: 198 198 1
Width: 871
Flags: MW
HStem: -8 21G<320 320> 0 78<479 669.5> 458 184 490 20G<341 356 341 341> 558 84<516.5 528 386.5 595.5> 577 65 634 20G<772 772>
LayerCount: 2
Back
Fore
SplineSet
319 60 m 1x60
 387 66 402 75 402 108 c 0
 402 124 400 139 398 157 c 2
 386 249 l 1
 299 238 l 1
 215 222 l 1
 170 125 l 2
 162 107 159 96 159 88 c 0
 159 69 172 64 214 64 c 1
 247 59 l 1
 241 -6 l 2
 240 -5 131 0 75 0 c 0
 43 0 1 -3 1 -3 c 1
 -4 57 l 1
 8 60 34 87 56 130 c 2
 264 555 l 1
 261 572 253 577 239 577 c 0
 227 577 208 575 208 575 c 1
 202 584 l 1
 210 645 l 1
 210 645 321 642 452 642 c 0x54
 604 642 723 647 772 654 c 1x52
 780 643 l 1
 780 643 762 554 757 461 c 1
 666 455 l 1
 666 455 668 481 668 495 c 0
 668 550 652 558 539 558 c 0
 494 558 487 554 486 531 c 1
 512 349 l 1
 608 361 l 1
 704 380 l 1
 715 370 l 1
 702 286 l 1
 611 279 l 1
 523 269 l 1
 543 146 l 2
 551 98 571 78 613 78 c 0
 726 78 743 93 756 193 c 1
 841 200 l 1
 848 190 l 1
 848 190 830 100 820 4 c 1
 811 -7 l 2
 811 -8 644 0 517 0 c 2
 479 0 l 2x58
 398 0 320 -8 320 -8 c 1xa0
 315 0 l 1
 319 60 l 1x60
252 317 m 1
 317 321 l 1
 379 329 l 1
 356 510 l 1
 341 510 l 1
 252 317 l 1
EndSplineSet
Validated: 33
EndChar

StartChar: Aacute
Encoding: 193 193 2
Width: 625
Flags: MW
HStem: -8 21G<335 335> 0 64 207 79<279 294 294 305 224 306.5> 490 20G<296 296 296 310> 837 20G<453 453>
LayerCount: 2
Back
Fore
SplineSet
552 132 m 0x78
 566 85 585 67 630 63 c 1
 634 56 l 1
 627 -3 l 1
 627 -3 548 0 504 0 c 0x78
 418 0 335 -8 335 -8 c 1xb8
 329 0 l 1
 334 60 l 1
 399 66 411 72 411 97 c 0
 411 105 409 116 406 130 c 2
 386 206 l 1
 360 207 318 207 295 207 c 0
 263 207 224 203 200 200 c 1
 175 125 l 2
 171 111 169 101 169 94 c 0
 169 71 181 64 215 64 c 2
 258 64 l 1
 262 57 l 1
 255 -6 l 1
 255 -6 173 0 109 0 c 0
 55 0 -12 -3 -12 -3 c 1
 -4 64 l 1
 27 69 45 86 61 130 c 2
 239 637 l 1
 398 653 l 1
 409 648 l 1
 409 648 499 301 552 132 c 0x78
296 510 m 1
 224 286 l 1
 294 286 l 2
 316 286 347 288 368 290 c 1
 310 510 l 1
 296 510 l 1
491 775 m 1
 485 762 l 1
 485 762 370 733 256 697 c 1
 243 706 l 1
 230 753 l 1
 338 800 453 857 453 857 c 1
 465 852 l 1
 491 775 l 1
EndSplineSet
Validated: 1
EndChar

StartChar: acute.cap
Encoding: 65537 -1 3
Width: 398
Flags: MW
HStem: 697 21G<124 124> 837 20G<321 321>
LayerCount: 2
Back
Fore
SplineSet
359 775 m 1
 353 762 l 1
 353 762 238 733 124 697 c 1
 111 706 l 1
 98 753 l 1
 206 800 321 857 321 857 c 1
 333 852 l 1
 359 775 l 1
EndSplineSet
Validated: 1
EndChar

StartChar: Abreve
Encoding: 258 258 4
Width: 625
Flags: MW
HStem: -8 21G<335 335> 0 64 207 79<279 294 294 305 224 306.5> 490 20G<296 296 296 310> 693 95<294.5 339.5 294.5 359.5> 828 20G<214 214 420 420>
LayerCount: 2
Back
Fore
SplineSet
552 132 m 0x7c
 566 85 585 67 630 63 c 1
 634 56 l 1
 627 -3 l 1
 627 -3 548 0 504 0 c 0x7c
 418 0 335 -8 335 -8 c 1xbc
 329 0 l 1
 334 60 l 1
 399 66 411 72 411 97 c 0
 411 105 409 116 406 130 c 2
 386 206 l 1
 360 207 318 207 295 207 c 0
 263 207 224 203 200 200 c 1
 175 125 l 2
 171 111 169 101 169 94 c 0
 169 71 181 64 215 64 c 2
 258 64 l 1
 262 57 l 1
 255 -6 l 1
 255 -6 173 0 109 0 c 0
 55 0 -12 -3 -12 -3 c 1
 -4 64 l 1
 27 69 45 86 61 130 c 2
 239 637 l 1
 398 653 l 1
 409 648 l 1
 409 648 499 301 552 132 c 0x7c
296 510 m 1
 224 286 l 1
 294 286 l 2
 316 286 347 288 368 290 c 1
 310 510 l 1
 296 510 l 1
317 788 m 0
 362 788 402 808 420 848 c 1
 437 844 l 1
 465 809 l 1
 447 751 402 693 317 693 c 0
 232 693 187 751 169 809 c 1
 197 844 l 1
 214 848 l 1
 232 808 272 788 317 788 c 0
EndSplineSet
Validated: 1
EndChar

StartChar: breve.cap
Encoding: 65538 -1 5
Width: 398
Flags: MW
HStem: 693 95<176.5 221.5 176.5 241.5> 828 20G<96 96 302 302>
LayerCount: 2
Back
Fore
SplineSet
199 788 m 0
 244 788 284 808 302 848 c 1
 319 844 l 1
 347 809 l 1
 329 751 284 693 199 693 c 0
 114 693 69 751 51 809 c 1
 79 844 l 1
 96 848 l 1
 114 808 154 788 199 788 c 0
EndSplineSet
Validated: 1
EndChar

StartChar: Acircumflex
Encoding: 194 194 6
Width: 625
Flags: MW
HStem: -8 21G<335 335> 0 64 207 79<279 294 294 305 224 306.5> 490 20G<296 296 296 310>
LayerCount: 2
Back
Fore
SplineSet
552 132 m 0x70
 566 85 585 67 630 63 c 1
 634 56 l 1
 627 -3 l 1
 627 -3 548 0 504 0 c 0x70
 418 0 335 -8 335 -8 c 1xb0
 329 0 l 1
 334 60 l 1
 399 66 411 72 411 97 c 0
 411 105 409 116 406 130 c 2
 386 206 l 1
 360 207 318 207 295 207 c 0
 263 207 224 203 200 200 c 1
 175 125 l 2
 171 111 169 101 169 94 c 0
 169 71 181 64 215 64 c 2
 258 64 l 1
 262 57 l 1
 255 -6 l 1
 255 -6 173 0 109 0 c 0
 55 0 -12 -3 -12 -3 c 1
 -4 64 l 1
 27 69 45 86 61 130 c 2
 239 637 l 1
 398 653 l 1
 409 648 l 1
 409 648 499 301 552 132 c 0x70
296 510 m 1
 224 286 l 1
 294 286 l 2
 316 286 347 288 368 290 c 1
 310 510 l 1
 296 510 l 1
176 711 m 1
 151 752 l 1
 226 807 308 876 308 876 c 1
 328 876 l 2
 328 879 411 808 485 752 c 1
 461 711 l 1
 445 707 l 1
 399 730 346 753 318 765 c 1
 289 753 239 730 192 707 c 1
 176 711 l 1
EndSplineSet
Validated: 33
EndChar

StartChar: circumflex.cap
Encoding: 65539 -1 7
Width: 398
Flags: MW
HStem: 707 21G<73 73 326 326>
LayerCount: 2
Back
Fore
SplineSet
57 711 m 1
 32 752 l 1
 107 807 189 876 189 876 c 1
 209 876 l 2
 209 879 292 808 366 752 c 1
 342 711 l 1
 326 707 l 1
 280 730 227 753 199 765 c 1
 170 753 120 730 73 707 c 1
 57 711 l 1
EndSplineSet
Validated: 33
EndChar

StartChar: Adieresis
Encoding: 196 196 8
Width: 625
Flags: MW
HStem: -8 21G<335 335> 0 64 207 79<279 294 294 305 224 306.5> 490 20G<296 296 296 310> 706 128<212 244.5 390.5 423>
LayerCount: 2
Back
Fore
SplineSet
552 132 m 0x78
 566 85 585 67 630 63 c 1
 634 56 l 1
 627 -3 l 1
 627 -3 548 0 504 0 c 0x78
 418 0 335 -8 335 -8 c 1xb8
 329 0 l 1
 334 60 l 1
 399 66 411 72 411 97 c 0
 411 105 409 116 406 130 c 2
 386 206 l 1
 360 207 318 207 295 207 c 0
 263 207 224 203 200 200 c 1
 175 125 l 2
 171 111 169 101 169 94 c 0
 169 71 181 64 215 64 c 2
 258 64 l 1
 262 57 l 1
 255 -6 l 1
 255 -6 173 0 109 0 c 0
 55 0 -12 -3 -12 -3 c 1
 -4 64 l 1
 27 69 45 86 61 130 c 2
 239 637 l 1
 398 653 l 1
 409 648 l 1
 409 648 499 301 552 132 c 0x78
296 510 m 1
 224 286 l 1
 294 286 l 2
 316 286 347 288 368 290 c 1
 310 510 l 1
 296 510 l 1
403 706 m 0
 364 706 343 731 343 767 c 0
 343 806 370 834 411 834 c 0
 449 834 470 809 470 774 c 0
 470 734 443 706 403 706 c 0
224 706 m 0
 186 706 165 731 165 767 c 0
 165 806 192 834 232 834 c 0
 270 834 292 809 292 774 c 0
 292 734 265 706 224 706 c 0
EndSplineSet
Validated: 1
EndChar

StartChar: dieresis.cap
Encoding: 65540 -1 9
Width: 398
Flags: MW
HStem: 706 128<93 125.5 271.5 304>
LayerCount: 2
Back
Fore
SplineSet
284 706 m 0
 245 706 224 731 224 767 c 0
 224 806 251 834 292 834 c 0
 330 834 351 809 351 774 c 0
 351 734 324 706 284 706 c 0
105 706 m 0
 67 706 46 731 46 767 c 0
 46 806 73 834 113 834 c 0
 151 834 173 809 173 774 c 0
 173 734 146 706 105 706 c 0
EndSplineSet
Validated: 1
EndChar

StartChar: Agrave
Encoding: 192 192 10
Width: 625
Flags: MW
HStem: -8 21G<335 335> 0 64 207 79<279 294 294 305 224 306.5> 490 20G<296 296 296 310> 837 20G<202 202>
LayerCount: 2
Back
Fore
SplineSet
552 132 m 0x78
 566 85 585 67 630 63 c 1
 634 56 l 1
 627 -3 l 1
 627 -3 548 0 504 0 c 0x78
 418 0 335 -8 335 -8 c 1xb8
 329 0 l 1
 334 60 l 1
 399 66 411 72 411 97 c 0
 411 105 409 116 406 130 c 2
 386 206 l 1
 360 207 318 207 295 207 c 0
 263 207 224 203 200 200 c 1
 175 125 l 2
 171 111 169 101 169 94 c 0
 169 71 181 64 215 64 c 2
 258 64 l 1
 262 57 l 1
 255 -6 l 1
 255 -6 173 0 109 0 c 0
 55 0 -12 -3 -12 -3 c 1
 -4 64 l 1
 27 69 45 86 61 130 c 2
 239 637 l 1
 398 653 l 1
 409 648 l 1
 409 648 499 301 552 132 c 0x78
296 510 m 1
 224 286 l 1
 294 286 l 2
 316 286 347 288 368 290 c 1
 310 510 l 1
 296 510 l 1
169 762 m 1
 164 775 l 1
 190 852 l 1
 202 857 l 1
 202 857 317 800 425 753 c 1
 412 706 l 1
 398 697 l 1
 284 733 169 762 169 762 c 1
EndSplineSet
Validated: 1
EndChar

StartChar: grave.cap
Encoding: 65541 -1 11
Width: 398
Flags: MW
HStem: 697 21G<273 273> 837 20G<77 77>
LayerCount: 2
Back
Fore
SplineSet
44 762 m 1
 39 775 l 1
 65 852 l 1
 77 857 l 1
 77 857 192 800 300 753 c 1
 287 706 l 1
 273 697 l 1
 159 733 44 762 44 762 c 1
EndSplineSet
Validated: 1
EndChar

StartChar: Amacron
Encoding: 256 256 12
Width: 625
Flags: MW
HStem: -8 21G<335 335> 0 64 207 79<279 294 294 305 224 306.5> 490 20G<296 296 296 310> 708 86<306.5 318> 780 20G<463 463>
LayerCount: 2
Back
Fore
SplineSet
552 132 m 0x78
 566 85 585 67 630 63 c 1
 634 56 l 1
 627 -3 l 1
 627 -3 548 0 504 0 c 0x74
 418 0 335 -8 335 -8 c 1xb8
 329 0 l 1
 334 60 l 1
 399 66 411 72 411 97 c 0
 411 105 409 116 406 130 c 2
 386 206 l 1
 360 207 318 207 295 207 c 0
 263 207 224 203 200 200 c 1
 175 125 l 2
 171 111 169 101 169 94 c 0
 169 71 181 64 215 64 c 2
 258 64 l 1
 262 57 l 1
 255 -6 l 1
 255 -6 173 0 109 0 c 0
 55 0 -12 -3 -12 -3 c 1
 -4 64 l 1
 27 69 45 86 61 130 c 2
 239 637 l 1
 398 653 l 1
 409 648 l 1
 409 648 499 301 552 132 c 0x78
296 510 m 1
 224 286 l 1
 294 286 l 2
 316 286 347 288 368 290 c 1
 310 510 l 1
 296 510 l 1
463 800 m 1
 471 786 l 1
 459 709 l 1
 318 708 l 2
 259 708 179 707 179 707 c 1
 168 719 l 1
 182 795 l 1
 182 795 277 794 336 794 c 0x78
 386 794 463 800 463 800 c 1
EndSplineSet
Validated: 1
EndChar

StartChar: macron.cap
Encoding: 65542 -1 13
Width: 398
Flags: MW
HStem: 707 21G<61 61> 708 86<188.5 200> 780 20G<345 345>
LayerCount: 2
Back
Fore
SplineSet
345 800 m 1xa0
 353 786 l 1
 341 709 l 1
 200 708 l 2x40
 141 708 61 707 61 707 c 1xa0
 50 719 l 1
 64 795 l 1
 64 795 159 794 218 794 c 0x40
 268 794 345 800 345 800 c 1xa0
EndSplineSet
Validated: 1
EndChar

StartChar: Aogonek
Encoding: 260 260 14
Width: 625
Flags: MW
HStem: -241 71<528 531> 0 64 207 79<279 294 294 305 224 306.5> 490 20G<296 296 296 310> 633 20G<398 398>
LayerCount: 2
Back
Fore
SplineSet
615 -146 m 1
 633 -175 l 1
 633 -175 581 -224 531 -241 c 1
 459 -241 412 -207 412 -150 c 0
 412 -105 444 -61 503 0 c 1
 417 0 335 -8 335 -8 c 1
 329 0 l 1
 334 60 l 1
 399 66 411 72 411 97 c 0
 411 105 409 116 406 130 c 2
 386 206 l 1
 360 207 318 207 295 207 c 0
 263 207 224 203 200 200 c 1
 175 125 l 2
 171 111 169 101 169 94 c 0
 169 71 181 64 215 64 c 2
 258 64 l 1
 262 57 l 1
 255 -6 l 1
 255 -6 173 0 109 0 c 0
 55 0 -12 -3 -12 -3 c 1
 -4 64 l 1
 27 69 45 86 61 130 c 2
 239 637 l 1
 398 653 l 1
 409 648 l 1
 409 648 499 301 552 132 c 0
 566 85 585 67 630 63 c 1
 634 56 l 1
 627 -3 l 1
 627 -3 595 -1 562 0 c 1
 511 -61 493 -90 493 -122 c 0
 493 -150 513 -170 543 -170 c 0
 578 -170 615 -146 615 -146 c 1
296 510 m 1
 224 286 l 1
 294 286 l 2
 316 286 347 288 368 290 c 1
 310 510 l 1
 296 510 l 1
EndSplineSet
Validated: 1
EndChar

StartChar: ogonek
Encoding: 731 731 15
Width: 398
Flags: MW
HStem: -241 71<201 204> 22 20G<218 272 272 272>
LayerCount: 2
Back
Fore
SplineSet
288 -146 m 1
 306 -175 l 1
 306 -175 254 -224 204 -241 c 1
 132 -241 85 -207 85 -150 c 0
 85 -96 133 -42 218 42 c 1
 272 42 l 1
 193 -49 166 -83 166 -122 c 0
 166 -150 186 -170 216 -170 c 0
 251 -170 288 -146 288 -146 c 1
EndSplineSet
Validated: 1
EndChar

StartChar: Aring
Encoding: 197 197 16
Width: 625
Flags: MW
HStem: -8 21G<335 335> 0 64 207 79<279 294 294 305 224 306.5> 490 20G<296 296 296 310> 678 53<310.5 327.5 310.5 344> 809 55<301 329>
LayerCount: 2
Back
Fore
SplineSet
552 132 m 0x7c
 566 85 585 67 630 63 c 1
 634 56 l 1
 627 -3 l 1
 627 -3 548 0 504 0 c 0x7c
 418 0 335 -8 335 -8 c 1xbc
 329 0 l 1
 334 60 l 1
 399 66 411 72 411 97 c 0
 411 105 409 116 406 130 c 2
 386 206 l 1
 360 207 318 207 295 207 c 0
 263 207 224 203 200 200 c 1
 175 125 l 2
 171 111 169 101 169 94 c 0
 169 71 181 64 215 64 c 2
 258 64 l 1
 262 57 l 1
 255 -6 l 1
 255 -6 173 0 109 0 c 0
 55 0 -12 -3 -12 -3 c 1
 -4 64 l 1
 27 69 45 86 61 130 c 2
 239 637 l 1
 398 653 l 1
 409 648 l 1
 409 648 499 301 552 132 c 0x7c
296 510 m 1
 224 286 l 1
 294 286 l 2
 316 286 347 288 368 290 c 1
 310 510 l 1
 296 510 l 1
320 731 m 0
 335 731 360 736 360 767 c 0
 360 792 344 809 314 809 c 0
 288 809 275 795 275 773 c 0
 275 742 301 731 320 731 c 0
313 678 m 0
 256 678 225 715 225 769 c 0
 225 823 263 864 321 864 c 0
 386 864 410 821 410 777 c 0
 410 726 375 678 313 678 c 0
EndSplineSet
Validated: 1
EndChar

StartChar: ring.cap
Encoding: 65543 -1 17
Width: 398
Flags: MW
HStem: 678 53<191.5 208.5 191.5 225> 809 55<182 210>
LayerCount: 2
Back
Fore
SplineSet
201 731 m 0
 216 731 241 736 241 767 c 0
 241 792 225 809 195 809 c 0
 169 809 156 795 156 773 c 0
 156 742 182 731 201 731 c 0
194 678 m 0
 137 678 106 715 106 769 c 0
 106 823 144 864 202 864 c 0
 267 864 291 821 291 777 c 0
 291 726 256 678 194 678 c 0
EndSplineSet
Validated: 1
EndChar

StartChar: Atilde
Encoding: 195 195 18
Width: 625
Flags: MW
HStem: -8 21G<335 335> 0 64 207 79<279 294 294 305 224 306.5> 490 20G<296 296 296 310> 705 96<387 395 368.5 404> 739 62 739 96<242 250.5 234 268.5> 833 20G<448 459 459 459>
LayerCount: 2
Back
Fore
SplineSet
552 132 m 0x79
 566 85 585 67 630 63 c 1
 634 56 l 1
 627 -3 l 1
 627 -3 548 0 504 0 c 0x75
 418 0 335 -8 335 -8 c 1xb9
 329 0 l 1
 334 60 l 1
 399 66 411 72 411 97 c 0
 411 105 409 116 406 130 c 2
 386 206 l 1
 360 207 318 207 295 207 c 0
 263 207 224 203 200 200 c 1
 175 125 l 2
 171 111 169 101 169 94 c 0
 169 71 181 64 215 64 c 2
 258 64 l 1
 262 57 l 1
 255 -6 l 1
 255 -6 173 0 109 0 c 0
 55 0 -12 -3 -12 -3 c 1
 -4 64 l 1
 27 69 45 86 61 130 c 2
 239 637 l 1
 398 653 l 1
 409 648 l 1
 409 648 499 301 552 132 c 0x79
296 510 m 1
 224 286 l 1
 294 286 l 2
 316 286 347 288 368 290 c 1
 310 510 l 1
 296 510 l 1
189 687 m 1
 178 687 l 1
 139 724 l 1
 139 735 l 1
 217 831 l 1
 234 835 l 1x72
 267 835 354 801 383 801 c 0
 407 801 448 853 448 853 c 1
 459 853 l 1
 499 816 l 1
 499 806 l 1
 420 709 l 1
 404 705 l 1x79
 370 705 283 739 254 739 c 0
 230 739 189 687 189 687 c 1
EndSplineSet
Validated: 1
EndChar

StartChar: tilde.cap
Encoding: 65544 -1 19
Width: 398
Flags: MW
HStem: 687 21G<59 70 59 59> 705 96<268 276 249.5 285> 739 62 739 96<123 131.5 115 149.5> 833 20G<329 340 340 340>
LayerCount: 2
Back
Fore
SplineSet
70 687 m 1xa8
 59 687 l 1
 20 724 l 1
 20 735 l 1
 98 831 l 1
 115 835 l 1x90
 148 835 235 801 264 801 c 0
 288 801 329 853 329 853 c 1
 340 853 l 1
 380 816 l 1
 380 806 l 1
 301 709 l 1
 285 705 l 1x48
 251 705 164 739 135 739 c 0
 111 739 70 687 70 687 c 1xa8
EndSplineSet
Validated: 1
EndChar

StartChar: B
Encoding: 66 66 20
Width: 629
Flags: MW
HStem: -10 86<331 373.5 307 410> 0 21G<154.5 202.5> 564 83<272.5 415> 577 70 622 20G<175.5 210.5>
LayerCount: 2
Back
Fore
SplineSet
183 0 m 0x60
 126 0 36 -10 36 -10 c 1
 44 58 l 1
 101 68 117 85 117 137 c 2
 118 527 l 2
 118 564 110 577 85 577 c 0x90
 73 577 51 575 51 575 c 1
 45 583 l 1
 54 644 l 1
 54 644 158 642 193 642 c 0x88
 228 642 346 647 346 647 c 1
 484 647 558 593 558 492 c 0
 558 422 514 372 451 339 c 1
 531 318 592 271 592 190 c 0
 592 69 489 -10 331 -10 c 0x90
 294 -9 222 0 183 0 c 0x60
343 281 m 1
 251 280 l 1
 247 135 l 2
 247 93 273 76 341 76 c 0xa0
 406 76 444 113 444 176 c 0
 444 229 409 266 343 281 c 1
253 369 m 1
 253 369 329 360 348 360 c 1
 348 360 417 384 417 466 c 0
 417 533 373 564 279 564 c 0
 266 564 262 560 261 546 c 0
 257 491 254 412 253 369 c 1
EndSplineSet
Validated: 1
EndChar

StartChar: C
Encoding: 67 67 21
Width: 617
Flags: MW
HStem: -12 94<298 386 298 387> -12 235 423 231 557 97<291.5 380.5>
LayerCount: 2
Back
Fore
SplineSet
325 -12 m 0x90
 141 -12 28 108 28 304 c 0
 28 517 164 654 378 654 c 0
 462 654 569 629 569 629 c 1
 575 616 l 1
 575 616 555 533 549 427 c 1
 450 420 l 1
 450 420 452 447 452 473 c 0
 452 531 418 557 343 557 c 0
 240 557 184 484 184 338 c 0
 184 175 246 82 350 82 c 0
 422 82 460 123 476 220 c 1
 575 227 l 1
 575 227 558 123 555 40 c 1
 545 28 l 1
 545 28 449 -12 325 -12 c 0x90
EndSplineSet
Validated: 8388609
EndChar

StartChar: Cacute
Encoding: 262 262 22
Width: 617
Flags: MW
HStem: -12 94<298 386 298 387> -12 235 423 231 557 97<291.5 380.5> 837 20G<484 484>
LayerCount: 2
Back
Fore
SplineSet
325 -12 m 0x98
 141 -12 28 108 28 304 c 0
 28 517 164 654 378 654 c 0
 462 654 569 629 569 629 c 1
 575 616 l 1
 575 616 555 533 549 427 c 1
 450 420 l 1
 450 420 452 447 452 473 c 0
 452 531 418 557 343 557 c 0
 240 557 184 484 184 338 c 0
 184 175 246 82 350 82 c 0
 422 82 460 123 476 220 c 1
 575 227 l 1
 575 227 558 123 555 40 c 1
 545 28 l 1
 545 28 449 -12 325 -12 c 0x98
522 775 m 1
 516 762 l 1
 516 762 401 733 287 697 c 1
 274 706 l 1
 261 753 l 1
 369 800 484 857 484 857 c 1
 496 852 l 1
 522 775 l 1
EndSplineSet
Validated: 8388609
EndChar

StartChar: Ccaron
Encoding: 268 268 23
Width: 617
Flags: MW
HStem: -12 94<298 386 298 387> -12 235 423 231 557 97<291.5 380.5> 845 20G<220 220 473 473>
LayerCount: 2
Back
Fore
SplineSet
325 -12 m 0x98
 141 -12 28 108 28 304 c 0
 28 517 164 654 378 654 c 0
 462 654 569 629 569 629 c 1
 575 616 l 1
 575 616 555 533 549 427 c 1
 450 420 l 1
 450 420 452 447 452 473 c 0
 452 531 418 557 343 557 c 0
 240 557 184 484 184 338 c 0
 184 175 246 82 350 82 c 0
 422 82 460 123 476 220 c 1
 575 227 l 1
 575 227 558 123 555 40 c 1
 545 28 l 1
 545 28 449 -12 325 -12 c 0x98
489 861 m 1
 514 820 l 1
 439 766 357 696 357 696 c 1
 337 696 l 1
 337 696 254 766 180 820 c 1
 204 861 l 1
 220 865 l 1
 266 842 319 819 347 807 c 1
 376 819 426 842 473 865 c 1
 489 861 l 1
EndSplineSet
Validated: 8388609
EndChar

StartChar: caron.cap
Encoding: 65545 -1 24
Width: 398
Flags: MW
HStem: 696 21G<189 209 189 189> 845 20G<72 72 325 325>
LayerCount: 2
Back
Fore
SplineSet
341 861 m 1
 366 820 l 1
 291 766 209 696 209 696 c 1
 189 696 l 1
 189 696 106 766 32 820 c 1
 56 861 l 1
 72 865 l 1
 118 842 171 819 199 807 c 1
 228 819 278 842 325 865 c 1
 341 861 l 1
EndSplineSet
Validated: 1
EndChar

StartChar: Ccedilla
Encoding: 199 199 25
Width: 617
Flags: MW
HStem: -237 50<311 337.5 311 340> -151 20G<265 274 274 274> -11 93<301 301 352 352> -11 234 423 231 557 97<291.5 380.5>
LayerCount: 2
Back
Fore
SplineSet
280 -86 m 1xe4
 301 -11 l 1
 131 -1 28 116 28 304 c 0
 28 517 164 654 378 654 c 0
 462 654 569 629 569 629 c 1
 575 616 l 1
 575 616 555 533 549 427 c 1
 450 420 l 1
 450 420 452 447 452 473 c 0
 452 531 418 557 343 557 c 0
 240 557 184 484 184 338 c 0
 184 175 246 82 350 82 c 0
 422 82 460 123 476 220 c 1
 575 227 l 1
 575 227 558 123 555 40 c 1
 545 28 l 1
 545 28 462 -6 352 -11 c 1
 343 -44 l 1
 381 -66 439 -100 439 -141 c 0
 439 -194 374 -237 306 -237 c 0
 272 -237 228 -221 228 -194 c 0
 228 -179 250 -149 265 -131 c 1
 274 -131 l 1
 275 -168 296 -187 326 -187 c 0
 349 -187 366 -175 366 -157 c 0
 366 -134 320 -107 280 -86 c 1xe4
EndSplineSet
Validated: 8388609
EndChar

StartChar: cedilla
Encoding: 184 184 26
Width: 398
Flags: MW
HStem: -237 50<172 198.5 172 201> -151 20G<126 135 135 135> 9 20G<173 225 225 225>
LayerCount: 2
Back
Fore
SplineSet
141 -86 m 1
 173 29 l 1
 225 29 l 1
 204 -44 l 1
 242 -66 300 -100 300 -141 c 0
 300 -194 235 -237 167 -237 c 0
 133 -237 89 -221 89 -194 c 0
 89 -179 111 -149 126 -131 c 1
 135 -131 l 1
 136 -168 157 -187 187 -187 c 0
 210 -187 227 -175 227 -157 c 0
 227 -134 181 -107 141 -86 c 1
EndSplineSet
Validated: 1
EndChar

StartChar: Cdotaccent
Encoding: 266 266 27
Width: 617
Flags: MW
HStem: -12 94<298 386 298 387> -12 235 423 231 557 97<291.5 380.5> 702 152<330 368>
LayerCount: 2
Back
Fore
SplineSet
325 -12 m 0x98
 141 -12 28 108 28 304 c 0
 28 517 164 654 378 654 c 0
 462 654 569 629 569 629 c 1
 575 616 l 1
 575 616 555 533 549 427 c 1
 450 420 l 1
 450 420 452 447 452 473 c 0
 452 531 418 557 343 557 c 0
 240 557 184 484 184 338 c 0
 184 175 246 82 350 82 c 0
 422 82 460 123 476 220 c 1
 575 227 l 1
 575 227 558 123 555 40 c 1
 545 28 l 1
 545 28 449 -12 325 -12 c 0x98
344 702 m 0
 298 702 274 732 274 774 c 0
 274 821 306 854 354 854 c 0
 398 854 424 825 424 782 c 0
 424 735 392 702 344 702 c 0
EndSplineSet
Validated: 8388609
EndChar

StartChar: dotaccent.cap
Encoding: 65546 -1 28
Width: 398
Flags: MW
HStem: 702 152<180 218>
LayerCount: 2
Back
Fore
SplineSet
194 702 m 0
 148 702 124 732 124 774 c 0
 124 821 156 854 204 854 c 0
 248 854 274 825 274 782 c 0
 274 735 242 702 194 702 c 0
EndSplineSet
Validated: 1
EndChar

StartChar: D
Encoding: 68 68 29
Width: 693
Flags: MW
HStem: -12 87<318 388 297 420> 0 75 560 87<342 363> 576 71 622 20G<163.5 206>
LayerCount: 2
Back
Fore
SplineSet
318 -12 m 1x90
 318 -12 224 0 167 0 c 0
 114 0 38 -10 38 -10 c 1
 45 58 l 1
 102 69 117 87 117 143 c 2
 118 522 l 2
 118 565 111 576 86 576 c 0x50
 73 576 53 574 53 574 c 1
 47 583 l 1
 55 645 l 1
 55 645 144 642 183 642 c 0x88
 229 642 342 647 342 647 c 1
 544 647 665 535 665 347 c 0
 665 136 522 -12 318 -12 c 1x90
289 560 m 0
 267 560 261 555 260 536 c 0
 252 368 247 235 247 146 c 0
 247 89 264 75 330 75 c 0
 446 75 508 156 508 316 c 0
 508 486 437 560 289 560 c 0
EndSplineSet
Validated: 1
EndChar

StartChar: Dcaron
Encoding: 270 270 30
Width: 693
Flags: MW
HStem: -12 87<318 388 297 420> 0 75 560 87<342 363> 576 71 622 20G<163.5 206> 845 20G<212 212 465 465>
LayerCount: 2
Back
Fore
SplineSet
318 -12 m 1x94
 318 -12 224 0 167 0 c 0
 114 0 38 -10 38 -10 c 1
 45 58 l 1
 102 69 117 87 117 143 c 2
 118 522 l 2
 118 565 111 576 86 576 c 0x54
 73 576 53 574 53 574 c 1
 47 583 l 1
 55 645 l 1
 55 645 144 642 183 642 c 0x8c
 229 642 342 647 342 647 c 1
 544 647 665 535 665 347 c 0
 665 136 522 -12 318 -12 c 1x94
289 560 m 0
 267 560 261 555 260 536 c 0
 252 368 247 235 247 146 c 0
 247 89 264 75 330 75 c 0
 446 75 508 156 508 316 c 0
 508 486 437 560 289 560 c 0
481 861 m 1
 506 820 l 1
 431 766 349 696 349 696 c 1
 329 696 l 1
 329 696 246 766 172 820 c 1
 196 861 l 1
 212 865 l 1
 258 842 311 819 339 807 c 1
 368 819 418 842 465 865 c 1
 481 861 l 1
EndSplineSet
Validated: 1
EndChar

StartChar: E
Encoding: 69 69 31
Width: 597
Flags: MW
HStem: -10 21G<36 36> 0 79<165.5 373> 285 84<331.5 351> 458 184 558 84<289.5 311 202.5 369> 577 65 634 20G<544 544>
LayerCount: 2
Back
Fore
SplineSet
247 139 m 0x68
 247 86 254 79 311 79 c 0
 435 79 453 93 467 193 c 1
 552 200 l 1
 559 190 l 1
 559 190 541 100 531 4 c 1
 522 -7 l 1
 522 -7 334 0 210 0 c 0x70
 121 0 36 -10 36 -10 c 1
 44 58 l 1
 99 66 116 86 116 144 c 2
 117 523 l 2
 117 566 111 577 84 577 c 0
 73 577 54 575 54 575 c 1
 47 584 l 1
 55 645 l 1
 55 645 165 642 240 642 c 0xa4
 382 642 483 646 544 654 c 1x62
 552 643 l 1
 552 643 534 554 529 461 c 1
 437 455 l 1
 437 455 439 481 439 495 c 0
 439 550 425 558 313 558 c 0
 266 558 261 555 260 525 c 2
 253 370 l 1
 274 370 317 369 346 369 c 0
 379 369 462 377 462 377 c 1
 470 368 l 1
 456 282 l 1
 456 282 376 285 326 285 c 0
 296 285 267 281 250 279 c 1
 248 206 247 166 247 139 c 0x68
EndSplineSet
Validated: 1
EndChar

StartChar: Eacute
Encoding: 201 201 32
Width: 597
Flags: MW
HStem: -10 21G<36 36> 0 79<165.5 373> 285 84<331.5 351> 458 184 558 84<289.5 311 202.5 369> 577 65 837 20G<454 454>
LayerCount: 2
Back
Fore
SplineSet
247 139 m 0x6a
 247 86 254 79 311 79 c 0
 435 79 453 93 467 193 c 1
 552 200 l 1
 559 190 l 1
 559 190 541 100 531 4 c 1
 522 -7 l 1
 522 -7 334 0 210 0 c 0x72
 121 0 36 -10 36 -10 c 1
 44 58 l 1
 99 66 116 86 116 144 c 2
 117 523 l 2
 117 566 111 577 84 577 c 0xa6
 73 577 54 575 54 575 c 1
 47 584 l 1
 55 645 l 1
 55 645 165 642 240 642 c 0
 382 642 483 646 544 654 c 1
 552 643 l 1
 552 643 534 554 529 461 c 1
 437 455 l 1
 437 455 439 481 439 495 c 0
 439 550 425 558 313 558 c 0
 266 558 261 555 260 525 c 2
 253 370 l 1
 274 370 317 369 346 369 c 0
 379 369 462 377 462 377 c 1
 470 368 l 1
 456 282 l 1
 456 282 376 285 326 285 c 0
 296 285 267 281 250 279 c 1
 248 206 247 166 247 139 c 0x6a
492 775 m 1
 486 762 l 1
 486 762 371 733 257 697 c 1
 244 706 l 1
 231 753 l 1
 339 800 454 857 454 857 c 1
 466 852 l 1
 492 775 l 1
EndSplineSet
Validated: 1
EndChar

StartChar: Ecaron
Encoding: 282 282 33
Width: 597
Flags: MW
HStem: -10 21G<36 36> 0 79<165.5 373> 285 84<331.5 351> 458 184 558 84<289.5 311 202.5 369> 577 65 845 20G<191 191 444 444>
LayerCount: 2
Back
Fore
SplineSet
247 139 m 0x6a
 247 86 254 79 311 79 c 0
 435 79 453 93 467 193 c 1
 552 200 l 1
 559 190 l 1
 559 190 541 100 531 4 c 1
 522 -7 l 1
 522 -7 334 0 210 0 c 0x72
 121 0 36 -10 36 -10 c 1
 44 58 l 1
 99 66 116 86 116 144 c 2
 117 523 l 2
 117 566 111 577 84 577 c 0xa6
 73 577 54 575 54 575 c 1
 47 584 l 1
 55 645 l 1
 55 645 165 642 240 642 c 0
 382 642 483 646 544 654 c 1
 552 643 l 1
 552 643 534 554 529 461 c 1
 437 455 l 1
 437 455 439 481 439 495 c 0
 439 550 425 558 313 558 c 0
 266 558 261 555 260 525 c 2
 253 370 l 1
 274 370 317 369 346 369 c 0
 379 369 462 377 462 377 c 1
 470 368 l 1
 456 282 l 1
 456 282 376 285 326 285 c 0
 296 285 267 281 250 279 c 1
 248 206 247 166 247 139 c 0x6a
460 861 m 1
 485 820 l 1
 410 766 328 696 328 696 c 1
 308 696 l 1
 308 696 225 766 151 820 c 1
 175 861 l 1
 191 865 l 1
 237 842 290 819 318 807 c 1
 347 819 397 842 444 865 c 1
 460 861 l 1
EndSplineSet
Validated: 1
EndChar

StartChar: Ecircumflex
Encoding: 202 202 34
Width: 597
Flags: MW
HStem: -10 21G<36 36> 0 79<165.5 373> 285 84<331.5 351> 458 184 558 84<289.5 311 202.5 369> 577 65
LayerCount: 2
Back
Fore
SplineSet
247 139 m 0x68
 247 86 254 79 311 79 c 0
 435 79 453 93 467 193 c 1
 552 200 l 1
 559 190 l 1
 559 190 541 100 531 4 c 1
 522 -7 l 1
 522 -7 334 0 210 0 c 0x70
 121 0 36 -10 36 -10 c 1
 44 58 l 1
 99 66 116 86 116 144 c 2
 117 523 l 2
 117 566 111 577 84 577 c 0xa4
 73 577 54 575 54 575 c 1
 47 584 l 1
 55 645 l 1
 55 645 165 642 240 642 c 0
 382 642 483 646 544 654 c 1
 552 643 l 1
 552 643 534 554 529 461 c 1
 437 455 l 1
 437 455 439 481 439 495 c 0
 439 550 425 558 313 558 c 0
 266 558 261 555 260 525 c 2
 253 370 l 1
 274 370 317 369 346 369 c 0
 379 369 462 377 462 377 c 1
 470 368 l 1
 456 282 l 1
 456 282 376 285 326 285 c 0
 296 285 267 281 250 279 c 1
 248 206 247 166 247 139 c 0x68
177 711 m 1
 152 752 l 1
 227 807 309 876 309 876 c 1
 329 876 l 2
 329 879 412 808 486 752 c 1
 462 711 l 1
 446 707 l 1
 400 730 347 753 319 765 c 1
 290 753 240 730 193 707 c 1
 177 711 l 1
EndSplineSet
Validated: 33
EndChar

StartChar: Edieresis
Encoding: 203 203 35
Width: 597
Flags: MW
HStem: -10 21G<36 36> 0 79<165.5 373> 285 84<331.5 351> 458 184 558 84<289.5 311 202.5 369> 577 65 706 128<212 244.5 390.5 423>
LayerCount: 2
Back
Fore
SplineSet
247 139 m 0x6a
 247 86 254 79 311 79 c 0
 435 79 453 93 467 193 c 1
 552 200 l 1
 559 190 l 1
 559 190 541 100 531 4 c 1
 522 -7 l 1
 522 -7 334 0 210 0 c 0x72
 121 0 36 -10 36 -10 c 1
 44 58 l 1
 99 66 116 86 116 144 c 2
 117 523 l 2
 117 566 111 577 84 577 c 0xa6
 73 577 54 575 54 575 c 1
 47 584 l 1
 55 645 l 1
 55 645 165 642 240 642 c 0
 382 642 483 646 544 654 c 1
 552 643 l 1
 552 643 534 554 529 461 c 1
 437 455 l 1
 437 455 439 481 439 495 c 0
 439 550 425 558 313 558 c 0
 266 558 261 555 260 525 c 2
 253 370 l 1
 274 370 317 369 346 369 c 0
 379 369 462 377 462 377 c 1
 470 368 l 1
 456 282 l 1
 456 282 376 285 326 285 c 0
 296 285 267 281 250 279 c 1
 248 206 247 166 247 139 c 0x6a
403 706 m 0
 364 706 343 731 343 767 c 0
 343 806 370 834 411 834 c 0
 449 834 470 809 470 774 c 0
 470 734 443 706 403 706 c 0
224 706 m 0
 186 706 165 731 165 767 c 0
 165 806 192 834 232 834 c 0
 270 834 292 809 292 774 c 0
 292 734 265 706 224 706 c 0
EndSplineSet
Validated: 1
EndChar

StartChar: Edotaccent
Encoding: 278 278 36
Width: 597
Flags: MW
HStem: -10 21G<36 36> 0 79<165.5 373> 285 84<331.5 351> 458 184 558 84<289.5 311 202.5 369> 577 65 702 152<300 338>
LayerCount: 2
Back
Fore
SplineSet
247 139 m 0x6a
 247 86 254 79 311 79 c 0
 435 79 453 93 467 193 c 1
 552 200 l 1
 559 190 l 1
 559 190 541 100 531 4 c 1
 522 -7 l 1
 522 -7 334 0 210 0 c 0x72
 121 0 36 -10 36 -10 c 1
 44 58 l 1
 99 66 116 86 116 144 c 2
 117 523 l 2
 117 566 111 577 84 577 c 0xa6
 73 577 54 575 54 575 c 1
 47 584 l 1
 55 645 l 1
 55 645 165 642 240 642 c 0
 382 642 483 646 544 654 c 1
 552 643 l 1
 552 643 534 554 529 461 c 1
 437 455 l 1
 437 455 439 481 439 495 c 0
 439 550 425 558 313 558 c 0
 266 558 261 555 260 525 c 2
 253 370 l 1
 274 370 317 369 346 369 c 0
 379 369 462 377 462 377 c 1
 470 368 l 1
 456 282 l 1
 456 282 376 285 326 285 c 0
 296 285 267 281 250 279 c 1
 248 206 247 166 247 139 c 0x6a
314 702 m 0
 268 702 244 732 244 774 c 0
 244 821 276 854 324 854 c 0
 368 854 394 825 394 782 c 0
 394 735 362 702 314 702 c 0
EndSplineSet
Validated: 1
EndChar

StartChar: Egrave
Encoding: 200 200 37
Width: 597
Flags: MW
HStem: -10 21G<36 36> 0 79<165.5 373> 285 84<331.5 351> 458 184 558 84<289.5 311 202.5 369> 577 65 837 20G<188 188>
LayerCount: 2
Back
Fore
SplineSet
247 139 m 0x6a
 247 86 254 79 311 79 c 0
 435 79 453 93 467 193 c 1
 552 200 l 1
 559 190 l 1
 559 190 541 100 531 4 c 1
 522 -7 l 1
 522 -7 334 0 210 0 c 0x72
 121 0 36 -10 36 -10 c 1
 44 58 l 1
 99 66 116 86 116 144 c 2
 117 523 l 2
 117 566 111 577 84 577 c 0xa6
 73 577 54 575 54 575 c 1
 47 584 l 1
 55 645 l 1
 55 645 165 642 240 642 c 0
 382 642 483 646 544 654 c 1
 552 643 l 1
 552 643 534 554 529 461 c 1
 437 455 l 1
 437 455 439 481 439 495 c 0
 439 550 425 558 313 558 c 0
 266 558 261 555 260 525 c 2
 253 370 l 1
 274 370 317 369 346 369 c 0
 379 369 462 377 462 377 c 1
 470 368 l 1
 456 282 l 1
 456 282 376 285 326 285 c 0
 296 285 267 281 250 279 c 1
 248 206 247 166 247 139 c 0x6a
155 762 m 1
 150 775 l 1
 176 852 l 1
 188 857 l 1
 188 857 303 800 411 753 c 1
 398 706 l 1
 384 697 l 1
 270 733 155 762 155 762 c 1
EndSplineSet
Validated: 1
EndChar

StartChar: Emacron
Encoding: 274 274 38
Width: 597
Flags: MW
HStem: -10 21G<36 36> 0 79<165.5 373> 285 84<331.5 351> 458 184 558 84<289.5 311 202.5 369> 577 65 708 86<306.5 318> 780 20G<463 463>
LayerCount: 2
Back
Fore
SplineSet
247 139 m 0x6a
 247 86 254 79 311 79 c 0
 435 79 453 93 467 193 c 1
 552 200 l 1
 559 190 l 1
 559 190 541 100 531 4 c 1
 522 -7 l 1
 522 -7 334 0 210 0 c 0x71
 121 0 36 -10 36 -10 c 1
 44 58 l 1
 99 66 116 86 116 144 c 2
 117 523 l 2
 117 566 111 577 84 577 c 0xa6
 73 577 54 575 54 575 c 1
 47 584 l 1
 55 645 l 1
 55 645 165 642 240 642 c 0
 382 642 483 646 544 654 c 1
 552 643 l 1
 552 643 534 554 529 461 c 1
 437 455 l 1
 437 455 439 481 439 495 c 0
 439 550 425 558 313 558 c 0
 266 558 261 555 260 525 c 2
 253 370 l 1
 274 370 317 369 346 369 c 0
 379 369 462 377 462 377 c 1
 470 368 l 1
 456 282 l 1
 456 282 376 285 326 285 c 0
 296 285 267 281 250 279 c 1
 248 206 247 166 247 139 c 0x6a
463 800 m 1
 471 786 l 1
 459 709 l 1
 318 708 l 2
 259 708 179 707 179 707 c 1
 168 719 l 1
 182 795 l 1
 182 795 277 794 336 794 c 0x72
 386 794 463 800 463 800 c 1
EndSplineSet
Validated: 1
EndChar

StartChar: Eng
Encoding: 330 330 39
Width: 727
Flags: MW
HStem: -163 21G<434 434> 0 63<128 259.5> 579 63 628 20G<710 710>
LayerCount: 2
Back
Fore
SplineSet
155 642 m 0xe0
 187 642 251 646 251 646 c 1
 369 450 523 228 523 228 c 1
 532 228 l 1
 531 536 l 2
 531 567 521 579 498 579 c 0
 485 579 463 578 463 578 c 1
 459 584 l 1
 467 646 l 1
 467 646 563 642 595 642 c 0xe0
 639 642 710 648 710 648 c 1xd0
 705 582 l 1
 659 576 642 559 641 519 c 2
 631 86 l 2
 627 -46 571 -119 434 -163 c 1
 407 -123 l 1
 410 -112 l 1
 467 -78 495 -45 508 4 c 1
 358 241 230 425 230 425 c 1
 221 425 l 1
 219 108 l 2
 220 74 228 63 254 63 c 0
 265 63 297 65 297 65 c 1
 302 59 l 1
 293 -4 l 1
 293 -4 210 0 148 0 c 0
 108 0 45 -8 45 -8 c 1
 53 57 l 1
 95 62 111 80 113 133 c 2
 125 519 l 2
 125 560 111 573 43 581 c 1
 36 591 l 1
 43 647 l 1
 43 647 118 642 155 642 c 0xe0
EndSplineSet
Validated: 1
EndChar

StartChar: Eogonek
Encoding: 280 280 40
Width: 597
Flags: MW
HStem: -241 71<451 454> 0 79<165.5 373> 285 84<331.5 351> 558 84<289.5 311 202.5 369> 577 65 634 20G<544 544>
LayerCount: 2
Back
Fore
SplineSet
538 -146 m 1xf0
 556 -175 l 1
 556 -175 504 -224 454 -241 c 1
 382 -241 335 -207 335 -150 c 0
 335 -106 366 -63 423 -3 c 1
 359 -1 275 0 210 0 c 0
 121 0 36 -10 36 -10 c 1
 44 58 l 1
 99 66 116 86 116 144 c 2
 117 523 l 2
 117 566 111 577 84 577 c 0
 73 577 54 575 54 575 c 1
 47 584 l 1
 55 645 l 1
 55 645 165 642 240 642 c 0xe8
 382 642 483 646 544 654 c 1xe4
 552 643 l 1
 552 643 534 554 529 461 c 1
 437 455 l 1
 437 455 439 481 439 495 c 0
 439 550 425 558 313 558 c 0
 266 558 261 555 260 525 c 2
 253 370 l 1
 274 370 317 369 346 369 c 0
 379 369 462 377 462 377 c 1
 470 368 l 1
 456 282 l 1
 456 282 376 285 326 285 c 0
 296 285 267 281 250 279 c 1
 248 206 247 166 247 139 c 0
 247 86 254 79 311 79 c 0
 435 79 453 93 467 193 c 1
 552 200 l 1
 559 190 l 1
 559 190 541 100 531 4 c 1
 522 -7 l 1
 522 -7 506 -6 481 -5 c 1
 433 -62 416 -90 416 -122 c 0
 416 -150 436 -170 466 -170 c 0
 501 -170 538 -146 538 -146 c 1xf0
EndSplineSet
Validated: 1
EndChar

StartChar: Eth
Encoding: 208 208 41
Width: 709
Flags: MW
HStem: -12 87<333 403 312 434.5> 0 75 286 68 560 87<356 377> 576 71 622 20G<178 218>
LayerCount: 2
Back
Fore
SplineSet
333 -12 m 1xa8
 333 -12 238 0 181 0 c 0
 129 0 53 -10 53 -10 c 1
 60 58 l 1
 120 69 132 85 132 162 c 2
 132 286 l 1
 16 286 l 1
 8 293 l 1
 18 353 l 1
 132 353 l 1
 132 522 l 2
 132 565 126 576 101 576 c 0x68
 88 576 68 574 68 574 c 1
 62 583 l 1
 70 645 l 1
 70 645 158 642 198 642 c 0xa4
 238 642 356 647 356 647 c 1
 557 647 680 533 680 347 c 0
 680 136 536 -12 333 -12 c 1xa8
274 536 m 2
 266 353 l 1
 391 355 l 1
 397 346 l 1
 391 286 l 1
 264 286 l 1
 262 146 l 2
 262 89 279 75 345 75 c 0
 461 75 522 156 522 316 c 0
 522 486 451 560 303 560 c 0
 281 560 275 555 274 536 c 2
EndSplineSet
Validated: 1
EndChar

StartChar: F
Encoding: 70 70 42
Width: 532
Flags: MW
HStem: -11 21G<36 36> 0 78<159.5 302.5> 268 84<346 348.5> 457 185 558 84<289.5 302.5 202.5 359> 577 65 634 20G<521 521>
LayerCount: 2
Back
Fore
SplineSet
247 142 m 2x68
 247 91 256 78 290 78 c 0
 315 78 355 83 355 83 c 1
 364 73 l 1
 353 -4 l 1
 353 -4 248 0 197 0 c 0x70
 122 0 36 -11 36 -11 c 1
 44 57 l 1
 100 67 116 86 116 144 c 2
 117 523 l 2
 117 566 111 577 84 577 c 0
 73 577 54 575 54 575 c 1
 47 584 l 1
 55 645 l 1
 55 645 165 642 240 642 c 0xa4
 365 642 463 646 521 654 c 1x62
 528 643 l 1
 528 643 513 552 508 460 c 1
 417 454 l 1
 417 454 419 482 419 495 c 0
 419 549 405 558 313 558 c 0
 266 558 261 555 260 525 c 2
 253 353 l 1
 346 352 l 2
 376 352 451 360 451 360 c 1
 459 351 l 1
 445 265 l 1
 445 265 371 268 326 268 c 0
 296 268 267 264 250 261 c 1
 247 142 l 2x68
EndSplineSet
Validated: 1
EndChar

StartChar: G
Encoding: 71 71 43
Width: 654
Flags: MW
HStem: -12 94<297.5 380.5 297.5 398> 249 78<352 521> 429 225 557 97<300.5 398.5>
LayerCount: 2
Back
Fore
SplineSet
598 332 m 2xd0
 605 293 l 1
 570 270 564 242 564 128 c 0
 564 90 566 60 571 41 c 1
 562 28 l 1
 562 28 470 -12 326 -12 c 0
 142 -12 28 108 28 304 c 0
 28 521 162 654 384 654 c 0
 472 654 582 629 582 629 c 1
 589 616 l 1
 589 616 569 536 563 432 c 1
 464 426 l 1
 464 426 467 451 467 480 c 0
 467 536 437 557 360 557 c 0
 241 557 183 487 183 338 c 0
 183 173 244 82 351 82 c 0
 410 82 447 108 447 108 c 1
 447 201 l 2
 447 240 439 249 403 249 c 2
 352 249 l 1
 346 257 l 1
 357 329 l 1
 381 329 441 327 496 327 c 0
 546 327 598 331 598 332 c 2xd0
EndSplineSet
Validated: 8388609
EndChar

StartChar: Gbreve
Encoding: 286 286 44
Width: 654
Flags: MW
HStem: -12 94<297.5 380.5 297.5 398> 249 78<352 521> 429 225 557 97<300.5 398.5> 707 95<331.5 376.5 331.5 396.5> 842 20G<251 251 457 457>
LayerCount: 2
Back
Fore
SplineSet
598 332 m 2xdc
 605 293 l 1
 570 270 564 242 564 128 c 0
 564 90 566 60 571 41 c 1
 562 28 l 1
 562 28 470 -12 326 -12 c 0
 142 -12 28 108 28 304 c 0
 28 521 162 654 384 654 c 0
 472 654 582 629 582 629 c 1
 589 616 l 1
 589 616 569 536 563 432 c 1
 464 426 l 1
 464 426 467 451 467 480 c 0
 467 536 437 557 360 557 c 0
 241 557 183 487 183 338 c 0
 183 173 244 82 351 82 c 0
 410 82 447 108 447 108 c 1
 447 201 l 2
 447 240 439 249 403 249 c 2
 352 249 l 1
 346 257 l 1
 357 329 l 1
 381 329 441 327 496 327 c 0
 546 327 598 331 598 332 c 2xdc
354 802 m 0
 399 802 439 822 457 862 c 1
 474 858 l 1
 502 823 l 1
 484 765 439 707 354 707 c 0
 269 707 224 765 206 823 c 1
 234 858 l 1
 251 862 l 1
 269 822 309 802 354 802 c 0
EndSplineSet
Validated: 8388609
EndChar

StartChar: Gcommaaccent
Encoding: 290 290 45
Width: 654
Flags: MW
HStem: -318 21G<265 265> -12 94<297.5 380.5 297.5 398> 249 78<352 521> 327 102 557 97<300.5 398.5>
LayerCount: 2
Back
Fore
SplineSet
598 332 m 2xe8
 605 293 l 1
 570 270 564 242 564 128 c 0
 564 90 566 60 571 41 c 1
 562 28 l 1
 562 28 470 -12 326 -12 c 0
 142 -12 28 108 28 304 c 0
 28 521 162 654 384 654 c 0
 472 654 582 629 582 629 c 1
 589 616 l 1
 589 616 569 536 563 432 c 1
 464 426 l 1
 464 426 467 451 467 480 c 0
 467 536 437 557 360 557 c 0
 241 557 183 487 183 338 c 0
 183 173 244 82 351 82 c 0xd8
 410 82 447 108 447 108 c 1
 447 201 l 2
 447 240 439 249 403 249 c 2
 352 249 l 1
 346 257 l 1
 357 329 l 1
 381 329 441 327 496 327 c 0
 546 327 598 331 598 332 c 2xe8
261 -100 m 1
 264 -86 l 1
 288 -67 318 -51 343 -51 c 0
 383 -51 412 -84 412 -137 c 0
 412 -208 343 -275 265 -318 c 1
 228 -288 l 1
 228 -271 l 1
 267 -244 296 -203 296 -169 c 0
 296 -142 281 -116 261 -100 c 1
EndSplineSet
Validated: 1
EndChar

StartChar: commaaccent
Encoding: 65547 -1 46
Width: 398
Flags: MW
HStem: -318 21G<122 122> -71 20G<187.5 220>
LayerCount: 2
Back
Fore
SplineSet
118 -100 m 1
 121 -86 l 1
 145 -67 175 -51 200 -51 c 0
 240 -51 269 -84 269 -137 c 0
 269 -208 200 -275 122 -318 c 1
 85 -288 l 1
 85 -271 l 1
 124 -244 153 -203 153 -169 c 0
 153 -142 138 -116 118 -100 c 1
EndSplineSet
Validated: 1
EndChar

StartChar: Gdotaccent
Encoding: 288 288 47
Width: 654
Flags: MW
HStem: -12 94<297.5 380.5 297.5 398> 249 78<352 521> 429 225 557 97<300.5 398.5> 702 152<337 375>
LayerCount: 2
Back
Fore
SplineSet
598 332 m 2xd8
 605 293 l 1
 570 270 564 242 564 128 c 0
 564 90 566 60 571 41 c 1
 562 28 l 1
 562 28 470 -12 326 -12 c 0
 142 -12 28 108 28 304 c 0
 28 521 162 654 384 654 c 0
 472 654 582 629 582 629 c 1
 589 616 l 1
 589 616 569 536 563 432 c 1
 464 426 l 1
 464 426 467 451 467 480 c 0
 467 536 437 557 360 557 c 0
 241 557 183 487 183 338 c 0
 183 173 244 82 351 82 c 0
 410 82 447 108 447 108 c 1
 447 201 l 2
 447 240 439 249 403 249 c 2
 352 249 l 1
 346 257 l 1
 357 329 l 1
 381 329 441 327 496 327 c 0
 546 327 598 331 598 332 c 2xd8
351 702 m 0
 305 702 281 732 281 774 c 0
 281 821 313 854 361 854 c 0
 405 854 431 825 431 782 c 0
 431 735 399 702 351 702 c 0
EndSplineSet
Validated: 8388609
EndChar

StartChar: H
Encoding: 72 72 48
Width: 747
Flags: MW
HStem: -9 21G<37 37> 0 65<166 295.5> 284 83 577 65<75 197.5> 629 20G<323 323 709 709>
LayerCount: 2
Back
Fore
SplineSet
641 528 m 0x68
 635 413 629 238 629 133 c 0
 629 81 639 66 671 66 c 0
 688 66 707 69 707 69 c 1
 712 61 l 1
 703 -3 l 1
 703 -3 620 0 557 0 c 0
 517 0 418 -2 418 -2 c 1
 426 64 l 1
 482 65 498 84 498 156 c 2
 498 283 l 1
 498 283 426 284 390 284 c 0
 363 284 250 274 250 274 c 1
 248 133 l 2
 248 78 255 65 286 65 c 0
 305 65 322 68 322 68 c 1
 327 61 l 1
 318 -3 l 1
 318 -3 234 0 196 0 c 0x70
 136 0 38 -6 37 -9 c 2
 44 56 l 1
 102 68 116 84 116 140 c 2
 117 525 l 2
 117 567 110 577 81 577 c 0
 69 577 50 576 50 576 c 1
 45 584 l 1
 53 643 l 1
 53 643 132 642 172 642 c 0xb0
 223 642 323 649 323 649 c 1x68
 318 582 l 1
 267 574 261 564 258 511 c 2
 252 368 l 1
 380 366 l 2
 428 366 458 368 498 373 c 1
 498 525 l 2
 498 566 491 577 462 577 c 0
 451 577 431 576 431 576 c 1
 426 584 l 1
 434 643 l 1
 434 643 519 642 562 642 c 0x70
 607 642 709 649 709 649 c 1
 703 583 l 1
 654 576 643 566 641 528 c 0x68
EndSplineSet
Validated: 1
EndChar

StartChar: Hbar
Encoding: 294 294 49
Width: 745
Flags: MW
HStem: -9 21G<36 36> 0 65<165 294.5> 284 83 442 57<90.5 116 90.5 116> 577 65<74 196.5> 629 20G<322 322 708 708>
LayerCount: 2
Back
Fore
SplineSet
640 528 m 2x74
 638 502 l 1
 683 503 713 504 713 504 c 1
 727 490 l 1
 722 444 l 1
 636 444 l 1
 631 339 628 214 628 133 c 0
 628 81 638 66 670 66 c 0
 687 66 706 69 706 69 c 1
 711 61 l 1
 702 -3 l 1
 702 -3 619 0 556 0 c 0
 516 0 417 -2 417 -2 c 1
 425 64 l 1
 481 65 497 84 497 156 c 2
 497 283 l 1
 497 283 425 284 389 284 c 0
 362 284 249 274 249 274 c 1
 247 133 l 2
 247 78 254 65 285 65 c 0
 304 65 321 68 321 68 c 1
 326 61 l 1
 317 -3 l 1
 317 -3 233 0 195 0 c 0x78
 135 0 37 -6 36 -9 c 2
 43 56 l 1
 101 68 115 84 115 140 c 2
 116 442 l 1
 29 442 l 1
 19 452 l 1
 27 500 l 1
 27 500 65 499 116 499 c 1
 116 525 l 2
 116 567 109 577 80 577 c 0
 68 577 49 576 49 576 c 1
 44 584 l 1
 52 643 l 1
 52 643 131 642 171 642 c 0xb8
 222 642 322 649 322 649 c 1x74
 317 582 l 1
 266 574 260 564 257 511 c 2
 256 499 l 1
 399 499 l 1
 497 499 l 1
 497 525 l 2
 497 566 490 577 461 577 c 0
 450 577 430 576 430 576 c 1
 425 584 l 1
 433 643 l 1
 433 643 518 642 561 642 c 0x78
 606 642 708 649 708 649 c 1
 702 583 l 1
 653 576 642 566 640 528 c 2x74
375 443 m 1
 254 443 l 1
 251 368 l 1
 379 366 l 2
 427 366 457 368 497 373 c 1
 497 443 l 1
 375 443 l 1
EndSplineSet
Validated: 1
EndChar

StartChar: I
Encoding: 73 73 50
Width: 365
Flags: MW
HStem: -9 21G<36 36> 0 65 577 65 623 20G<48 61> 629 20G<330 330>
LayerCount: 2
Back
Fore
SplineSet
260 528 m 0x48
 253 407 248 239 248 133 c 0
 248 78 255 65 286 65 c 0
 308 65 329 68 329 68 c 1
 334 61 l 1
 325 -3 l 1
 325 -3 221 0 176 0 c 0x60
 120 0 36 -9 36 -9 c 1
 43 56 l 1
 102 68 116 85 116 140 c 2
 117 525 l 2
 117 566 110 577 81 577 c 0xa0
 67 577 46 576 46 576 c 1
 41 584 l 1
 48 643 l 1x50
 74 643 140 642 188 642 c 0x60
 232 642 330 649 330 649 c 1
 324 582 l 1
 273 575 262 565 260 528 c 0x48
EndSplineSet
Validated: 1
EndChar

StartChar: IJ
Encoding: 306 306 51
Width: 698
Flags: MW
HStem: -154 21G<403 403> 0 65 577 65<430.5 451.5> 623 20G<48 61> 630 20G<673 673>
LayerCount: 2
Back
Fore
SplineSet
260 528 m 0xe0
 253 407 248 239 248 133 c 0
 248 78 255 65 286 65 c 0
 308 65 329 68 329 68 c 1
 334 61 l 1
 325 -3 l 1
 325 -3 221 0 176 0 c 0
 120 0 36 -9 36 -9 c 1
 43 56 l 1
 102 68 116 85 116 140 c 2
 117 525 l 2
 117 566 110 577 81 577 c 0xe0
 67 577 46 576 46 576 c 1
 41 584 l 1
 48 643 l 1xd0
 74 643 140 642 188 642 c 0
 232 642 330 649 330 649 c 1
 324 582 l 1
 273 575 262 565 260 528 c 0xe0
472 123 m 2
 472 525 l 2
 472 567 466 577 437 577 c 0
 424 577 396 574 396 574 c 1
 390 582 l 1
 398 642 l 1
 522 642 l 2xe0
 591 643 673 650 673 650 c 1xc8
 667 582 l 1
 624 574 618 567 615 528 c 0
 610 437 603 210 603 101 c 0
 602 -31 542 -109 403 -154 c 1
 375 -113 l 1
 377 -102 l 1
 452 -47 472 -2 472 123 c 2
EndSplineSet
Validated: 1
EndChar

StartChar: J
Encoding: 74 74 52
Width: 333
Flags: MW
HStem: -154 21G<38 38> 577 65<65.5 86.5> 630 20G<308 308>
LayerCount: 2
Back
Fore
SplineSet
107 123 m 2xa0
 107 525 l 2
 107 567 101 577 72 577 c 0
 59 577 31 574 31 574 c 1
 25 582 l 1
 33 642 l 1
 157 642 l 2xc0
 226 643 308 650 308 650 c 1
 302 582 l 1
 259 574 253 567 250 528 c 0
 245 437 238 210 238 101 c 0
 237 -31 177 -109 38 -154 c 1
 10 -113 l 1
 12 -102 l 1
 87 -47 107 -2 107 123 c 2xa0
EndSplineSet
Validated: 1
EndChar

StartChar: Iacute
Encoding: 205 205 53
Width: 365
Flags: MW
HStem: -9 21G<36 36> 0 65 577 65 623 20G<48 61> 837 20G<322 322>
LayerCount: 2
Back
Fore
SplineSet
260 528 m 0x68
 253 407 248 239 248 133 c 0
 248 78 255 65 286 65 c 0
 308 65 329 68 329 68 c 1
 334 61 l 1
 325 -3 l 1
 325 -3 221 0 176 0 c 0x68
 120 0 36 -9 36 -9 c 1
 43 56 l 1
 102 68 116 85 116 140 c 2
 117 525 l 2
 117 566 110 577 81 577 c 0xa8
 67 577 46 576 46 576 c 1
 41 584 l 1
 48 643 l 1x58
 74 643 140 642 188 642 c 0
 232 642 330 649 330 649 c 1
 324 582 l 1
 273 575 262 565 260 528 c 0x68
360 775 m 1
 354 762 l 1
 354 762 239 733 125 697 c 1
 112 706 l 1
 99 753 l 1
 207 800 322 857 322 857 c 1
 334 852 l 1
 360 775 l 1
EndSplineSet
Validated: 1
EndChar

StartChar: Icircumflex
Encoding: 206 206 54
Width: 365
Flags: MW
HStem: -9 21G<36 36> 0 65 577 65 623 20G<48 61>
LayerCount: 2
Back
Fore
SplineSet
260 528 m 0x60
 253 407 248 239 248 133 c 0
 248 78 255 65 286 65 c 0
 308 65 329 68 329 68 c 1
 334 61 l 1
 325 -3 l 1
 325 -3 221 0 176 0 c 0x60
 120 0 36 -9 36 -9 c 1
 43 56 l 1
 102 68 116 85 116 140 c 2
 117 525 l 2
 117 566 110 577 81 577 c 0xa0
 67 577 46 576 46 576 c 1
 41 584 l 1
 48 643 l 1x50
 74 643 140 642 188 642 c 0
 232 642 330 649 330 649 c 1
 324 582 l 1
 273 575 262 565 260 528 c 0x60
44 711 m 1
 19 752 l 1
 94 807 176 876 176 876 c 1
 196 876 l 2
 196 879 279 808 353 752 c 1
 329 711 l 1
 313 707 l 1
 267 730 214 753 186 765 c 1
 157 753 107 730 60 707 c 1
 44 711 l 1
EndSplineSet
Validated: 33
EndChar

StartChar: Idieresis
Encoding: 207 207 55
Width: 365
Flags: MW
HStem: -9 21G<36 36> 0 65 577 65 623 20G<48 61> 706 128<80 112.5 258.5 291>
LayerCount: 2
Back
Fore
SplineSet
260 528 m 0x68
 253 407 248 239 248 133 c 0
 248 78 255 65 286 65 c 0
 308 65 329 68 329 68 c 1
 334 61 l 1
 325 -3 l 1
 325 -3 221 0 176 0 c 0x68
 120 0 36 -9 36 -9 c 1
 43 56 l 1
 102 68 116 85 116 140 c 2
 117 525 l 2
 117 566 110 577 81 577 c 0xa8
 67 577 46 576 46 576 c 1
 41 584 l 1
 48 643 l 1x58
 74 643 140 642 188 642 c 0
 232 642 330 649 330 649 c 1
 324 582 l 1
 273 575 262 565 260 528 c 0x68
271 706 m 0
 232 706 211 731 211 767 c 0
 211 806 238 834 279 834 c 0
 317 834 338 809 338 774 c 0
 338 734 311 706 271 706 c 0
92 706 m 0
 54 706 33 731 33 767 c 0
 33 806 60 834 100 834 c 0
 138 834 160 809 160 774 c 0
 160 734 133 706 92 706 c 0
EndSplineSet
Validated: 1
EndChar

StartChar: Idotaccent
Encoding: 304 304 56
Width: 365
Flags: MW
HStem: -9 21G<36 36> 0 65 577 65 623 20G<48 61> 702 152<168 206>
LayerCount: 2
Back
Fore
SplineSet
260 528 m 0x68
 253 407 248 239 248 133 c 0
 248 78 255 65 286 65 c 0
 308 65 329 68 329 68 c 1
 334 61 l 1
 325 -3 l 1
 325 -3 221 0 176 0 c 0x68
 120 0 36 -9 36 -9 c 1
 43 56 l 1
 102 68 116 85 116 140 c 2
 117 525 l 2
 117 566 110 577 81 577 c 0xa8
 67 577 46 576 46 576 c 1
 41 584 l 1
 48 643 l 1x58
 74 643 140 642 188 642 c 0
 232 642 330 649 330 649 c 1
 324 582 l 1
 273 575 262 565 260 528 c 0x68
182 702 m 0
 136 702 112 732 112 774 c 0
 112 821 144 854 192 854 c 0
 236 854 262 825 262 782 c 0
 262 735 230 702 182 702 c 0
EndSplineSet
Validated: 1
EndChar

StartChar: Igrave
Encoding: 204 204 57
Width: 365
Flags: MW
HStem: -9 21G<36 36> 0 65 577 65 623 20G<48 61> 837 20G<56 56>
LayerCount: 2
Back
Fore
SplineSet
260 528 m 0x68
 253 407 248 239 248 133 c 0
 248 78 255 65 286 65 c 0
 308 65 329 68 329 68 c 1
 334 61 l 1
 325 -3 l 1
 325 -3 221 0 176 0 c 0x68
 120 0 36 -9 36 -9 c 1
 43 56 l 1
 102 68 116 85 116 140 c 2
 117 525 l 2
 117 566 110 577 81 577 c 0xa8
 67 577 46 576 46 576 c 1
 41 584 l 1
 48 643 l 1x58
 74 643 140 642 188 642 c 0
 232 642 330 649 330 649 c 1
 324 582 l 1
 273 575 262 565 260 528 c 0x68
23 762 m 1
 18 775 l 1
 44 852 l 1
 56 857 l 1
 56 857 171 800 279 753 c 1
 266 706 l 1
 252 697 l 1
 138 733 23 762 23 762 c 1
EndSplineSet
Validated: 1
EndChar

StartChar: Imacron
Encoding: 298 298 58
Width: 365
Flags: MW
HStem: -9 21G<36 36> 0 65 577 65 623 20G<48 61> 708 86<174.5 186> 780 20G<331 331>
LayerCount: 2
Back
Fore
SplineSet
260 528 m 0x68
 253 407 248 239 248 133 c 0
 248 78 255 65 286 65 c 0
 308 65 329 68 329 68 c 1
 334 61 l 1
 325 -3 l 1
 325 -3 221 0 176 0 c 0x64
 120 0 36 -9 36 -9 c 1
 43 56 l 1
 102 68 116 85 116 140 c 2
 117 525 l 2
 117 566 110 577 81 577 c 0xa8
 67 577 46 576 46 576 c 1
 41 584 l 1
 48 643 l 1x58
 74 643 140 642 188 642 c 0
 232 642 330 649 330 649 c 1
 324 582 l 1
 273 575 262 565 260 528 c 0x68
331 800 m 1
 339 786 l 1
 327 709 l 1
 186 708 l 2
 127 708 47 707 47 707 c 1
 36 719 l 1
 50 795 l 1
 50 795 145 794 204 794 c 0x68
 254 794 331 800 331 800 c 1
EndSplineSet
Validated: 1
EndChar

StartChar: Iogonek
Encoding: 302 302 59
Width: 365
Flags: MW
HStem: -241 71<240 243> 0 65<176 297> 577 65 623 20G<48 61> 629 20G<330 330>
LayerCount: 2
Back
Fore
SplineSet
327 -146 m 1xc8
 345 -175 l 1
 345 -175 293 -224 243 -241 c 1
 171 -241 124 -207 124 -150 c 0
 124 -105 156 -61 215 0 c 1
 176 0 l 2
 120 0 36 -9 36 -9 c 1
 43 56 l 1
 102 68 116 85 116 140 c 2
 117 525 l 2
 117 566 110 577 81 577 c 0xe0
 67 577 46 576 46 576 c 1
 41 584 l 1
 48 643 l 1xd0
 74 643 140 642 188 642 c 0xe0
 232 642 330 649 330 649 c 1
 324 582 l 1
 273 575 262 565 260 528 c 0
 253 407 248 239 248 133 c 0
 248 78 255 65 286 65 c 0
 308 65 329 68 329 68 c 1
 334 61 l 1
 325 -3 l 1
 325 -3 301 -2 273 -1 c 1
 223 -61 205 -90 205 -122 c 0
 205 -150 225 -170 255 -170 c 0
 290 -170 327 -146 327 -146 c 1xc8
EndSplineSet
Validated: 1
EndChar

StartChar: K
Encoding: 75 75 60
Width: 659
Flags: MW
HStem: -15 21G<508 538> 0 65 577 65 629 20G<326 326>
LayerCount: 2
Back
Fore
SplineSet
116 140 m 2x50
 117 525 l 2
 117 567 110 577 81 577 c 0
 69 577 50 576 50 576 c 1
 45 584 l 1
 53 644 l 1
 53 644 159 642 188 642 c 0xa0
 231 642 326 649 326 649 c 1
 320 582 l 1
 271 572 258 561 257 524 c 2
 248 133 l 2
 246 78 255 65 286 65 c 0
 306 65 325 68 325 68 c 1
 329 61 l 1
 320 -3 l 1
 320 -3 219 0 176 0 c 0
 120 0 37 -3 37 -3 c 1
 46 61 l 1
 104 70 116 84 116 140 c 2x50
267 316 m 1
 270 338 l 1
 417 498 l 2
 434 515 443 533 443 547 c 0
 443 567 428 576 390 578 c 1
 387 585 l 1
 395 647 l 1
 395 647 479 642 520 642 c 0
 558 642 637 646 637 646 c 1
 644 635 l 1
 636 578 l 1
 594 561 562 532 505 464 c 2
 402 348 l 1
 534 146 l 2
 573 86 603 62 648 59 c 1
 654 50 l 1
 646 -3 l 1
 646 -3 547 -15 529 -15 c 0
 487 -15 454 11 418 69 c 2
 267 316 l 1
EndSplineSet
Validated: 33
EndChar

StartChar: Kcommaaccent
Encoding: 310 310 61
Width: 659
Flags: MW
HStem: -318 21G<277 277> 0 65 577 65 629 20G<326 326>
LayerCount: 2
Back
Fore
SplineSet
116 140 m 2xd0
 117 525 l 2
 117 567 110 577 81 577 c 0
 69 577 50 576 50 576 c 1
 45 584 l 1
 53 644 l 1
 53 644 159 642 188 642 c 0xe0
 231 642 326 649 326 649 c 1
 320 582 l 1
 271 572 258 561 257 524 c 2
 248 133 l 2
 246 78 255 65 286 65 c 0
 306 65 325 68 325 68 c 1
 329 61 l 1
 320 -3 l 1
 320 -3 219 0 176 0 c 0
 120 0 37 -3 37 -3 c 1
 46 61 l 1
 104 70 116 84 116 140 c 2xd0
267 316 m 1
 270 338 l 1
 417 498 l 2
 434 515 443 533 443 547 c 0
 443 567 428 576 390 578 c 1
 387 585 l 1
 395 647 l 1
 395 647 479 642 520 642 c 0
 558 642 637 646 637 646 c 1
 644 635 l 1
 636 578 l 1
 594 561 562 532 505 464 c 2
 402 348 l 1
 534 146 l 2
 573 86 603 62 648 59 c 1
 654 50 l 1
 646 -3 l 1
 646 -3 547 -15 529 -15 c 0
 487 -15 454 11 418 69 c 2
 267 316 l 1
273 -100 m 1
 276 -86 l 1
 300 -67 330 -51 355 -51 c 0
 395 -51 424 -84 424 -137 c 0
 424 -208 355 -275 277 -318 c 1
 240 -288 l 1
 240 -271 l 1
 279 -244 308 -203 308 -169 c 0
 308 -142 293 -116 273 -100 c 1
EndSplineSet
Validated: 33
EndChar

StartChar: L
Encoding: 76 76 62
Width: 531
Flags: MW
HStem: -10 21G<42 42> 0 79<168.5 357> 577 65 623 20G<52 65> 629 20G<343 343>
LayerCount: 2
Back
Fore
SplineSet
213 0 m 0x48
 124 0 42 -10 42 -10 c 1
 49 58 l 1
 100 66 116 86 116 144 c 2
 116 525 l 2
 116 567 109 577 80 577 c 0xa0
 69 577 50 576 50 576 c 1
 45 584 l 1
 52 643 l 1x50
 78 643 142 642 188 642 c 0x60
 233 642 343 649 343 649 c 1
 335 578 l 1
 267 570 262 557 259 505 c 0
 251 397 248 260 248 139 c 0
 248 89 258 79 310 79 c 0
 404 79 424 102 438 231 c 1
 523 240 l 1
 530 230 l 1
 530 230 513 121 503 3 c 1
 494 -8 l 1
 494 -8 331 0 213 0 c 0x48
EndSplineSet
Validated: 1
EndChar

StartChar: Lacute
Encoding: 313 313 63
Width: 531
Flags: MW
HStem: -10 21G<42 42> 0 79<168.5 357> 577 65 623 20G<52 65> 837 20G<326 326>
LayerCount: 2
Back
Fore
SplineSet
213 0 m 0x68
 124 0 42 -10 42 -10 c 1
 49 58 l 1
 100 66 116 86 116 144 c 2
 116 525 l 2
 116 567 109 577 80 577 c 0xa8
 69 577 50 576 50 576 c 1
 45 584 l 1
 52 643 l 1x58
 78 643 142 642 188 642 c 0
 233 642 343 649 343 649 c 1
 335 578 l 1
 267 570 262 557 259 505 c 0
 251 397 248 260 248 139 c 0
 248 89 258 79 310 79 c 0
 404 79 424 102 438 231 c 1
 523 240 l 1
 530 230 l 1
 530 230 513 121 503 3 c 1
 494 -8 l 1
 494 -8 331 0 213 0 c 0x68
364 775 m 1
 358 762 l 1
 358 762 243 733 129 697 c 1
 116 706 l 1
 103 753 l 1
 211 800 326 857 326 857 c 1
 338 852 l 1
 364 775 l 1
EndSplineSet
Validated: 1
EndChar

StartChar: Lcaron
Encoding: 317 317 64
Width: 537
Flags: MW
HStem: -10 21G<42 42> 0 79<168.5 357> 577 65 623 20G<52 65> 629 20G<343 343>
LayerCount: 2
Back
Fore
SplineSet
521 640 m 1x48
 529 630 l 1
 529 630 514 520 490 413 c 1
 442 394 l 1
 428 398 l 1
 431 513 420 626 420 626 c 1
 521 640 l 1x48
213 0 m 0
 124 0 42 -10 42 -10 c 1
 49 58 l 1
 100 66 116 86 116 144 c 2
 116 525 l 2
 116 567 109 577 80 577 c 0xa0
 69 577 50 576 50 576 c 1
 45 584 l 1
 52 643 l 1x50
 78 643 142 642 188 642 c 0x60
 233 642 343 649 343 649 c 1
 335 578 l 1
 267 570 262 557 259 505 c 0
 251 397 248 260 248 139 c 0
 248 89 258 79 310 79 c 0
 404 79 424 102 438 231 c 1
 523 240 l 1
 530 230 l 1
 530 230 513 121 503 3 c 1
 494 -8 l 1
 494 -8 331 0 213 0 c 0
EndSplineSet
Validated: 33
EndChar

StartChar: Lcommaaccent
Encoding: 315 315 65
Width: 531
Flags: MW
HStem: -318 21G<221 221> -51 51<168.5 319> 0 79<168.5 357> 577 65 623 20G<52 65> 629 20G<343 343>
LayerCount: 2
Back
Fore
SplineSet
213 0 m 0xa4
 124 0 42 -10 42 -10 c 1
 49 58 l 1
 100 66 116 86 116 144 c 2
 116 525 l 2
 116 567 109 577 80 577 c 0xb0
 69 577 50 576 50 576 c 1
 45 584 l 1
 52 643 l 1xc8
 78 643 142 642 188 642 c 0xd0
 233 642 343 649 343 649 c 1
 335 578 l 1
 267 570 262 557 259 505 c 0
 251 397 248 260 248 139 c 0
 248 89 258 79 310 79 c 0
 404 79 424 102 438 231 c 1
 523 240 l 1
 530 230 l 1
 530 230 513 121 503 3 c 1
 494 -8 l 1
 494 -8 331 0 213 0 c 0xa4
217 -100 m 1
 220 -86 l 1
 244 -67 274 -51 299 -51 c 0xd0
 339 -51 368 -84 368 -137 c 0
 368 -208 299 -275 221 -318 c 1
 184 -288 l 1
 184 -271 l 1
 223 -244 252 -203 252 -169 c 0
 252 -142 237 -116 217 -100 c 1
EndSplineSet
Validated: 1
EndChar

StartChar: Ldot
Encoding: 319 319 66
Width: 554
Flags: MW
HStem: -10 21G<42 42> 0 79<168.5 357> 380 158<434 478> 577 65 623 20G<52 65> 629 20G<343 343>
LayerCount: 2
Back
Fore
SplineSet
213 0 m 0x64
 124 0 42 -10 42 -10 c 1
 49 58 l 1
 100 66 116 86 116 144 c 2
 116 525 l 2
 116 567 109 577 80 577 c 0xb0
 69 577 50 576 50 576 c 1
 45 584 l 1
 52 643 l 1x68
 78 643 142 642 188 642 c 0x70
 233 642 343 649 343 649 c 1
 335 578 l 1
 267 570 262 557 259 505 c 0
 251 397 248 260 248 139 c 0
 248 89 258 79 310 79 c 0
 404 79 424 102 438 231 c 1
 523 240 l 1
 530 230 l 1
 530 230 513 121 503 3 c 1
 494 -8 l 1
 494 -8 331 0 213 0 c 0x64
453 380 m 0
 403 380 378 411 378 456 c 0
 378 504 409 538 459 538 c 0
 507 538 534 507 534 462 c 0
 534 414 503 380 453 380 c 0
EndSplineSet
Validated: 1
EndChar

StartChar: periodcentered
Encoding: 183 183 67
Width: 238
Flags: MW
HStem: 161 158<97 141>
LayerCount: 2
Back
Fore
SplineSet
116 161 m 0
 66 161 41 192 41 237 c 0
 41 285 72 319 122 319 c 0
 170 319 197 288 197 243 c 0
 197 195 166 161 116 161 c 0
EndSplineSet
Validated: 1
EndChar

StartChar: Lslash
Encoding: 321 321 68
Width: 566
Flags: MW
HStem: -10 21G<54 54> 0 79<180.5 369> 577 65 623 20G<64 77> 629 20G<355 355>
LayerCount: 2
Back
Fore
SplineSet
225 0 m 0x48
 136 0 54 -10 54 -10 c 1
 61 58 l 1
 112 66 128 86 128 144 c 2
 128 266 l 1
 66 235 l 1
 56 237 l 1
 39 299 l 1
 128 343 l 1
 128 525 l 2
 128 567 121 577 92 577 c 0xa0
 81 577 62 576 62 576 c 1
 57 584 l 1
 64 643 l 1x50
 90 643 154 642 200 642 c 0x60
 245 642 355 649 355 649 c 1
 347 578 l 1
 279 570 274 557 271 505 c 0
 268 471 266 435 265 397 c 1
 398 464 l 1
 406 460 l 1
 423 399 l 1
 262 318 l 1
 260 258 260 197 260 139 c 0
 260 89 270 79 322 79 c 0
 416 79 436 102 450 231 c 1
 535 240 l 1
 542 230 l 1
 542 230 525 121 515 3 c 1
 506 -8 l 1
 506 -8 343 0 225 0 c 0x48
EndSplineSet
Validated: 1
EndChar

StartChar: M
Encoding: 77 77 69
Width: 841
Flags: MW
HStem: -16 21G<368 368> 0 66<689.5 790> 582 60 623 20G<562 576.5> 628 20G<786 786>
LayerCount: 2
Back
Fore
SplineSet
441 -7 m 1x60
 368 -16 l 1xa0
 307 180 249 351 215 445 c 1
 207 445 l 1
 207 445 187 122 187 98 c 0
 187 76 197 65 219 65 c 0
 227 65 252 67 252 67 c 1
 258 61 l 1
 247 -4 l 1
 247 -4 161 0 128 0 c 0
 88 0 27 -8 27 -8 c 1
 34 59 l 1
 73 64 90 81 94 131 c 0
 99 169 134 503 134 531 c 0
 134 567 120 575 59 581 c 1
 54 587 l 1
 63 647 l 1
 63 647 153 642 190 642 c 0x60
 231 642 299 646 299 646 c 1
 360 423 423 235 423 235 c 1
 431 235 l 1
 431 235 495 424 562 643 c 1x50
 591 643 645 640 685 642 c 0x60
 723 643 786 648 786 648 c 1x48
 790 644 l 1
 784 582 l 1
 727 578 711 566 711 529 c 0
 711 485 725 274 735 157 c 0
 742 85 752 66 783 66 c 0
 797 66 812 68 812 68 c 1
 816 62 l 1
 807 -3 l 1
 807 -3 746 0 705 0 c 0
 674 0 565 -6 559 -8 c 1
 567 60 l 1
 606 64 622 78 622 109 c 0
 622 148 602 445 602 445 c 1
 593 445 l 1
 560 353 499 179 441 -7 c 1x60
EndSplineSet
Validated: 33
EndChar

StartChar: N
Encoding: 78 78 70
Width: 729
Flags: MW
HStem: -27 21G<524 524> 0 64<139 261.5> 577 65 627 20G<41 41 711 711>
LayerCount: 2
Back
Fore
SplineSet
520 235 m 1xe0
 530 235 l 1
 528 534 l 2
 527 565 518 577 495 577 c 0
 481 577 465 576 461 576 c 2
 457 584 l 1
 464 646 l 1
 464 646 549 642 593 642 c 0xe0
 642 642 711 647 711 647 c 1
 706 580 l 1
 662 574 644 557 643 517 c 2
 630 -14 l 1
 524 -27 l 1
 369 221 233 417 233 417 c 1
 223 417 l 1
 222 109 l 2
 222 76 231 64 256 64 c 0
 267 64 299 67 299 67 c 1
 305 60 l 1
 295 -4 l 1
 295 -4 209 0 166 0 c 0
 112 0 43 -8 43 -8 c 1
 51 59 l 1
 91 64 109 82 110 122 c 2
 123 517 l 2
 123 560 107 572 42 579 c 1
 34 589 l 1
 41 647 l 1xd0
 41 647 108 642 157 642 c 0
 200 642 253 646 253 646 c 1
 383 434 520 235 520 235 c 1xe0
EndSplineSet
Validated: 1
EndChar

StartChar: Nacute
Encoding: 323 323 71
Width: 729
Flags: MW
HStem: -27 21G<524 524> 0 64<139 261.5> 577 65 837 20G<514 514>
LayerCount: 2
Back
Fore
SplineSet
520 235 m 1
 530 235 l 1
 528 534 l 2
 527 565 518 577 495 577 c 0
 481 577 465 576 461 576 c 2
 457 584 l 1
 464 646 l 1
 464 646 549 642 593 642 c 0
 642 642 711 647 711 647 c 1
 706 580 l 1
 662 574 644 557 643 517 c 2
 630 -14 l 1
 524 -27 l 1
 369 221 233 417 233 417 c 1
 223 417 l 1
 222 109 l 2
 222 76 231 64 256 64 c 0
 267 64 299 67 299 67 c 1
 305 60 l 1
 295 -4 l 1
 295 -4 209 0 166 0 c 0
 112 0 43 -8 43 -8 c 1
 51 59 l 1
 91 64 109 82 110 122 c 2
 123 517 l 2
 123 560 107 572 42 579 c 1
 34 589 l 1
 41 647 l 1
 41 647 108 642 157 642 c 0
 200 642 253 646 253 646 c 1
 383 434 520 235 520 235 c 1
552 775 m 1
 546 762 l 1
 546 762 431 733 317 697 c 1
 304 706 l 1
 291 753 l 1
 399 800 514 857 514 857 c 1
 526 852 l 1
 552 775 l 1
EndSplineSet
Validated: 1
EndChar

StartChar: Ncaron
Encoding: 327 327 72
Width: 729
Flags: MW
HStem: -27 21G<524 524> 0 64<139 261.5> 577 65 845 20G<250 250 503 503>
LayerCount: 2
Back
Fore
SplineSet
520 235 m 1
 530 235 l 1
 528 534 l 2
 527 565 518 577 495 577 c 0
 481 577 465 576 461 576 c 2
 457 584 l 1
 464 646 l 1
 464 646 549 642 593 642 c 0
 642 642 711 647 711 647 c 1
 706 580 l 1
 662 574 644 557 643 517 c 2
 630 -14 l 1
 524 -27 l 1
 369 221 233 417 233 417 c 1
 223 417 l 1
 222 109 l 2
 222 76 231 64 256 64 c 0
 267 64 299 67 299 67 c 1
 305 60 l 1
 295 -4 l 1
 295 -4 209 0 166 0 c 0
 112 0 43 -8 43 -8 c 1
 51 59 l 1
 91 64 109 82 110 122 c 2
 123 517 l 2
 123 560 107 572 42 579 c 1
 34 589 l 1
 41 647 l 1
 41 647 108 642 157 642 c 0
 200 642 253 646 253 646 c 1
 383 434 520 235 520 235 c 1
519 861 m 1
 544 820 l 1
 469 766 387 696 387 696 c 1
 367 696 l 1
 367 696 284 766 210 820 c 1
 234 861 l 1
 250 865 l 1
 296 842 349 819 377 807 c 1
 406 819 456 842 503 865 c 1
 519 861 l 1
EndSplineSet
Validated: 1
EndChar

StartChar: Ncommaaccent
Encoding: 325 325 73
Width: 729
Flags: MW
HStem: -318 21G<301 301> 0 64<139 261.5> 577 65 627 20G<41 41 711 711>
LayerCount: 2
Back
Fore
SplineSet
520 235 m 1xe0
 530 235 l 1
 528 534 l 2
 527 565 518 577 495 577 c 0
 481 577 465 576 461 576 c 2
 457 584 l 1
 464 646 l 1
 464 646 549 642 593 642 c 0xe0
 642 642 711 647 711 647 c 1
 706 580 l 1
 662 574 644 557 643 517 c 2
 630 -14 l 1
 524 -27 l 1
 369 221 233 417 233 417 c 1
 223 417 l 1
 222 109 l 2
 222 76 231 64 256 64 c 0
 267 64 299 67 299 67 c 1
 305 60 l 1
 295 -4 l 1
 295 -4 209 0 166 0 c 0
 112 0 43 -8 43 -8 c 1
 51 59 l 1
 91 64 109 82 110 122 c 2
 123 517 l 2
 123 560 107 572 42 579 c 1
 34 589 l 1
 41 647 l 1xd0
 41 647 108 642 157 642 c 0
 200 642 253 646 253 646 c 1
 383 434 520 235 520 235 c 1xe0
297 -100 m 1
 300 -86 l 1
 324 -67 354 -51 379 -51 c 0
 419 -51 448 -84 448 -137 c 0
 448 -208 379 -275 301 -318 c 1
 264 -288 l 1
 264 -271 l 1
 303 -244 332 -203 332 -169 c 0
 332 -142 317 -116 297 -100 c 1
EndSplineSet
Validated: 1
EndChar

StartChar: Ntilde
Encoding: 209 209 74
Width: 729
Flags: MW
HStem: -27 21G<524 524> 0 64<139 261.5> 577 65 705 96<447 455 428.5 464> 739 62 739 96<302 310.5 294 328.5> 833 20G<508 519 519 519>
LayerCount: 2
Back
Fore
SplineSet
520 235 m 1xea
 530 235 l 1
 528 534 l 2
 527 565 518 577 495 577 c 0
 481 577 465 576 461 576 c 2
 457 584 l 1
 464 646 l 1
 464 646 549 642 593 642 c 0
 642 642 711 647 711 647 c 1
 706 580 l 1
 662 574 644 557 643 517 c 2
 630 -14 l 1
 524 -27 l 1
 369 221 233 417 233 417 c 1
 223 417 l 1
 222 109 l 2
 222 76 231 64 256 64 c 0
 267 64 299 67 299 67 c 1
 305 60 l 1
 295 -4 l 1
 295 -4 209 0 166 0 c 0
 112 0 43 -8 43 -8 c 1
 51 59 l 1
 91 64 109 82 110 122 c 2
 123 517 l 2
 123 560 107 572 42 579 c 1
 34 589 l 1
 41 647 l 1
 41 647 108 642 157 642 c 0
 200 642 253 646 253 646 c 1
 383 434 520 235 520 235 c 1xea
249 687 m 1
 238 687 l 1
 199 724 l 1
 199 735 l 1
 277 831 l 1
 294 835 l 1xe4
 327 835 414 801 443 801 c 0
 467 801 508 853 508 853 c 1
 519 853 l 1
 559 816 l 1
 559 806 l 1
 480 709 l 1
 464 705 l 1xf2
 430 705 343 739 314 739 c 0
 290 739 249 687 249 687 c 1
EndSplineSet
Validated: 1
EndChar

StartChar: O
Encoding: 79 79 75
Width: 674
Flags: MW
HStem: -12 87<290.5 387 290.5 414.5> 557 97<282.5 379.5>
LayerCount: 2
Back
Fore
SplineSet
340 75 m 0
 434 75 490 152 490 288 c 0
 490 465 431 557 328 557 c 0
 237 557 183 481 183 344 c 0
 183 168 241 75 340 75 c 0
315 -12 m 0
 137 -12 28 109 28 304 c 0
 28 515 158 654 356 654 c 0
 538 654 646 536 646 341 c 0
 646 129 514 -12 315 -12 c 0
EndSplineSet
Validated: 1
EndChar

StartChar: OE
Encoding: 338 338 76
Width: 940
Flags: MW
HStem: -11 90 2 77<505 715> 282 87 458 178 558 78<630.5 641.5 531 710.5> 558 91 634 20G<886 886>
LayerCount: 2
Back
Fore
SplineSet
589 139 m 2xa8
 589 86 596 79 653 79 c 0
 777 79 796 93 809 193 c 1
 894 200 l 1
 901 190 l 1
 901 190 883 100 874 4 c 1
 864 -7 l 1
 864 -7 673 2 550 2 c 0x70
 460 2 378 -11 314 -11 c 0
 139 -11 29 109 29 304 c 0
 29 515 155 649 351 649 c 0xa4
 417 649 488 636 574 636 c 0xb0
 709 636 822 645 886 654 c 1xa2
 894 643 l 1
 894 643 876 554 871 461 c 1
 780 455 l 1
 780 455 782 481 782 495 c 0
 782 550 767 558 654 558 c 0
 607 558 603 555 602 525 c 2
 595 370 l 1
 688 369 l 2
 721 369 804 377 804 377 c 1
 812 368 l 1
 798 282 l 1
 798 282 718 285 668 285 c 2
 591 279 l 1
 589 139 l 2xa8
337 73 m 0
 426 73 463 109 464 202 c 2
 465 454 l 2
 465 537 430 561 331 561 c 0
 238 561 182 484 182 345 c 0
 182 166 238 73 337 73 c 0
EndSplineSet
Validated: 1
EndChar

StartChar: Oacute
Encoding: 211 211 77
Width: 674
Flags: MW
HStem: -12 87<290.5 387 290.5 414.5> 557 97<282.5 379.5> 837 20G<470 470>
LayerCount: 2
Back
Fore
SplineSet
340 75 m 0
 434 75 490 152 490 288 c 0
 490 465 431 557 328 557 c 0
 237 557 183 481 183 344 c 0
 183 168 241 75 340 75 c 0
315 -12 m 0
 137 -12 28 109 28 304 c 0
 28 515 158 654 356 654 c 0
 538 654 646 536 646 341 c 0
 646 129 514 -12 315 -12 c 0
508 775 m 1
 502 762 l 1
 502 762 387 733 273 697 c 1
 260 706 l 1
 247 753 l 1
 355 800 470 857 470 857 c 1
 482 852 l 1
 508 775 l 1
EndSplineSet
Validated: 1
EndChar

StartChar: Ocircumflex
Encoding: 212 212 78
Width: 674
Flags: MW
HStem: -12 87<290.5 387 290.5 414.5> 557 97<282.5 379.5>
LayerCount: 2
Back
Fore
SplineSet
340 75 m 0
 434 75 490 152 490 288 c 0
 490 465 431 557 328 557 c 0
 237 557 183 481 183 344 c 0
 183 168 241 75 340 75 c 0
315 -12 m 0
 137 -12 28 109 28 304 c 0
 28 515 158 654 356 654 c 0
 538 654 646 536 646 341 c 0
 646 129 514 -12 315 -12 c 0
192 711 m 1
 167 752 l 1
 242 807 324 876 324 876 c 1
 344 876 l 2
 344 879 427 808 501 752 c 1
 477 711 l 1
 461 707 l 1
 415 730 362 753 334 765 c 1
 305 753 255 730 208 707 c 1
 192 711 l 1
EndSplineSet
Validated: 33
EndChar

StartChar: Odieresis
Encoding: 214 214 79
Width: 674
Flags: MW
HStem: -12 87<290.5 387 290.5 414.5> 557 97<282.5 379.5> 706 128<228 260.5 406.5 439>
LayerCount: 2
Back
Fore
SplineSet
340 75 m 0
 434 75 490 152 490 288 c 0
 490 465 431 557 328 557 c 0
 237 557 183 481 183 344 c 0
 183 168 241 75 340 75 c 0
315 -12 m 0
 137 -12 28 109 28 304 c 0
 28 515 158 654 356 654 c 0
 538 654 646 536 646 341 c 0
 646 129 514 -12 315 -12 c 0
419 706 m 0
 380 706 359 731 359 767 c 0
 359 806 386 834 427 834 c 0
 465 834 486 809 486 774 c 0
 486 734 459 706 419 706 c 0
240 706 m 0
 202 706 181 731 181 767 c 0
 181 806 208 834 248 834 c 0
 286 834 308 809 308 774 c 0
 308 734 281 706 240 706 c 0
EndSplineSet
Validated: 1
EndChar

StartChar: Ograve
Encoding: 210 210 80
Width: 674
Flags: MW
HStem: -12 87<290.5 387 290.5 414.5> 557 97<282.5 379.5> 837 20G<204 204>
LayerCount: 2
Back
Fore
SplineSet
340 75 m 0
 434 75 490 152 490 288 c 0
 490 465 431 557 328 557 c 0
 237 557 183 481 183 344 c 0
 183 168 241 75 340 75 c 0
315 -12 m 0
 137 -12 28 109 28 304 c 0
 28 515 158 654 356 654 c 0
 538 654 646 536 646 341 c 0
 646 129 514 -12 315 -12 c 0
171 762 m 1
 166 775 l 1
 192 852 l 1
 204 857 l 1
 204 857 319 800 427 753 c 1
 414 706 l 1
 400 697 l 1
 286 733 171 762 171 762 c 1
EndSplineSet
Validated: 1
EndChar

StartChar: Ohungarumlaut
Encoding: 336 336 81
Width: 674
Flags: MW
HStem: -12 87<290.5 387 290.5 414.5> 557 97<282.5 379.5> 837 20G<347 347>
LayerCount: 2
Back
Fore
SplineSet
340 75 m 0
 434 75 490 152 490 288 c 0
 490 465 431 557 328 557 c 0
 237 557 183 481 183 344 c 0
 183 168 241 75 340 75 c 0
315 -12 m 0
 137 -12 28 109 28 304 c 0
 28 515 158 654 356 654 c 0
 538 654 646 536 646 341 c 0
 646 129 514 -12 315 -12 c 0
402 794 m 1
 401 782 l 1
 401 782 317 736 233 684 c 1
 219 689 l 1
 196 723 l 1
 270 787 347 857 347 857 c 1
 359 856 l 1
 402 794 l 1
570 790 m 1
 569 778 l 1
 569 778 484 732 400 680 c 1
 388 684 l 1
 364 718 l 1
 438 782 515 852 515 852 c 1
 527 850 l 1
 570 790 l 1
EndSplineSet
Validated: 1
EndChar

StartChar: hungarumlaut.cap
Encoding: 65548 -1 82
Width: 398
Flags: MW
HStem: 680 21G<259 259> 837 20G<206 206>
LayerCount: 2
Back
Fore
SplineSet
261 794 m 1
 260 782 l 1
 260 782 176 736 92 684 c 1
 78 689 l 1
 55 723 l 1
 129 787 206 857 206 857 c 1
 218 856 l 1
 261 794 l 1
429 790 m 1
 428 778 l 1
 428 778 343 732 259 680 c 1
 247 684 l 1
 223 718 l 1
 297 782 374 852 374 852 c 1
 386 850 l 1
 429 790 l 1
EndSplineSet
Validated: 1
EndChar

StartChar: Omacron
Encoding: 332 332 83
Width: 674
Flags: MW
HStem: -12 87<290.5 387 290.5 414.5> 557 97<282.5 379.5> 708 86<322.5 334> 780 20G<479 479>
LayerCount: 2
Back
Fore
SplineSet
340 75 m 0xd0
 434 75 490 152 490 288 c 0
 490 465 431 557 328 557 c 0
 237 557 183 481 183 344 c 0
 183 168 241 75 340 75 c 0xd0
315 -12 m 0
 137 -12 28 109 28 304 c 0
 28 515 158 654 356 654 c 0
 538 654 646 536 646 341 c 0
 646 129 514 -12 315 -12 c 0
479 800 m 1
 487 786 l 1
 475 709 l 1
 334 708 l 2
 275 708 195 707 195 707 c 1
 184 719 l 1
 198 795 l 1
 198 795 293 794 352 794 c 0xe0
 402 794 479 800 479 800 c 1
EndSplineSet
Validated: 1
EndChar

StartChar: Oslash
Encoding: 216 216 84
Width: 674
Flags: MW
HStem: -107 21G<126 126> -12 87<323 387 323 414.5> 557 97<282.5 344.5> 709 20G<534 534>
LayerCount: 2
Back
Fore
SplineSet
63 -68 m 1
 132 47 l 1
 65 101 28 189 28 304 c 0
 28 515 158 654 356 654 c 0
 400 654 440 647 475 633 c 1
 534 729 l 1
 596 700 l 1
 599 687 l 1
 542 596 l 1
 609 543 646 455 646 341 c 0
 646 129 514 -12 315 -12 c 0
 271 -12 231 -4 196 9 c 1
 126 -107 l 1
 66 -78 l 1
 63 -68 l 1
340 75 m 0
 434 75 490 152 490 288 c 0
 490 360 480 418 461 462 c 1
 254 107 l 1
 277 86 306 75 340 75 c 0
183 344 m 0
 183 274 192 218 209 175 c 1
 413 528 l 1
 390 547 361 557 328 557 c 0
 237 557 183 481 183 344 c 0
EndSplineSet
Validated: 1
EndChar

StartChar: Otilde
Encoding: 213 213 85
Width: 674
Flags: MW
HStem: -12 87<290.5 387 290.5 414.5> 557 97<282.5 379.5> 705 96<403 411 384.5 420> 739 62 739 96<258 266.5 250 284.5> 833 20G<464 475 475 475>
LayerCount: 2
Back
Fore
SplineSet
340 75 m 0xd4
 434 75 490 152 490 288 c 0
 490 465 431 557 328 557 c 0
 237 557 183 481 183 344 c 0
 183 168 241 75 340 75 c 0xd4
315 -12 m 0
 137 -12 28 109 28 304 c 0
 28 515 158 654 356 654 c 0
 538 654 646 536 646 341 c 0
 646 129 514 -12 315 -12 c 0
205 687 m 1
 194 687 l 1
 155 724 l 1
 155 735 l 1
 233 831 l 1
 250 835 l 1xc8
 283 835 370 801 399 801 c 0
 423 801 464 853 464 853 c 1
 475 853 l 1
 515 816 l 1
 515 806 l 1
 436 709 l 1
 420 705 l 1xe4
 386 705 299 739 270 739 c 0
 246 739 205 687 205 687 c 1
EndSplineSet
Validated: 1
EndChar

StartChar: P
Encoding: 80 80 86
Width: 577
Flags: MW
HStem: -8 21G<39 39> 0 65<181 303> 561 86<331 334> 577 70 622 20G<157.5 197> 623 20G<53 64.5>
LayerCount: 2
Back
Fore
SplineSet
45 583 m 1x90
 53 643 l 1x44
 76 643 136 642 179 642 c 0x48
 215 642 331 647 331 647 c 1
 518 647 573 552 573 454 c 0
 573 334 460 227 334 227 c 2
 249 227 l 1
 248 153 l 2
 248 79 254 65 294 65 c 0
 312 65 338 68 338 68 c 1
 342 62 l 1
 332 -3 l 1
 332 -3 244 0 206 0 c 0x60
 156 0 41 -7 39 -8 c 2
 47 60 l 1
 101 69 116 87 116 143 c 2
 117 523 l 2
 117 565 110 577 85 577 c 0
 71 577 50 575 50 575 c 1
 45 583 l 1x90
251 316 m 1
 339 304 l 1
 400 317 430 362 430 440 c 0
 430 524 385 561 283 561 c 0x60
 264 561 262 560 261 543 c 0
 256 473 253 391 251 316 c 1
EndSplineSet
Validated: 1
EndChar

StartChar: Q
Encoding: 81 81 87
Width: 679
Flags: MW
HStem: -228 122<675.5 696> -12 87<290.5 315> 557 97<282.5 379.5>
LayerCount: 2
Back
Fore
SplineSet
315 -12 m 1
 137 -12 28 109 28 304 c 0
 28 515 158 654 356 654 c 0
 538 654 646 536 646 341 c 0
 646 187 565 64 444 15 c 1
 444 6 l 1
 553 -70 639 -106 712 -106 c 0
 758 -106 797 -96 797 -96 c 1
 805 -103 l 1
 816 -145 l 1
 816 -145 710 -228 682 -228 c 0
 593 -228 537 -196 315 -12 c 1
340 75 m 0
 434 75 490 152 490 288 c 0
 490 465 431 557 328 557 c 0
 237 557 183 481 183 344 c 0
 183 168 241 75 340 75 c 0
EndSplineSet
Validated: 1
EndChar

StartChar: R
Encoding: 82 82 88
Width: 643
Flags: MW
HStem: -16 21G<492 514> -1 21G<179 201.5> 564 83<271 408.5> 577 70 622 20G<159.5 199.5>
LayerCount: 2
Back
Fore
SplineSet
319 251 m 1x90
 249 251 l 1
 248 141 l 2
 248 74 255 66 319 64 c 1
 323 58 l 1
 313 -4 l 2
 313 -3 224 -1 179 -1 c 0
 118 0 36 -6 36 -6 c 1
 45 61 l 1
 101 69 116 86 116 143 c 2
 117 528 l 2
 117 566 110 577 85 577 c 0x50
 71 577 50 575 50 575 c 1
 45 583 l 1
 53 644 l 1
 53 644 140 642 179 642 c 0x88
 220 642 332 647 332 647 c 1
 485 647 569 586 569 475 c 0
 569 396 521 329 435 284 c 1
 522 144 l 2
 559 84 591 57 633 57 c 1
 640 48 l 1
 633 -5 l 1
 514 -16 l 1
 470 -16 434 15 405 77 c 2
 319 251 l 1x90
252 341 m 1
 342 331 l 1
 363 340 427 367 427 456 c 0
 427 529 379 564 278 564 c 0xa0
 264 564 261 560 260 542 c 0
 255 462 253 402 252 341 c 1
EndSplineSet
Validated: 33
EndChar

StartChar: Racute
Encoding: 340 340 89
Width: 643
Flags: MW
HStem: -16 21G<492 514> -1 21G<179 201.5> 564 83<271 408.5> 577 70 622 20G<159.5 199.5> 837 20G<459 459>
LayerCount: 2
Back
Fore
SplineSet
319 251 m 1x94
 249 251 l 1
 248 141 l 2
 248 74 255 66 319 64 c 1
 323 58 l 1
 313 -4 l 2
 313 -3 224 -1 179 -1 c 0
 118 0 36 -6 36 -6 c 1
 45 61 l 1
 101 69 116 86 116 143 c 2
 117 528 l 2
 117 566 110 577 85 577 c 0x54
 71 577 50 575 50 575 c 1
 45 583 l 1
 53 644 l 1
 53 644 140 642 179 642 c 0x8c
 220 642 332 647 332 647 c 1
 485 647 569 586 569 475 c 0
 569 396 521 329 435 284 c 1
 522 144 l 2
 559 84 591 57 633 57 c 1
 640 48 l 1
 633 -5 l 1
 514 -16 l 1
 470 -16 434 15 405 77 c 2
 319 251 l 1x94
252 341 m 1
 342 331 l 1
 363 340 427 367 427 456 c 0
 427 529 379 564 278 564 c 0xa4
 264 564 261 560 260 542 c 0
 255 462 253 402 252 341 c 1
497 775 m 1
 491 762 l 1
 491 762 376 733 262 697 c 1
 249 706 l 1
 236 753 l 1
 344 800 459 857 459 857 c 1
 471 852 l 1
 497 775 l 1
EndSplineSet
Validated: 33
EndChar

StartChar: Rcaron
Encoding: 344 344 90
Width: 643
Flags: MW
HStem: -16 21G<492 514> -1 21G<179 201.5> 564 83<271 408.5> 577 70 622 20G<159.5 199.5> 845 20G<196 196 449 449>
LayerCount: 2
Back
Fore
SplineSet
319 251 m 1x94
 249 251 l 1
 248 141 l 2
 248 74 255 66 319 64 c 1
 323 58 l 1
 313 -4 l 2
 313 -3 224 -1 179 -1 c 0
 118 0 36 -6 36 -6 c 1
 45 61 l 1
 101 69 116 86 116 143 c 2
 117 528 l 2
 117 566 110 577 85 577 c 0x54
 71 577 50 575 50 575 c 1
 45 583 l 1
 53 644 l 1
 53 644 140 642 179 642 c 0x8c
 220 642 332 647 332 647 c 1
 485 647 569 586 569 475 c 0
 569 396 521 329 435 284 c 1
 522 144 l 2
 559 84 591 57 633 57 c 1
 640 48 l 1
 633 -5 l 1
 514 -16 l 1
 470 -16 434 15 405 77 c 2
 319 251 l 1x94
252 341 m 1
 342 331 l 1
 363 340 427 367 427 456 c 0
 427 529 379 564 278 564 c 0xa4
 264 564 261 560 260 542 c 0
 255 462 253 402 252 341 c 1
465 861 m 1
 490 820 l 1
 415 766 333 696 333 696 c 1
 313 696 l 1
 313 696 230 766 156 820 c 1
 180 861 l 1
 196 865 l 1
 242 842 295 819 323 807 c 1
 352 819 402 842 449 865 c 1
 465 861 l 1
EndSplineSet
Validated: 33
EndChar

StartChar: Rcommaaccent
Encoding: 342 342 91
Width: 643
Flags: MW
HStem: -318 21G<261 261> -1 21G<179 201.5> 64 187<249 319> 577 70 622 20G<159.5 199.5>
LayerCount: 2
Back
Fore
SplineSet
319 251 m 1xf0
 249 251 l 1
 248 141 l 2
 248 74 255 66 319 64 c 1
 323 58 l 1
 313 -4 l 2
 313 -3 224 -1 179 -1 c 0
 118 0 36 -6 36 -6 c 1
 45 61 l 1
 101 69 116 86 116 143 c 2
 117 528 l 2
 117 566 110 577 85 577 c 0xf0
 71 577 50 575 50 575 c 1
 45 583 l 1
 53 644 l 1
 53 644 140 642 179 642 c 0xe8
 220 642 332 647 332 647 c 1
 485 647 569 586 569 475 c 0
 569 396 521 329 435 284 c 1
 522 144 l 2
 559 84 591 57 633 57 c 1
 640 48 l 1
 633 -5 l 1
 514 -16 l 1
 470 -16 434 15 405 77 c 2
 319 251 l 1xf0
252 341 m 1
 342 331 l 1
 363 340 427 367 427 456 c 0
 427 529 379 564 278 564 c 0
 264 564 261 560 260 542 c 0
 255 462 253 402 252 341 c 1
257 -100 m 1
 260 -86 l 1
 284 -67 314 -51 339 -51 c 0
 379 -51 408 -84 408 -137 c 0
 408 -208 339 -275 261 -318 c 1
 224 -288 l 1
 224 -271 l 1
 263 -244 292 -203 292 -169 c 0
 292 -142 277 -116 257 -100 c 1
EndSplineSet
Validated: 33
EndChar

StartChar: S
Encoding: 83 83 92
Width: 540
Flags: MW
HStem: -12 89<204 277.5 204 304.5> 439 215 559 95<257.5 320>
LayerCount: 2
Back
Fore
SplineSet
220 -12 m 0xa0
 115 -12 44 26 44 26 c 1
 36 40 l 1
 36 40 51 128 52 210 c 1
 136 217 l 1
 136 107 162 77 246 77 c 0
 309 77 350 107 350 154 c 0
 350 209 277 237 202 274 c 0
 124 312 44 359 44 454 c 0
 44 571 155 654 311 654 c 0
 411 654 483 627 483 627 c 1
 490 614 l 1
 490 614 473 533 466 442 c 1
 390 436 l 1
 381 443 l 1
 381 443 382 459 382 478 c 0
 382 536 355 559 285 559 c 0
 230 559 190 530 190 488 c 0
 190 437 252 408 321 376 c 0
 405 336 499 290 499 190 c 0
 499 68 389 -12 220 -12 c 0xa0
EndSplineSet
Validated: 8388609
EndChar

StartChar: Sacute
Encoding: 346 346 93
Width: 540
Flags: MW
HStem: -12 89<236 309.5 236 336.5> 439 215 559 95<289.5 352> 837 20G<410 410>
LayerCount: 2
Back
Fore
SplineSet
252 -12 m 0xb0
 147 -12 76 26 76 26 c 1
 68 40 l 1
 68 40 83 128 84 210 c 1
 168 217 l 1
 168 107 194 77 278 77 c 0
 341 77 382 107 382 154 c 0
 382 209 309 237 234 274 c 0
 156 312 76 359 76 454 c 0
 76 571 187 654 343 654 c 0
 443 654 515 627 515 627 c 1
 522 614 l 1
 522 614 505 533 498 442 c 1
 422 436 l 1
 413 443 l 1
 413 443 414 459 414 478 c 0
 414 536 387 559 317 559 c 0
 262 559 222 530 222 488 c 0
 222 437 284 408 353 376 c 0
 437 336 531 290 531 190 c 0
 531 68 421 -12 252 -12 c 0xb0
448 775 m 1
 442 762 l 1
 442 762 327 733 213 697 c 1
 200 706 l 1
 187 753 l 1
 295 800 410 857 410 857 c 1
 422 852 l 1
 448 775 l 1
EndSplineSet
Validated: 8388609
EndChar

StartChar: Scaron
Encoding: 352 352 94
Width: 540
Flags: MW
HStem: -12 89<236 309.5 236 336.5> 439 215 559 95<289.5 352> 845 20G<147 147 400 400>
LayerCount: 2
Back
Fore
SplineSet
252 -12 m 0xb0
 147 -12 76 26 76 26 c 1
 68 40 l 1
 68 40 83 128 84 210 c 1
 168 217 l 1
 168 107 194 77 278 77 c 0
 341 77 382 107 382 154 c 0
 382 209 309 237 234 274 c 0
 156 312 76 359 76 454 c 0
 76 571 187 654 343 654 c 0
 443 654 515 627 515 627 c 1
 522 614 l 1
 522 614 505 533 498 442 c 1
 422 436 l 1
 413 443 l 1
 413 443 414 459 414 478 c 0
 414 536 387 559 317 559 c 0
 262 559 222 530 222 488 c 0
 222 437 284 408 353 376 c 0
 437 336 531 290 531 190 c 0
 531 68 421 -12 252 -12 c 0xb0
416 861 m 1
 441 820 l 1
 366 766 284 696 284 696 c 1
 264 696 l 1
 264 696 181 766 107 820 c 1
 131 861 l 1
 147 865 l 1
 193 842 246 819 274 807 c 1
 303 819 353 842 400 865 c 1
 416 861 l 1
EndSplineSet
Validated: 8388609
EndChar

StartChar: Scedilla
Encoding: 350 350 95
Width: 540
Flags: MW
HStem: -237 50<233 259.5 233 262> -151 20G<187 196 196 196> -11 88<223 309.5 274 274> 439 215 559 95<289.5 352>
LayerCount: 2
Back
Fore
SplineSet
202 -86 m 1xe8
 223 -11 l 1
 134 -5 76 26 76 26 c 1
 68 40 l 1
 68 40 83 128 84 210 c 1
 168 217 l 1
 168 107 194 77 278 77 c 0
 341 77 382 107 382 154 c 0
 382 209 309 237 234 274 c 0
 156 312 76 359 76 454 c 0
 76 571 187 654 343 654 c 0
 443 654 515 627 515 627 c 1
 522 614 l 1
 522 614 505 533 498 442 c 1
 422 436 l 1
 413 443 l 1
 413 443 414 459 414 478 c 0
 414 536 387 559 317 559 c 0
 262 559 222 530 222 488 c 0
 222 437 284 408 353 376 c 0
 437 336 531 290 531 190 c 0
 531 73 430 -4 274 -11 c 1
 265 -44 l 1
 303 -66 361 -100 361 -141 c 0
 361 -194 296 -237 228 -237 c 0
 194 -237 150 -221 150 -194 c 0
 150 -179 172 -149 187 -131 c 1
 196 -131 l 1
 197 -168 218 -187 248 -187 c 0
 271 -187 288 -175 288 -157 c 0
 288 -134 242 -107 202 -86 c 1xe8
EndSplineSet
Validated: 8388609
EndChar

StartChar: Scommaaccent
Encoding: 536 536 96
Width: 540
Flags: MW
HStem: -318 21G<180 180> -12 89<236 309.5 236 336.5> 559 95<289.5 352>
LayerCount: 2
Back
Fore
SplineSet
252 -12 m 0
 147 -12 76 26 76 26 c 1
 68 40 l 1
 68 40 83 128 84 210 c 1
 168 217 l 1
 168 107 194 77 278 77 c 0
 341 77 382 107 382 154 c 0
 382 209 309 237 234 274 c 0
 156 312 76 359 76 454 c 0
 76 571 187 654 343 654 c 0
 443 654 515 627 515 627 c 1
 522 614 l 1
 522 614 505 533 498 442 c 1
 422 436 l 1
 413 443 l 1
 413 443 414 459 414 478 c 0
 414 536 387 559 317 559 c 0
 262 559 222 530 222 488 c 0
 222 437 284 408 353 376 c 0
 437 336 531 290 531 190 c 0
 531 68 421 -12 252 -12 c 0
176 -100 m 1
 179 -86 l 1
 203 -67 233 -51 258 -51 c 0
 298 -51 327 -84 327 -137 c 0
 327 -208 258 -275 180 -318 c 1
 143 -288 l 1
 143 -271 l 1
 182 -244 211 -203 211 -169 c 0
 211 -142 196 -116 176 -100 c 1
EndSplineSet
Validated: 1
EndChar

StartChar: T
Encoding: 84 84 97
Width: 569
Flags: MW
HStem: -6 21G<108 108> 0 67 563 79<216 216> 633 20G<27 27 542 542>
LayerCount: 2
Back
Fore
SplineSet
216 165 m 2xa0
 216 563 l 1
 108 560 102 547 89 433 c 1
 5 427 l 1
 5 427 14 544 16 642 c 1x60
 27 653 l 1x50
 128 642 l 1
 439 642 l 1x60
 542 653 l 1x50
 553 642 l 1
 555 542 563 433 563 433 c 1
 479 427 l 1
 464 549 459 560 358 563 c 1
 352 474 347 283 347 135 c 0
 347 85 362 67 402 67 c 0
 432 67 455 70 455 70 c 1
 459 65 l 1
 450 -4 l 1
 450 -4 328 0 276 0 c 0x60
 220 0 108 -6 108 -6 c 1
 116 60 l 1
 204 68 216 80 216 165 c 2xa0
EndSplineSet
Validated: 1
EndChar

StartChar: Tbar
Encoding: 358 358 98
Width: 569
Flags: MW
HStem: -6 21G<108 108> 0 67 276 56<193 216> 563 79<216 216> 633 20G<27 27 542 542>
LayerCount: 2
Back
Fore
SplineSet
216 165 m 2xb0
 216 276 l 1
 170 275 130 275 130 275 c 1
 120 285 l 1
 128 333 l 1
 128 333 170 332 216 332 c 1
 216 563 l 1
 108 560 102 547 89 433 c 1
 5 427 l 1
 5 427 14 544 16 642 c 1x70
 27 653 l 1x68
 128 642 l 1
 439 642 l 1x70
 542 653 l 1x68
 553 642 l 1
 555 542 563 433 563 433 c 1
 479 427 l 1
 464 549 459 560 358 563 c 1
 354 511 351 425 349 333 c 1
 387 334 423 337 423 337 c 1
 437 323 l 1
 433 277 l 1
 348 276 l 1
 347 228 347 179 347 135 c 0
 347 85 362 67 402 67 c 0
 432 67 455 70 455 70 c 1
 459 65 l 1
 450 -4 l 1
 450 -4 328 0 276 0 c 0x70
 220 0 108 -6 108 -6 c 1
 116 60 l 1
 204 68 216 80 216 165 c 2xb0
EndSplineSet
Validated: 1
EndChar

StartChar: Tcaron
Encoding: 356 356 99
Width: 569
Flags: MW
HStem: -6 21G<108 108> 0 67 563 79<216 216> 845 20G<161 161 414 414>
LayerCount: 2
Back
Fore
SplineSet
216 165 m 2xb0
 216 563 l 1
 108 560 102 547 89 433 c 1
 5 427 l 1
 5 427 14 544 16 642 c 1
 27 653 l 1
 128 642 l 1
 439 642 l 1
 542 653 l 1
 553 642 l 1
 555 542 563 433 563 433 c 1
 479 427 l 1
 464 549 459 560 358 563 c 1
 352 474 347 283 347 135 c 0
 347 85 362 67 402 67 c 0
 432 67 455 70 455 70 c 1
 459 65 l 1
 450 -4 l 1
 450 -4 328 0 276 0 c 0x70
 220 0 108 -6 108 -6 c 1
 116 60 l 1
 204 68 216 80 216 165 c 2xb0
430 861 m 1
 455 820 l 1
 380 766 298 696 298 696 c 1
 278 696 l 1
 278 696 195 766 121 820 c 1
 145 861 l 1
 161 865 l 1
 207 842 260 819 288 807 c 1
 317 819 367 842 414 865 c 1
 430 861 l 1
EndSplineSet
Validated: 1
EndChar

StartChar: Tcedilla
Encoding: 354 354 100
Width: 569
Flags: MW
HStem: -237 50<263 289.5 263 292> -151 20G<217 226 226 226> 0 67 563 79<216 216> 633 20G<27 27 542 542>
LayerCount: 2
Back
Fore
SplineSet
232 -86 m 1xf0
 256 0 l 1
 197 -1 108 -6 108 -6 c 1
 116 60 l 1
 204 68 216 80 216 165 c 2
 216 563 l 1
 108 560 102 547 89 433 c 1
 5 427 l 1
 5 427 14 544 16 642 c 1xf0
 27 653 l 1xe8
 128 642 l 1
 439 642 l 1xf0
 542 653 l 1xe8
 553 642 l 1
 555 542 563 433 563 433 c 1
 479 427 l 1
 464 549 459 560 358 563 c 1
 352 474 347 283 347 135 c 0
 347 85 362 67 402 67 c 0
 432 67 455 70 455 70 c 1
 459 65 l 1
 450 -4 l 1
 450 -4 366 -1 307 0 c 1
 295 -44 l 1
 333 -66 391 -100 391 -141 c 0
 391 -194 326 -237 258 -237 c 0
 224 -237 180 -221 180 -194 c 0
 180 -179 202 -149 217 -131 c 1
 226 -131 l 1
 227 -168 248 -187 278 -187 c 0
 301 -187 318 -175 318 -157 c 0
 318 -134 272 -107 232 -86 c 1xf0
EndSplineSet
Validated: 1
EndChar

StartChar: Thorn
Encoding: 222 222 101
Width: 573
Flags: MW
HStem: -9 21G<36 36> 0 65 431 81<268 326> 577 65 623 20G<48 61> 629 20G<330 330>
LayerCount: 2
Back
Fore
SplineSet
260 536 m 0x64
 259 524 258 518 258 512 c 1
 334 512 l 2
 485 512 561 453 561 336 c 0
 561 227 455 144 319 144 c 2
 248 144 l 1
 248 114 l 2
 248 74 255 65 286 65 c 0
 312 65 334 68 334 68 c 1
 338 61 l 1
 329 -3 l 1
 329 -3 222 0 176 0 c 0x70
 120 0 36 -9 36 -9 c 1
 43 56 l 1
 101 68 116 84 116 140 c 2
 117 525 l 2
 117 566 110 577 81 577 c 0xb0
 67 577 46 576 46 576 c 1
 41 584 l 1
 48 643 l 1x68
 74 643 140 642 188 642 c 0x70
 232 642 330 649 330 649 c 1
 324 582 l 1
 272 574 262 566 260 536 c 0x64
254 417 m 0
 251 344 249 274 249 232 c 1
 274 225 312 218 332 218 c 0
 390 227 419 264 419 326 c 0
 419 399 375 431 277 431 c 0
 259 431 255 428 254 417 c 0
EndSplineSet
Validated: 1
EndChar

StartChar: U
Encoding: 85 85 102
Width: 655
Flags: MW
HStem: -12 91<303 383.5 303 399.5> 577 65 628 20G<289 289 638 638>
LayerCount: 2
Back
Fore
SplineSet
219 236 m 2xa0
 219 136 263 79 343 79 c 0
 424 79 465 122 465 209 c 0
 465 275 461 523 461 523 c 2
 460 567 454 577 429 577 c 0
 418 577 396 575 396 575 c 1
 394 579 l 1
 402 645 l 1
 402 645 481 642 519 642 c 0xc0
 570 642 638 648 638 648 c 1xa0
 632 581 l 1
 582 570 574 563 574 531 c 2
 574 220 l 2
 574 70 483 -12 316 -12 c 0
 162 -12 84 60 84 204 c 2
 84 523 l 2
 84 567 78 577 52 577 c 0
 41 577 20 575 20 575 c 1
 18 579 l 1
 27 645 l 1
 27 645 113 642 170 642 c 0xc0
 211 642 289 648 289 648 c 1
 282 580 l 1
 240 575 228 562 226 527 c 2
 219 236 l 2xa0
EndSplineSet
Validated: 1
EndChar

StartChar: Uacute
Encoding: 218 218 103
Width: 655
Flags: MW
HStem: -12 91<303 383.5 303 399.5> 577 65 837 20G<476 476>
LayerCount: 2
Back
Fore
SplineSet
219 236 m 2
 219 136 263 79 343 79 c 0
 424 79 465 122 465 209 c 0
 465 275 461 523 461 523 c 2
 460 567 454 577 429 577 c 0
 418 577 396 575 396 575 c 1
 394 579 l 1
 402 645 l 1
 402 645 481 642 519 642 c 0
 570 642 638 648 638 648 c 1
 632 581 l 1
 582 570 574 563 574 531 c 2
 574 220 l 2
 574 70 483 -12 316 -12 c 0
 162 -12 84 60 84 204 c 2
 84 523 l 2
 84 567 78 577 52 577 c 0
 41 577 20 575 20 575 c 1
 18 579 l 1
 27 645 l 1
 27 645 113 642 170 642 c 0
 211 642 289 648 289 648 c 1
 282 580 l 1
 240 575 228 562 226 527 c 2
 219 236 l 2
514 775 m 1
 508 762 l 1
 508 762 393 733 279 697 c 1
 266 706 l 1
 253 753 l 1
 361 800 476 857 476 857 c 1
 488 852 l 1
 514 775 l 1
EndSplineSet
Validated: 1
EndChar

StartChar: Ucircumflex
Encoding: 219 219 104
Width: 655
Flags: MW
HStem: -12 91<303 383.5 303 399.5> 577 65
LayerCount: 2
Back
Fore
SplineSet
219 236 m 2
 219 136 263 79 343 79 c 0
 424 79 465 122 465 209 c 0
 465 275 461 523 461 523 c 2
 460 567 454 577 429 577 c 0
 418 577 396 575 396 575 c 1
 394 579 l 1
 402 645 l 1
 402 645 481 642 519 642 c 0
 570 642 638 648 638 648 c 1
 632 581 l 1
 582 570 574 563 574 531 c 2
 574 220 l 2
 574 70 483 -12 316 -12 c 0
 162 -12 84 60 84 204 c 2
 84 523 l 2
 84 567 78 577 52 577 c 0
 41 577 20 575 20 575 c 1
 18 579 l 1
 27 645 l 1
 27 645 113 642 170 642 c 0
 211 642 289 648 289 648 c 1
 282 580 l 1
 240 575 228 562 226 527 c 2
 219 236 l 2
199 711 m 1
 174 752 l 1
 249 807 331 876 331 876 c 1
 351 876 l 2
 351 879 434 808 508 752 c 1
 484 711 l 1
 468 707 l 1
 422 730 369 753 341 765 c 1
 312 753 262 730 215 707 c 1
 199 711 l 1
EndSplineSet
Validated: 33
EndChar

StartChar: Udieresis
Encoding: 220 220 105
Width: 655
Flags: MW
HStem: -12 91<303 383.5 303 399.5> 577 65 706 128<234 266.5 412.5 445>
LayerCount: 2
Back
Fore
SplineSet
219 236 m 2
 219 136 263 79 343 79 c 0
 424 79 465 122 465 209 c 0
 465 275 461 523 461 523 c 2
 460 567 454 577 429 577 c 0
 418 577 396 575 396 575 c 1
 394 579 l 1
 402 645 l 1
 402 645 481 642 519 642 c 0
 570 642 638 648 638 648 c 1
 632 581 l 1
 582 570 574 563 574 531 c 2
 574 220 l 2
 574 70 483 -12 316 -12 c 0
 162 -12 84 60 84 204 c 2
 84 523 l 2
 84 567 78 577 52 577 c 0
 41 577 20 575 20 575 c 1
 18 579 l 1
 27 645 l 1
 27 645 113 642 170 642 c 0
 211 642 289 648 289 648 c 1
 282 580 l 1
 240 575 228 562 226 527 c 2
 219 236 l 2
425 706 m 0
 386 706 365 731 365 767 c 0
 365 806 392 834 433 834 c 0
 471 834 492 809 492 774 c 0
 492 734 465 706 425 706 c 0
246 706 m 0
 208 706 187 731 187 767 c 0
 187 806 214 834 254 834 c 0
 292 834 314 809 314 774 c 0
 314 734 287 706 246 706 c 0
EndSplineSet
Validated: 1
EndChar

StartChar: Ugrave
Encoding: 217 217 106
Width: 655
Flags: MW
HStem: -12 91<303 383.5 303 399.5> 577 65 837 20G<210 210>
LayerCount: 2
Back
Fore
SplineSet
219 236 m 2
 219 136 263 79 343 79 c 0
 424 79 465 122 465 209 c 0
 465 275 461 523 461 523 c 2
 460 567 454 577 429 577 c 0
 418 577 396 575 396 575 c 1
 394 579 l 1
 402 645 l 1
 402 645 481 642 519 642 c 0
 570 642 638 648 638 648 c 1
 632 581 l 1
 582 570 574 563 574 531 c 2
 574 220 l 2
 574 70 483 -12 316 -12 c 0
 162 -12 84 60 84 204 c 2
 84 523 l 2
 84 567 78 577 52 577 c 0
 41 577 20 575 20 575 c 1
 18 579 l 1
 27 645 l 1
 27 645 113 642 170 642 c 0
 211 642 289 648 289 648 c 1
 282 580 l 1
 240 575 228 562 226 527 c 2
 219 236 l 2
177 762 m 1
 172 775 l 1
 198 852 l 1
 210 857 l 1
 210 857 325 800 433 753 c 1
 420 706 l 1
 406 697 l 1
 292 733 177 762 177 762 c 1
EndSplineSet
Validated: 1
EndChar

StartChar: Uhungarumlaut
Encoding: 368 368 107
Width: 655
Flags: MW
HStem: -12 91<303 383.5 303 399.5> 577 65 837 20G<354 354>
LayerCount: 2
Back
Fore
SplineSet
219 236 m 2
 219 136 263 79 343 79 c 0
 424 79 465 122 465 209 c 0
 465 275 461 523 461 523 c 2
 460 567 454 577 429 577 c 0
 418 577 396 575 396 575 c 1
 394 579 l 1
 402 645 l 1
 402 645 481 642 519 642 c 0
 570 642 638 648 638 648 c 1
 632 581 l 1
 582 570 574 563 574 531 c 2
 574 220 l 2
 574 70 483 -12 316 -12 c 0
 162 -12 84 60 84 204 c 2
 84 523 l 2
 84 567 78 577 52 577 c 0
 41 577 20 575 20 575 c 1
 18 579 l 1
 27 645 l 1
 27 645 113 642 170 642 c 0
 211 642 289 648 289 648 c 1
 282 580 l 1
 240 575 228 562 226 527 c 2
 219 236 l 2
409 794 m 1
 408 782 l 1
 408 782 324 736 240 684 c 1
 226 689 l 1
 203 723 l 1
 277 787 354 857 354 857 c 1
 366 856 l 1
 409 794 l 1
577 790 m 1
 576 778 l 1
 576 778 491 732 407 680 c 1
 395 684 l 1
 371 718 l 1
 445 782 522 852 522 852 c 1
 534 850 l 1
 577 790 l 1
EndSplineSet
Validated: 1
EndChar

StartChar: Umacron
Encoding: 362 362 108
Width: 655
Flags: MW
HStem: -12 91<303 383.5 303 399.5> 577 65 708 86<328.5 340> 780 20G<485 485>
LayerCount: 2
Back
Fore
SplineSet
219 236 m 2xd0
 219 136 263 79 343 79 c 0
 424 79 465 122 465 209 c 0
 465 275 461 523 461 523 c 2
 460 567 454 577 429 577 c 0
 418 577 396 575 396 575 c 1
 394 579 l 1
 402 645 l 1
 402 645 481 642 519 642 c 0
 570 642 638 648 638 648 c 1
 632 581 l 1
 582 570 574 563 574 531 c 2
 574 220 l 2
 574 70 483 -12 316 -12 c 0
 162 -12 84 60 84 204 c 2
 84 523 l 2
 84 567 78 577 52 577 c 0
 41 577 20 575 20 575 c 1
 18 579 l 1
 27 645 l 1
 27 645 113 642 170 642 c 0
 211 642 289 648 289 648 c 1
 282 580 l 1
 240 575 228 562 226 527 c 2
 219 236 l 2xd0
485 800 m 1
 493 786 l 1
 481 709 l 1
 340 708 l 2
 281 708 201 707 201 707 c 1
 190 719 l 1
 204 795 l 1
 204 795 299 794 358 794 c 0xe0
 408 794 485 800 485 800 c 1
EndSplineSet
Validated: 1
EndChar

StartChar: Uogonek
Encoding: 370 370 109
Width: 655
Flags: MW
HStem: -241 71<433 436> -12 91<303.5 332.5> 577 65 628 20G<289 289 638 638>
LayerCount: 2
Back
Fore
SplineSet
519 -146 m 1xd0
 538 -175 l 1
 538 -175 486 -224 436 -241 c 1
 362 -241 316 -206 316 -150 c 0
 316 -110 340 -70 404 -2 c 1
 378 -9 349 -12 316 -12 c 0
 162 -12 84 60 84 204 c 2
 84 523 l 2
 84 567 78 577 52 577 c 0
 41 577 20 575 20 575 c 1
 18 579 l 1
 27 645 l 1
 27 645 113 642 170 642 c 0xe0
 211 642 289 648 289 648 c 1xd0
 282 580 l 1
 240 575 228 562 226 527 c 2
 219 236 l 2
 219 135 264 79 343 79 c 0
 424 79 465 122 465 209 c 0
 465 275 461 523 461 523 c 2
 460 567 454 577 429 577 c 0
 418 577 396 575 396 575 c 1
 394 579 l 1
 402 645 l 1
 402 645 481 642 519 642 c 0xe0
 570 642 638 648 638 648 c 1
 632 581 l 1
 582 570 574 563 574 531 c 2
 574 220 l 2
 574 151 553 97 510 48 c 0
 415 -60 398 -86 398 -122 c 0
 398 -151 418 -170 448 -170 c 0
 482 -170 519 -146 519 -146 c 1xd0
EndSplineSet
Validated: 1
EndChar

StartChar: Uring
Encoding: 366 366 110
Width: 655
Flags: MW
HStem: -12 91<303 383.5 303 399.5> 577 65 678 53<332.5 349.5 332.5 366> 809 55<323 351>
LayerCount: 2
Back
Fore
SplineSet
219 236 m 2
 219 136 263 79 343 79 c 0
 424 79 465 122 465 209 c 0
 465 275 461 523 461 523 c 2
 460 567 454 577 429 577 c 0
 418 577 396 575 396 575 c 1
 394 579 l 1
 402 645 l 1
 402 645 481 642 519 642 c 0
 570 642 638 648 638 648 c 1
 632 581 l 1
 582 570 574 563 574 531 c 2
 574 220 l 2
 574 70 483 -12 316 -12 c 0
 162 -12 84 60 84 204 c 2
 84 523 l 2
 84 567 78 577 52 577 c 0
 41 577 20 575 20 575 c 1
 18 579 l 1
 27 645 l 1
 27 645 113 642 170 642 c 0
 211 642 289 648 289 648 c 1
 282 580 l 1
 240 575 228 562 226 527 c 2
 219 236 l 2
342 731 m 0
 357 731 382 736 382 767 c 0
 382 792 366 809 336 809 c 0
 310 809 297 795 297 773 c 0
 297 742 323 731 342 731 c 0
335 678 m 0
 278 678 247 715 247 769 c 0
 247 823 285 864 343 864 c 0
 408 864 432 821 432 777 c 0
 432 726 397 678 335 678 c 0
EndSplineSet
Validated: 1
EndChar

StartChar: V
Encoding: 86 86 111
Width: 625
Flags: MW
HStem: -15 21G<218 218> 578 64 630 20G<296 296>
LayerCount: 2
Back
Fore
SplineSet
72 515 m 0xc0
 60 557 38 575 -3 577 c 1
 -7 584 l 1
 0 644 l 1
 0 644 83 642 126 642 c 0xc0
 200 642 296 650 296 650 c 1xa0
 302 642 l 1
 297 581 l 1
 230 575 220 570 220 543 c 0
 220 507 311 131 311 131 c 1
 326 131 l 1
 353 201 452 516 452 547 c 0
 452 570 439 578 401 578 c 2
 362 578 l 1
 357 585 l 1
 364 647 l 1
 364 647 448 642 512 642 c 0
 564 642 628 644 628 644 c 1
 621 578 l 1
 589 573 580 564 567 526 c 2
 383 5 l 1
 218 -15 l 1
 218 -15 129 328 72 515 c 0xc0
EndSplineSet
Validated: 1
EndChar

StartChar: W
Encoding: 87 87 112
Width: 964
Flags: MW
HStem: -15 21G<211 211 572 572> 578 64 630 20G<287 287 646 646>
LayerCount: 2
Back
Fore
SplineSet
731 5 m 1xc0
 572 -15 l 1
 564 31 528 183 486 342 c 1
 476 342 l 1
 372 5 l 1
 211 -15 l 1
 211 -15 126 328 70 515 c 0
 58 557 37 575 -2 577 c 1
 -6 584 l 1
 1 644 l 1
 1 644 81 642 123 642 c 0xc0
 204 642 287 650 287 650 c 1xa0
 292 642 l 1
 287 581 l 1
 223 575 212 570 212 544 c 0
 212 504 301 131 301 131 c 1
 314 131 l 1
 339 198 393 382 424 491 c 1
 422 507 419 521 416 533 c 0
 409 566 390 576 343 577 c 1
 338 584 l 1
 346 644 l 1
 346 644 437 642 483 642 c 0xc0
 558 642 646 650 646 650 c 1xa0
 651 642 l 1
 646 581 l 1
 581 575 571 571 571 543 c 0
 571 507 660 131 660 131 c 1
 673 131 l 1
 699 201 796 519 796 550 c 0
 796 571 783 578 746 578 c 2
 708 578 l 1
 703 585 l 1
 711 647 l 1
 711 647 793 642 854 642 c 0
 905 642 966 644 966 644 c 1
 959 578 l 1
 929 573 920 565 907 526 c 2
 731 5 l 1xc0
EndSplineSet
Validated: 1
EndChar

StartChar: Wacute
Encoding: 7810 7810 113
Width: 964
Flags: MW
HStem: -15 21G<211 211 572 572> 578 64 837 20G<627 627>
LayerCount: 2
Back
Fore
SplineSet
731 5 m 1
 572 -15 l 1
 564 31 528 183 486 342 c 1
 476 342 l 1
 372 5 l 1
 211 -15 l 1
 211 -15 126 328 70 515 c 0
 58 557 37 575 -2 577 c 1
 -6 584 l 1
 1 644 l 1
 1 644 81 642 123 642 c 0
 204 642 287 650 287 650 c 1
 292 642 l 1
 287 581 l 1
 223 575 212 570 212 544 c 0
 212 504 301 131 301 131 c 1
 314 131 l 1
 339 198 393 382 424 491 c 1
 422 507 419 521 416 533 c 0
 409 566 390 576 343 577 c 1
 338 584 l 1
 346 644 l 1
 346 644 437 642 483 642 c 0
 558 642 646 650 646 650 c 1
 651 642 l 1
 646 581 l 1
 581 575 571 571 571 543 c 0
 571 507 660 131 660 131 c 1
 673 131 l 1
 699 201 796 519 796 550 c 0
 796 571 783 578 746 578 c 2
 708 578 l 1
 703 585 l 1
 711 647 l 1
 711 647 793 642 854 642 c 0
 905 642 966 644 966 644 c 1
 959 578 l 1
 929 573 920 565 907 526 c 2
 731 5 l 1
665 775 m 1
 659 762 l 1
 659 762 544 733 430 697 c 1
 417 706 l 1
 404 753 l 1
 512 800 627 857 627 857 c 1
 639 852 l 1
 665 775 l 1
EndSplineSet
Validated: 1
EndChar

StartChar: Wcircumflex
Encoding: 372 372 114
Width: 964
Flags: MW
HStem: -15 21G<211 211 572 572> 578 64
LayerCount: 2
Back
Fore
SplineSet
731 5 m 1
 572 -15 l 1
 564 31 528 183 486 342 c 1
 476 342 l 1
 372 5 l 1
 211 -15 l 1
 211 -15 126 328 70 515 c 0
 58 557 37 575 -2 577 c 1
 -6 584 l 1
 1 644 l 1
 1 644 81 642 123 642 c 0
 204 642 287 650 287 650 c 1
 292 642 l 1
 287 581 l 1
 223 575 212 570 212 544 c 0
 212 504 301 131 301 131 c 1
 314 131 l 1
 339 198 393 382 424 491 c 1
 422 507 419 521 416 533 c 0
 409 566 390 576 343 577 c 1
 338 584 l 1
 346 644 l 1
 346 644 437 642 483 642 c 0
 558 642 646 650 646 650 c 1
 651 642 l 1
 646 581 l 1
 581 575 571 571 571 543 c 0
 571 507 660 131 660 131 c 1
 673 131 l 1
 699 201 796 519 796 550 c 0
 796 571 783 578 746 578 c 2
 708 578 l 1
 703 585 l 1
 711 647 l 1
 711 647 793 642 854 642 c 0
 905 642 966 644 966 644 c 1
 959 578 l 1
 929 573 920 565 907 526 c 2
 731 5 l 1
350 711 m 1
 325 752 l 1
 400 807 482 876 482 876 c 1
 502 876 l 2
 502 879 585 808 659 752 c 1
 635 711 l 1
 619 707 l 1
 573 730 520 753 492 765 c 1
 463 753 413 730 366 707 c 1
 350 711 l 1
EndSplineSet
Validated: 33
EndChar

StartChar: Wdieresis
Encoding: 7812 7812 115
Width: 964
Flags: MW
HStem: -15 21G<211 211 572 572> 578 64 706 128<385 417.5 563.5 596>
LayerCount: 2
Back
Fore
SplineSet
731 5 m 1
 572 -15 l 1
 564 31 528 183 486 342 c 1
 476 342 l 1
 372 5 l 1
 211 -15 l 1
 211 -15 126 328 70 515 c 0
 58 557 37 575 -2 577 c 1
 -6 584 l 1
 1 644 l 1
 1 644 81 642 123 642 c 0
 204 642 287 650 287 650 c 1
 292 642 l 1
 287 581 l 1
 223 575 212 570 212 544 c 0
 212 504 301 131 301 131 c 1
 314 131 l 1
 339 198 393 382 424 491 c 1
 422 507 419 521 416 533 c 0
 409 566 390 576 343 577 c 1
 338 584 l 1
 346 644 l 1
 346 644 437 642 483 642 c 0
 558 642 646 650 646 650 c 1
 651 642 l 1
 646 581 l 1
 581 575 571 571 571 543 c 0
 571 507 660 131 660 131 c 1
 673 131 l 1
 699 201 796 519 796 550 c 0
 796 571 783 578 746 578 c 2
 708 578 l 1
 703 585 l 1
 711 647 l 1
 711 647 793 642 854 642 c 0
 905 642 966 644 966 644 c 1
 959 578 l 1
 929 573 920 565 907 526 c 2
 731 5 l 1
576 706 m 0
 537 706 516 731 516 767 c 0
 516 806 543 834 584 834 c 0
 622 834 643 809 643 774 c 0
 643 734 616 706 576 706 c 0
397 706 m 0
 359 706 338 731 338 767 c 0
 338 806 365 834 405 834 c 0
 443 834 465 809 465 774 c 0
 465 734 438 706 397 706 c 0
EndSplineSet
Validated: 1
EndChar

StartChar: Wgrave
Encoding: 7808 7808 116
Width: 964
Flags: MW
HStem: -15 21G<211 211 572 572> 578 64 837 20G<362 362>
LayerCount: 2
Back
Fore
SplineSet
731 5 m 1
 572 -15 l 1
 564 31 528 183 486 342 c 1
 476 342 l 1
 372 5 l 1
 211 -15 l 1
 211 -15 126 328 70 515 c 0
 58 557 37 575 -2 577 c 1
 -6 584 l 1
 1 644 l 1
 1 644 81 642 123 642 c 0
 204 642 287 650 287 650 c 1
 292 642 l 1
 287 581 l 1
 223 575 212 570 212 544 c 0
 212 504 301 131 301 131 c 1
 314 131 l 1
 339 198 393 382 424 491 c 1
 422 507 419 521 416 533 c 0
 409 566 390 576 343 577 c 1
 338 584 l 1
 346 644 l 1
 346 644 437 642 483 642 c 0
 558 642 646 650 646 650 c 1
 651 642 l 1
 646 581 l 1
 581 575 571 571 571 543 c 0
 571 507 660 131 660 131 c 1
 673 131 l 1
 699 201 796 519 796 550 c 0
 796 571 783 578 746 578 c 2
 708 578 l 1
 703 585 l 1
 711 647 l 1
 711 647 793 642 854 642 c 0
 905 642 966 644 966 644 c 1
 959 578 l 1
 929 573 920 565 907 526 c 2
 731 5 l 1
329 762 m 1
 324 775 l 1
 350 852 l 1
 362 857 l 1
 362 857 477 800 585 753 c 1
 572 706 l 1
 558 697 l 1
 444 733 329 762 329 762 c 1
EndSplineSet
Validated: 1
EndChar

StartChar: X
Encoding: 88 88 117
Width: 682
Flags: MW
HStem: -7 21G<357 357> 1 60 582 60 625 20G<420 432.5 664 664> 629 20G<338 338>
LayerCount: 2
Back
Fore
SplineSet
158 200 m 2x60
 257 331 l 1
 150 491 l 2
 112 547 77 565 22 575 c 1
 18 580 l 1
 26 644 l 1
 26 644 110 642 185 642 c 0x60
 247 642 338 649 338 649 c 1x48
 343 640 l 1
 338 582 l 1
 296 580 278 571 278 552 c 0
 278 531 315 477 367 400 c 1
 403 453 465 534 465 557 c 0
 465 573 452 580 416 582 c 1x60
 414 587 l 1
 420 645 l 1x50
 445 645 508 642 552 642 c 0x60
 600 642 664 645 664 645 c 1
 668 638 l 1
 663 577 l 1
 601 556 576 532 531 470 c 2
 423 321 l 1
 540 152 l 2
 579 97 616 71 672 68 c 1
 675 64 l 1
 667 -2 l 1
 667 -2 579 1 537 1 c 0x50
 486 1 357 -7 357 -7 c 1xa0
 352 0 l 1
 358 61 l 1
 395 63 412 71 412 89 c 0
 412 99 407 110 397 125 c 2
 311 252 l 1
 245 159 l 2
 220 124 210 107 210 93 c 0
 210 74 225 65 259 63 c 1
 263 56 l 1
 257 -6 l 1
 257 -6 162 1 127 1 c 0
 88 1 11 -4 11 -4 c 1
 7 6 l 1
 13 66 l 1
 58 82 109 136 158 200 c 2x60
EndSplineSet
Validated: 1
EndChar

StartChar: Y
Encoding: 89 89 118
Width: 598
Flags: MW
HStem: -11 21G<136 136> 0 67 582 59 625 20G<369 381.5 604 604> 629 20G<287 287>
LayerCount: 2
Back
Fore
SplineSet
227 552 m 0x60
 227 529 302 370 312 346 c 1
 322 346 l 1
 401 511 l 2
 410 529 415 546 415 559 c 0
 415 573 400 580 364 582 c 1x60
 362 587 l 1
 369 645 l 1x50
 394 645 458 641 502 641 c 0x60
 548 641 604 645 604 645 c 1
 608 638 l 1
 601 577 l 1
 545 559 522 525 480 449 c 2
 384 270 l 2
 366 234 367 205 366 132 c 0
 365 83 376 67 413 67 c 0
 435 67 463 70 463 70 c 1
 466 65 l 1
 457 -4 l 1
 457 -4 342 0 292 0 c 0x50
 235 0 136 -11 136 -11 c 1
 143 58 l 1
 221 68 233 85 233 152 c 2
 233 182 l 2
 233 216 227 240 204 284 c 2
 106 475 l 2
 76 535 55 562 -7 575 c 1
 -10 580 l 1
 -2 644 l 1
 -2 644 87 641 127 641 c 0xa0
 178 641 287 649 287 649 c 1x48
 292 640 l 1
 287 582 l 1
 242 580 227 572 227 552 c 0x60
EndSplineSet
Validated: 33
EndChar

StartChar: Yacute
Encoding: 221 221 119
Width: 598
Flags: MW
HStem: -11 21G<136 136> 0 67 582 59 625 20G<369 381.5 604 604> 837 20G<459 459>
LayerCount: 2
Back
Fore
SplineSet
227 552 m 0xa8
 227 529 302 370 312 346 c 1
 322 346 l 1
 401 511 l 2
 410 529 415 546 415 559 c 0
 415 573 400 580 364 582 c 1x68
 362 587 l 1
 369 645 l 1x58
 394 645 458 641 502 641 c 0x68
 548 641 604 645 604 645 c 1
 608 638 l 1
 601 577 l 1
 545 559 522 525 480 449 c 2
 384 270 l 2
 366 234 367 205 366 132 c 0
 365 83 376 67 413 67 c 0
 435 67 463 70 463 70 c 1
 466 65 l 1
 457 -4 l 1
 457 -4 342 0 292 0 c 0x58
 235 0 136 -11 136 -11 c 1
 143 58 l 1
 221 68 233 85 233 152 c 2
 233 182 l 2
 233 216 227 240 204 284 c 2
 106 475 l 2
 76 535 55 562 -7 575 c 1
 -10 580 l 1
 -2 644 l 1
 -2 644 87 641 127 641 c 0
 178 641 287 649 287 649 c 1
 292 640 l 1
 287 582 l 1
 242 580 227 572 227 552 c 0xa8
497 775 m 1
 491 762 l 1
 491 762 376 733 262 697 c 1
 249 706 l 1
 236 753 l 1
 344 800 459 857 459 857 c 1
 471 852 l 1
 497 775 l 1
EndSplineSet
Validated: 33
EndChar

StartChar: Ycircumflex
Encoding: 374 374 120
Width: 598
Flags: MW
HStem: -11 21G<136 136> 0 67 582 59 625 20G<369 381.5 604 604>
LayerCount: 2
Back
Fore
SplineSet
227 552 m 0xa0
 227 529 302 370 312 346 c 1
 322 346 l 1
 401 511 l 2
 410 529 415 546 415 559 c 0
 415 573 400 580 364 582 c 1x60
 362 587 l 1
 369 645 l 1x50
 394 645 458 641 502 641 c 0x60
 548 641 604 645 604 645 c 1
 608 638 l 1
 601 577 l 1
 545 559 522 525 480 449 c 2
 384 270 l 2
 366 234 367 205 366 132 c 0
 365 83 376 67 413 67 c 0
 435 67 463 70 463 70 c 1
 466 65 l 1
 457 -4 l 1
 457 -4 342 0 292 0 c 0x50
 235 0 136 -11 136 -11 c 1
 143 58 l 1
 221 68 233 85 233 152 c 2
 233 182 l 2
 233 216 227 240 204 284 c 2
 106 475 l 2
 76 535 55 562 -7 575 c 1
 -10 580 l 1
 -2 644 l 1
 -2 644 87 641 127 641 c 0
 178 641 287 649 287 649 c 1
 292 640 l 1
 287 582 l 1
 242 580 227 572 227 552 c 0xa0
182 711 m 1
 157 752 l 1
 232 807 314 876 314 876 c 1
 334 876 l 2
 334 879 417 808 491 752 c 1
 467 711 l 1
 451 707 l 1
 405 730 352 753 324 765 c 1
 295 753 245 730 198 707 c 1
 182 711 l 1
EndSplineSet
Validated: 33
EndChar

StartChar: Ydieresis
Encoding: 376 376 121
Width: 598
Flags: MW
HStem: -11 21G<136 136> 0 67 582 59 625 20G<369 381.5 604 604> 706 128<217 249.5 395.5 428>
LayerCount: 2
Back
Fore
SplineSet
227 552 m 0xa8
 227 529 302 370 312 346 c 1
 322 346 l 1
 401 511 l 2
 410 529 415 546 415 559 c 0
 415 573 400 580 364 582 c 1x68
 362 587 l 1
 369 645 l 1x58
 394 645 458 641 502 641 c 0x68
 548 641 604 645 604 645 c 1
 608 638 l 1
 601 577 l 1
 545 559 522 525 480 449 c 2
 384 270 l 2
 366 234 367 205 366 132 c 0
 365 83 376 67 413 67 c 0
 435 67 463 70 463 70 c 1
 466 65 l 1
 457 -4 l 1
 457 -4 342 0 292 0 c 0x58
 235 0 136 -11 136 -11 c 1
 143 58 l 1
 221 68 233 85 233 152 c 2
 233 182 l 2
 233 216 227 240 204 284 c 2
 106 475 l 2
 76 535 55 562 -7 575 c 1
 -10 580 l 1
 -2 644 l 1
 -2 644 87 641 127 641 c 0
 178 641 287 649 287 649 c 1
 292 640 l 1
 287 582 l 1
 242 580 227 572 227 552 c 0xa8
408 706 m 0
 369 706 348 731 348 767 c 0
 348 806 375 834 416 834 c 0
 454 834 475 809 475 774 c 0
 475 734 448 706 408 706 c 0
229 706 m 0
 191 706 170 731 170 767 c 0
 170 806 197 834 237 834 c 0
 275 834 297 809 297 774 c 0
 297 734 270 706 229 706 c 0
EndSplineSet
Validated: 33
EndChar

StartChar: Ygrave
Encoding: 7922 7922 122
Width: 598
Flags: MW
HStem: -11 21G<136 136> 0 67 582 59 625 20G<369 381.5 604 604> 837 20G<194 194>
LayerCount: 2
Back
Fore
SplineSet
227 552 m 0xa8
 227 529 302 370 312 346 c 1
 322 346 l 1
 401 511 l 2
 410 529 415 546 415 559 c 0
 415 573 400 580 364 582 c 1x68
 362 587 l 1
 369 645 l 1x58
 394 645 458 641 502 641 c 0x68
 548 641 604 645 604 645 c 1
 608 638 l 1
 601 577 l 1
 545 559 522 525 480 449 c 2
 384 270 l 2
 366 234 367 205 366 132 c 0
 365 83 376 67 413 67 c 0
 435 67 463 70 463 70 c 1
 466 65 l 1
 457 -4 l 1
 457 -4 342 0 292 0 c 0x58
 235 0 136 -11 136 -11 c 1
 143 58 l 1
 221 68 233 85 233 152 c 2
 233 182 l 2
 233 216 227 240 204 284 c 2
 106 475 l 2
 76 535 55 562 -7 575 c 1
 -10 580 l 1
 -2 644 l 1
 -2 644 87 641 127 641 c 0
 178 641 287 649 287 649 c 1
 292 640 l 1
 287 582 l 1
 242 580 227 572 227 552 c 0xa8
161 762 m 1
 156 775 l 1
 182 852 l 1
 194 857 l 1
 194 857 309 800 417 753 c 1
 404 706 l 1
 390 697 l 1
 276 733 161 762 161 762 c 1
EndSplineSet
Validated: 33
EndChar

StartChar: Z
Encoding: 90 90 123
Width: 580
Flags: MW
HStem: -5 21G 0 78 431 210 634 20G<70 70>
LayerCount: 2
Back
Fore
SplineSet
531 16 m 1xa0
 514 -3 l 1
 119 3 l 1
 44 -5 l 1xa0
 19 40 l 1
 370 569 l 1
 243 561 l 1
 158 551 135 527 128 434 c 1
 43 428 l 1
 43 428 57 552 60 644 c 1
 70 654 l 1x50
 248 643 l 1
 541 640 l 1
 559 599 l 1
 389 373 247 149 198 73 c 1
 354 84 l 2
 421 90 455 135 471 238 c 1
 556 245 l 1
 556 245 535 114 531 16 c 1xa0
EndSplineSet
Validated: 1
EndChar

StartChar: Zacute
Encoding: 377 377 124
Width: 580
Flags: MW
HStem: -5 21G 0 78 431 210 565 76 837 20G<447 447>
LayerCount: 2
Back
Fore
SplineSet
531 16 m 1x88
 514 -3 l 1
 119 3 l 1
 44 -5 l 1
 19 40 l 1
 370 569 l 1
 243 561 l 1
 158 551 135 527 128 434 c 1
 43 428 l 1
 43 428 57 552 60 644 c 1
 70 654 l 1
 248 643 l 1
 541 640 l 1
 559 599 l 1
 389 373 247 149 198 73 c 1
 354 84 l 2
 421 90 455 135 471 238 c 1
 556 245 l 1
 556 245 535 114 531 16 c 1x88
485 775 m 1
 479 762 l 1
 479 762 364 733 250 697 c 1
 237 706 l 1
 224 753 l 1
 332 800 447 857 447 857 c 1
 459 852 l 1
 485 775 l 1
EndSplineSet
Validated: 8388609
EndChar

StartChar: Zcaron
Encoding: 381 381 125
Width: 580
Flags: MW
HStem: -5 21G 0 78 431 210 565 76 845 20G<184 184 437 437>
LayerCount: 2
Back
Fore
SplineSet
531 16 m 1x88
 514 -3 l 1
 119 3 l 1
 44 -5 l 1
 19 40 l 1
 370 569 l 1
 243 561 l 1
 158 551 135 527 128 434 c 1
 43 428 l 1
 43 428 57 552 60 644 c 1
 70 654 l 1
 248 643 l 1
 541 640 l 1
 559 599 l 1
 389 373 247 149 198 73 c 1
 354 84 l 2
 421 90 455 135 471 238 c 1
 556 245 l 1
 556 245 535 114 531 16 c 1x88
453 861 m 1
 478 820 l 1
 403 766 321 696 321 696 c 1
 301 696 l 1
 301 696 218 766 144 820 c 1
 168 861 l 1
 184 865 l 1
 230 842 283 819 311 807 c 1
 340 819 390 842 437 865 c 1
 453 861 l 1
EndSplineSet
Validated: 8388609
EndChar

StartChar: Zdotaccent
Encoding: 379 379 126
Width: 580
Flags: MW
HStem: -5 21G 0 78 431 210 565 76 702 152<293 331>
LayerCount: 2
Back
Fore
SplineSet
531 16 m 1x88
 514 -3 l 1
 119 3 l 1
 44 -5 l 1
 19 40 l 1
 370 569 l 1
 243 561 l 1
 158 551 135 527 128 434 c 1
 43 428 l 1
 43 428 57 552 60 644 c 1
 70 654 l 1
 248 643 l 1
 541 640 l 1
 559 599 l 1
 389 373 247 149 198 73 c 1
 354 84 l 2
 421 90 455 135 471 238 c 1
 556 245 l 1
 556 245 535 114 531 16 c 1x88
307 702 m 0
 261 702 237 732 237 774 c 0
 237 821 269 854 317 854 c 0
 361 854 387 825 387 782 c 0
 387 735 355 702 307 702 c 0
EndSplineSet
Validated: 8388609
EndChar

StartChar: a
Encoding: 97 97 127
Width: 479
Flags: MW
HStem: -12 21G<353 383> -8 100 379 95<210 220>
LayerCount: 2
Back
Fore
SplineSet
277 266 m 1x60
 278 289 l 2
 278 346 247 379 193 379 c 0
 134 379 76 332 76 332 c 1
 67 337 l 1
 49 397 l 1
 49 397 186 474 234 474 c 0
 352 474 401 414 401 337 c 0
 401 303 381 176 381 132 c 0
 381 108 395 92 417 92 c 0x60
 441 92 464 109 464 109 c 1
 480 88 l 1
 480 88 431 2 383 -12 c 1xa0
 323 -12 288 15 282 65 c 1
 274 68 l 1
 234 28 189 -8 164 -8 c 0
 86 -8 27 55 27 138 c 0
 27 179 50 213 85 221 c 2
 277 266 l 1x60
273 117 m 1
 275 211 l 1
 170 182 l 2
 154 177 147 167 147 150 c 0
 147 115 169 89 202 89 c 0
 222 89 251 101 273 117 c 1
EndSplineSet
Validated: 1
EndChar

StartChar: aacute
Encoding: 225 225 128
Width: 479
Flags: MW
HStem: -12 21G<353 383> -8 100 379 95<210 220> 718 20G<311 311>
LayerCount: 2
Back
Fore
SplineSet
277 266 m 1x70
 278 289 l 2
 278 346 247 379 193 379 c 0
 134 379 76 332 76 332 c 1
 67 337 l 1
 49 397 l 1
 49 397 186 474 234 474 c 0
 352 474 401 414 401 337 c 0
 401 303 381 176 381 132 c 0
 381 108 395 92 417 92 c 0x70
 441 92 464 109 464 109 c 1
 480 88 l 1
 480 88 431 2 383 -12 c 1xb0
 323 -12 288 15 282 65 c 1
 274 68 l 1
 234 28 189 -8 164 -8 c 0
 86 -8 27 55 27 138 c 0
 27 179 50 213 85 221 c 2
 277 266 l 1x70
273 117 m 1
 275 211 l 1
 170 182 l 2
 154 177 147 167 147 150 c 0
 147 115 169 89 202 89 c 0
 222 89 251 101 273 117 c 1
379 667 m 1
 378 653 l 1
 378 653 282 593 189 524 c 1
 174 528 l 1
 144 567 l 1
 226 647 311 738 311 738 c 1
 325 737 l 1
 379 667 l 1
EndSplineSet
Validated: 1
EndChar

StartChar: acute
Encoding: 180 180 129
Width: 398
Flags: MW
HStem: 523 21G<160 160> 717 20G<282 282>
LayerCount: 2
Back
Fore
SplineSet
350 666 m 1
 349 652 l 1
 349 652 253 592 160 523 c 1
 145 527 l 1
 115 566 l 1
 197 646 282 737 282 737 c 1
 296 736 l 1
 350 666 l 1
EndSplineSet
Validated: 1
EndChar

StartChar: abreve
Encoding: 259 259 130
Width: 479
Flags: MW
HStem: -12 21G<353 383> -8 100 379 95<210 220> 548 95<205.5 250.5 205.5 270.5> 691 20G<125 125 331 331>
LayerCount: 2
Back
Fore
SplineSet
277 266 m 1x78
 278 289 l 2
 278 346 247 379 193 379 c 0
 134 379 76 332 76 332 c 1
 67 337 l 1
 49 397 l 1
 49 397 186 474 234 474 c 0
 352 474 401 414 401 337 c 0
 401 303 381 176 381 132 c 0
 381 108 395 92 417 92 c 0x78
 441 92 464 109 464 109 c 1
 480 88 l 1
 480 88 431 2 383 -12 c 1xb8
 323 -12 288 15 282 65 c 1
 274 68 l 1
 234 28 189 -8 164 -8 c 0
 86 -8 27 55 27 138 c 0
 27 179 50 213 85 221 c 2
 277 266 l 1x78
273 117 m 1
 275 211 l 1
 170 182 l 2
 154 177 147 167 147 150 c 0
 147 115 169 89 202 89 c 0
 222 89 251 101 273 117 c 1
228 643 m 0
 273 643 313 665 331 711 c 1
 348 707 l 1
 376 673 l 1
 358 610 313 548 228 548 c 0
 143 548 98 610 80 673 c 1
 108 707 l 1
 125 711 l 1
 143 665 183 643 228 643 c 0
EndSplineSet
Validated: 1
EndChar

StartChar: breve
Encoding: 728 728 131
Width: 398
Flags: MW
HStem: 547 95<176.5 221.5 176.5 241.5> 690 20G<96 96 302 302>
LayerCount: 2
Back
Fore
SplineSet
199 642 m 0
 244 642 284 664 302 710 c 1
 319 706 l 1
 347 672 l 1
 329 609 284 547 199 547 c 0
 114 547 69 609 51 672 c 1
 79 706 l 1
 96 710 l 1
 114 664 154 642 199 642 c 0
EndSplineSet
Validated: 1
EndChar

StartChar: acircumflex
Encoding: 226 226 132
Width: 479
Flags: MW
HStem: -12 21G<353 383> -8 100 379 95<210 220> 710 20G<219 239 239 239>
LayerCount: 2
Back
Fore
SplineSet
277 266 m 1x70
 278 289 l 2
 278 346 247 379 193 379 c 0
 134 379 76 332 76 332 c 1
 67 337 l 1
 49 397 l 1
 49 397 186 474 234 474 c 0
 352 474 401 414 401 337 c 0
 401 303 381 176 381 132 c 0
 381 108 395 92 417 92 c 0x70
 441 92 464 109 464 109 c 1
 480 88 l 1
 480 88 431 2 383 -12 c 1xb0
 323 -12 288 15 282 65 c 1
 274 68 l 1
 234 28 189 -8 164 -8 c 0
 86 -8 27 55 27 138 c 0
 27 179 50 213 85 221 c 2
 277 266 l 1x70
273 117 m 1
 275 211 l 1
 170 182 l 2
 154 177 147 167 147 150 c 0
 147 115 169 89 202 89 c 0
 222 89 251 101 273 117 c 1
96 535 m 1
 67 576 l 1
 138 644 219 730 219 730 c 1
 239 730 l 1
 239 730 319 644 390 576 c 1
 361 535 l 1
 346 531 l 1
 303 565 255 596 229 614 c 1
 201 596 155 566 112 531 c 1
 96 535 l 1
EndSplineSet
Validated: 1
EndChar

StartChar: circumflex
Encoding: 710 710 133
Width: 398
Flags: MW
HStem: 531 21G<82 82 316 316> 710 20G<189 209 209 209>
LayerCount: 2
Back
Fore
SplineSet
66 535 m 1
 37 576 l 1
 108 644 189 730 189 730 c 1
 209 730 l 1
 209 730 289 644 360 576 c 1
 331 535 l 1
 316 531 l 1
 273 565 225 596 199 614 c 1
 171 596 125 566 82 531 c 1
 66 535 l 1
EndSplineSet
Validated: 1
EndChar

StartChar: adieresis
Encoding: 228 228 134
Width: 479
Flags: MW
HStem: -12 21G<353 383> -8 100 379 95<210 220> 564 128<121 153.5 299.5 332>
LayerCount: 2
Back
Fore
SplineSet
277 266 m 1x70
 278 289 l 2
 278 346 247 379 193 379 c 0
 134 379 76 332 76 332 c 1
 67 337 l 1
 49 397 l 1
 49 397 186 474 234 474 c 0
 352 474 401 414 401 337 c 0
 401 303 381 176 381 132 c 0
 381 108 395 92 417 92 c 0x70
 441 92 464 109 464 109 c 1
 480 88 l 1
 480 88 431 2 383 -12 c 1xb0
 323 -12 288 15 282 65 c 1
 274 68 l 1
 234 28 189 -8 164 -8 c 0
 86 -8 27 55 27 138 c 0
 27 179 50 213 85 221 c 2
 277 266 l 1x70
273 117 m 1
 275 211 l 1
 170 182 l 2
 154 177 147 167 147 150 c 0
 147 115 169 89 202 89 c 0
 222 89 251 101 273 117 c 1
312 564 m 0
 273 564 252 589 252 624 c 0
 252 664 279 692 320 692 c 0
 358 692 379 667 379 631 c 0
 379 592 352 564 312 564 c 0
133 564 m 0
 95 564 74 589 74 624 c 0
 74 664 101 692 141 692 c 0
 179 692 201 667 201 631 c 0
 201 592 174 564 133 564 c 0
EndSplineSet
Validated: 1
EndChar

StartChar: dieresis
Encoding: 168 168 135
Width: 398
Flags: MW
HStem: 563 128<93 125.5 271.5 304>
LayerCount: 2
Back
Fore
SplineSet
284 563 m 0
 245 563 224 588 224 623 c 0
 224 663 251 691 292 691 c 0
 330 691 351 666 351 630 c 0
 351 591 324 563 284 563 c 0
105 563 m 0
 67 563 46 588 46 623 c 0
 46 663 73 691 113 691 c 0
 151 691 173 666 173 630 c 0
 173 591 146 563 105 563 c 0
EndSplineSet
Validated: 1
EndChar

StartChar: ae
Encoding: 230 230 136
Width: 670
Flags: MW
HStem: -12 96<471.5 521.5> -8 21G<117 156> 380 94<196.5 207.5>
LayerCount: 2
Back
Fore
SplineSet
637 113 m 1xa0
 653 62 l 1
 653 62 556 -12 487 -12 c 0xa0
 399 -12 331 23 296 86 c 1
 239 32 187 -3 156 -8 c 1x60
 78 -8 18 54 18 136 c 0
 18 180 44 215 83 223 c 2
 264 261 l 1
 265 292 l 2
 265 348 234 380 181 380 c 0
 122 380 62 332 62 332 c 1
 53 337 l 1
 35 397 l 1
 35 397 173 474 220 474 c 0
 275 474 318 451 344 409 c 1
 382 451 434 474 494 474 c 0
 590 474 648 411 648 306 c 0
 648 290 646 277 646 277 c 1
 636 265 l 1
 380 221 l 1
 389 133 434 84 509 84 c 0
 571 84 629 116 629 116 c 1
 637 113 l 1xa0
264 208 m 1
 166 182 l 2
 145 178 137 166 137 147 c 0
 137 113 160 87 191 87 c 0
 213 87 245 102 277 128 c 1
 269 151 264 178 264 208 c 1
377 292 m 2
 377 274 l 1
 505 306 l 2
 516 309 522 313 522 321 c 0
 522 362 499 390 465 390 c 0
 411 390 378 352 377 292 c 2
EndSplineSet
Validated: 1
EndChar

StartChar: agrave
Encoding: 224 224 137
Width: 479
Flags: MW
HStem: -12 21G<353 383> -8 100 379 95<210 220> 717 20G<159 159>
LayerCount: 2
Back
Fore
SplineSet
277 266 m 1x70
 278 289 l 2
 278 346 247 379 193 379 c 0
 134 379 76 332 76 332 c 1
 67 337 l 1
 49 397 l 1
 49 397 186 474 234 474 c 0
 352 474 401 414 401 337 c 0
 401 303 381 176 381 132 c 0
 381 108 395 92 417 92 c 0x70
 441 92 464 109 464 109 c 1
 480 88 l 1
 480 88 431 2 383 -12 c 1xb0
 323 -12 288 15 282 65 c 1
 274 68 l 1
 234 28 189 -8 164 -8 c 0
 86 -8 27 55 27 138 c 0
 27 179 50 213 85 221 c 2
 277 266 l 1x70
273 117 m 1
 275 211 l 1
 170 182 l 2
 154 177 147 167 147 150 c 0
 147 115 169 89 202 89 c 0
 222 89 251 101 273 117 c 1
93 652 m 1
 92 666 l 1
 146 736 l 1
 159 737 l 1
 159 737 245 647 327 567 c 1
 297 528 l 1
 282 524 l 1
 189 593 93 652 93 652 c 1
EndSplineSet
Validated: 1
EndChar

StartChar: grave
Encoding: 96 96 138
Width: 398
Flags: MW
HStem: 523 21G<255 255> 716 20G<132 132>
LayerCount: 2
Back
Fore
SplineSet
66 651 m 1
 65 665 l 1
 119 735 l 1
 132 736 l 1
 132 736 218 646 300 566 c 1
 270 527 l 1
 255 523 l 1
 162 592 66 651 66 651 c 1
EndSplineSet
Validated: 1
EndChar

StartChar: amacron
Encoding: 257 257 139
Width: 479
Flags: MW
HStem: -12 21G<353 383> -8 100 379 95<210 220> 582 85<215.5 227> 653 20G<372 372>
LayerCount: 2
Back
Fore
SplineSet
277 266 m 1x70
 278 289 l 2
 278 346 247 379 193 379 c 0
 134 379 76 332 76 332 c 1
 67 337 l 1
 49 397 l 1
 49 397 186 474 234 474 c 0
 352 474 401 414 401 337 c 0
 401 303 381 176 381 132 c 0
 381 108 395 92 417 92 c 0x68
 441 92 464 109 464 109 c 1
 480 88 l 1
 480 88 431 2 383 -12 c 1xb0
 323 -12 288 15 282 65 c 1
 274 68 l 1
 234 28 189 -8 164 -8 c 0
 86 -8 27 55 27 138 c 0
 27 179 50 213 85 221 c 2
 277 266 l 1x70
273 117 m 1
 275 211 l 1
 170 182 l 2
 154 177 147 167 147 150 c 0
 147 115 169 89 202 89 c 0
 222 89 251 101 273 117 c 1
372 673 m 1
 380 659 l 1
 368 583 l 1
 227 582 l 2
 168 582 88 581 88 581 c 1
 77 592 l 1
 91 668 l 1
 91 668 186 667 245 667 c 0x70
 295 667 372 673 372 673 c 1
EndSplineSet
Validated: 1
EndChar

StartChar: macron
Encoding: 175 175 140
Width: 398
Flags: MW
HStem: 580 21G<61 61> 581 85<188.5 200> 652 20G<345 345>
LayerCount: 2
Back
Fore
SplineSet
345 672 m 1xa0
 353 658 l 1
 341 582 l 1
 200 581 l 2x40
 141 581 61 580 61 580 c 1xa0
 50 591 l 1
 64 667 l 1
 64 667 159 666 218 666 c 0x40
 268 666 345 672 345 672 c 1xa0
EndSplineSet
Validated: 1
EndChar

StartChar: aogonek
Encoding: 261 261 141
Width: 479
Flags: MW
HStem: -241 71<379 383> -8 100 379 93
LayerCount: 2
Back
Fore
SplineSet
466 -146 m 1
 485 -174 l 1
 485 -174 432 -224 383 -241 c 1
 309 -241 263 -206 263 -149 c 0
 263 -111 285 -72 346 -8 c 1
 308 0 286 26 282 65 c 1
 274 68 l 1
 227 21 185 -8 164 -8 c 0
 86 -8 27 55 27 138 c 0
 27 179 50 213 85 221 c 2
 277 266 l 1
 278 289 l 2
 278 346 247 379 193 379 c 0
 134 379 76 332 76 332 c 1
 67 337 l 1
 49 397 l 1
 49 397 167 463 220 471 c 0
 232 473 242 473 252 472 c 0
 334 466 385 427 397 362 c 0
 400 349 401 336 399 310 c 0
 391 208 381 160 381 132 c 0
 381 108 395 92 417 92 c 0
 441 92 464 109 464 109 c 1
 482 84 l 1
 380 -33 344 -88 344 -122 c 0
 344 -150 364 -170 394 -170 c 0
 429 -170 466 -146 466 -146 c 1
273 117 m 1
 275 211 l 1
 170 182 l 2
 154 177 147 167 147 150 c 0
 147 114 170 89 202 89 c 0
 223 89 251 100 273 117 c 1
EndSplineSet
Validated: 33
EndChar

StartChar: aring
Encoding: 229 229 142
Width: 479
Flags: MW
HStem: -12 21G<353 383> -8 100 379 95<210 220> 544 53<221.5 238.5 221.5 255> 675 55<212 240>
LayerCount: 2
Back
Fore
SplineSet
277 266 m 1x78
 278 289 l 2
 278 346 247 379 193 379 c 0
 134 379 76 332 76 332 c 1
 67 337 l 1
 49 397 l 1
 49 397 186 474 234 474 c 0
 352 474 401 414 401 337 c 0
 401 303 381 176 381 132 c 0
 381 108 395 92 417 92 c 0x78
 441 92 464 109 464 109 c 1
 480 88 l 1
 480 88 431 2 383 -12 c 1xb8
 323 -12 288 15 282 65 c 1
 274 68 l 1
 234 28 189 -8 164 -8 c 0
 86 -8 27 55 27 138 c 0
 27 179 50 213 85 221 c 2
 277 266 l 1x78
273 117 m 1
 275 211 l 1
 170 182 l 2
 154 177 147 167 147 150 c 0
 147 115 169 89 202 89 c 0
 222 89 251 101 273 117 c 1
231 597 m 0
 246 597 271 602 271 634 c 0
 271 659 255 675 225 675 c 0
 199 675 186 661 186 640 c 0
 186 608 212 597 231 597 c 0
224 544 m 0
 167 544 136 581 136 635 c 0
 136 689 174 730 232 730 c 0
 297 730 321 687 321 644 c 0
 321 592 286 544 224 544 c 0
EndSplineSet
Validated: 1
EndChar

StartChar: ring
Encoding: 730 730 143
Width: 398
Flags: MW
HStem: 543 53<191.5 208.5 191.5 225> 674 55<182 210>
LayerCount: 2
Back
Fore
SplineSet
201 596 m 0
 216 596 241 601 241 633 c 0
 241 658 225 674 195 674 c 0
 169 674 156 660 156 639 c 0
 156 607 182 596 201 596 c 0
194 543 m 0
 137 543 106 580 106 634 c 0
 106 688 144 729 202 729 c 0
 267 729 291 686 291 643 c 0
 291 591 256 543 194 543 c 0
EndSplineSet
Validated: 1
EndChar

StartChar: atilde
Encoding: 227 227 144
Width: 479
Flags: MW
HStem: -12 21G<353 383> -8 100 379 95<210 220> 562 97<293.5 301.5 275.5 310> 596 63 596 96<148.5 157 140 175.5> 695 20G<355 366 366 366>
LayerCount: 2
Back
Fore
SplineSet
277 266 m 1x72
 278 289 l 2
 278 346 247 379 193 379 c 0
 134 379 76 332 76 332 c 1
 67 337 l 1
 49 397 l 1
 49 397 186 474 234 474 c 0
 352 474 401 414 401 337 c 0
 401 303 381 176 381 132 c 0
 381 108 395 92 417 92 c 0x6a
 441 92 464 109 464 109 c 1
 480 88 l 1
 480 88 431 2 383 -12 c 1xb2
 323 -12 288 15 282 65 c 1
 274 68 l 1
 234 28 189 -8 164 -8 c 0
 86 -8 27 55 27 138 c 0
 27 179 50 213 85 221 c 2
 277 266 l 1x72
273 117 m 1
 275 211 l 1
 170 182 l 2
 154 177 147 167 147 150 c 0
 147 115 169 89 202 89 c 0
 222 89 251 101 273 117 c 1
96 540 m 1
 85 540 l 1
 45 576 l 1
 45 587 l 1
 124 688 l 1
 140 692 l 1x66
 174 692 261 659 290 659 c 0
 313 659 355 715 355 715 c 1
 366 715 l 1
 405 678 l 1
 405 668 l 1
 327 566 l 1
 310 562 l 1x72
 277 562 190 596 161 596 c 0
 136 596 96 540 96 540 c 1
EndSplineSet
Validated: 1
EndChar

StartChar: tilde
Encoding: 732 732 145
Width: 398
Flags: MW
HStem: 539 21G<59 70 59 59> 561 97<267.5 275.5 249.5 284> 595 63 595 96<122.5 131 114 149.5> 694 20G<329 340 340 340>
LayerCount: 2
Back
Fore
SplineSet
70 539 m 1xa8
 59 539 l 1
 19 575 l 1
 19 586 l 1
 98 687 l 1
 114 691 l 1x98
 148 691 235 658 264 658 c 0
 287 658 329 714 329 714 c 1
 340 714 l 1
 379 677 l 1
 379 667 l 1
 301 565 l 1
 284 561 l 1xc8
 251 561 164 595 135 595 c 0
 110 595 70 539 70 539 c 1xa8
EndSplineSet
Validated: 1
EndChar

StartChar: b
Encoding: 98 98 146
Width: 514
Flags: MW
HStem: -10 83<244 289.5 244 310> 375 96<249 356.5> 632 20G<2 3.5> 633 20G<20 41> 722 20G<209 209>
LayerCount: 2
Back
Fore
SplineSet
67 597 m 2xe8
 67 639 57 653 25 653 c 0xd8
 15 653 5 652 2 652 c 2
 -2 656 l 1
 3 710 l 1
 96 722 209 742 209 742 c 1
 217 723 l 1
 204 708 195 590 190 406 c 1
 243 445 286 471 298 471 c 0
 415 471 488 386 488 250 c 0
 488 98 384 -10 236 -10 c 0
 156 -10 77 6 77 6 c 1
 67 16 l 1
 67 597 l 2xe8
185 88 m 1
 198 82 230 73 258 73 c 0
 321 73 358 123 358 212 c 0
 358 312 319 375 261 375 c 0
 237 375 207 361 188 343 c 1
 185 88 l 1
EndSplineSet
Validated: 1
EndChar

StartChar: c
Encoding: 99 99 147
Width: 432
Flags: MW
HStem: -12 101<232 276> 287 187 389 85<220.5 271>
LayerCount: 2
Back
Fore
SplineSet
373 118 m 1xa0
 381 115 l 1
 397 63 l 1
 397 63 306 -12 246 -12 c 0
 109 -12 25 76 25 219 c 0
 25 368 126 474 269 474 c 0
 344 474 396 453 396 453 c 1
 400 444 l 1
 400 444 383 373 378 289 c 1
 313 285 l 1
 313 318 l 2
 313 364 291 389 251 389 c 0
 190 389 158 343 158 257 c 0
 158 148 197 89 267 89 c 0
 322 89 373 118 373 118 c 1xa0
EndSplineSet
Validated: 8388609
EndChar

StartChar: cacute
Encoding: 263 263 148
Width: 432
Flags: MW
HStem: -12 101<232 276> 287 187 389 85<220.5 271> 717 20G<337 337>
LayerCount: 2
Back
Fore
SplineSet
373 118 m 1xb0
 381 115 l 1
 397 63 l 1
 397 63 306 -12 246 -12 c 0
 109 -12 25 76 25 219 c 0
 25 368 126 474 269 474 c 0
 344 474 396 453 396 453 c 1
 400 444 l 1
 400 444 383 373 378 289 c 1
 313 285 l 1
 313 318 l 2
 313 364 291 389 251 389 c 0
 190 389 158 343 158 257 c 0
 158 148 197 89 267 89 c 0
 322 89 373 118 373 118 c 1xb0
405 666 m 1
 404 652 l 1
 404 652 308 592 215 523 c 1
 200 527 l 1
 170 566 l 1
 252 646 337 737 337 737 c 1
 351 736 l 1
 405 666 l 1
EndSplineSet
Validated: 8388609
EndChar

StartChar: ccaron
Encoding: 269 269 149
Width: 432
Flags: MW
HStem: -12 101<232 276> 287 187 389 85<220.5 271> 704 20G<133 133 373 373>
LayerCount: 2
Back
Fore
SplineSet
373 118 m 1xb0
 381 115 l 1
 397 63 l 1
 397 63 306 -12 246 -12 c 0
 109 -12 25 76 25 219 c 0
 25 368 126 474 269 474 c 0
 344 474 396 453 396 453 c 1
 400 444 l 1
 400 444 383 373 378 289 c 1
 313 285 l 1
 313 318 l 2
 313 364 291 389 251 389 c 0
 190 389 158 343 158 257 c 0
 158 148 197 89 267 89 c 0
 322 89 373 118 373 118 c 1xb0
88 679 m 1
 118 721 l 1
 133 724 l 1
 178 689 226 657 254 639 c 1
 281 657 329 689 373 724 c 1
 389 721 l 1
 419 679 l 1
 345 609 263 521 263 521 c 1
 243 521 l 1
 243 521 161 609 88 679 c 1
EndSplineSet
Validated: 8388609
EndChar

StartChar: caron
Encoding: 711 711 150
Width: 398
Flags: MW
HStem: 521 21G<188 208 188 188> 704 20G<78 78 318 318>
LayerCount: 2
Back
Fore
SplineSet
33 679 m 1
 63 721 l 1
 78 724 l 1
 123 689 171 657 199 639 c 1
 226 657 274 689 318 724 c 1
 334 721 l 1
 364 679 l 1
 290 609 208 521 208 521 c 1
 188 521 l 1
 188 521 106 609 33 679 c 1
EndSplineSet
Validated: 1
EndChar

StartChar: ccedilla
Encoding: 231 231 151
Width: 432
Flags: MW
HStem: -237 50<223 249.5 223 252> -151 20G<177 186 186 186> 287 187 389 85<220.5 271>
LayerCount: 2
Back
Fore
SplineSet
192 -86 m 1xd0
 213 -10 l 1
 95 3 25 88 25 219 c 0
 25 368 126 474 269 474 c 0
 344 474 396 453 396 453 c 1
 400 444 l 1
 400 444 383 373 378 289 c 1
 313 285 l 1
 313 318 l 2
 313 364 291 389 251 389 c 0
 190 389 158 343 158 257 c 0
 158 148 197 89 267 89 c 0
 322 89 373 118 373 118 c 1
 381 115 l 1
 397 63 l 1
 397 63 323 2 265 -10 c 1
 255 -44 l 1
 293 -66 351 -100 351 -141 c 0
 351 -194 286 -237 218 -237 c 0
 184 -237 140 -221 140 -194 c 0
 140 -179 162 -149 177 -131 c 1
 186 -131 l 1
 187 -168 208 -187 238 -187 c 0
 261 -187 278 -175 278 -157 c 0
 278 -134 232 -107 192 -86 c 1xd0
EndSplineSet
Validated: 8388609
EndChar

StartChar: cdotaccent
Encoding: 267 267 152
Width: 432
Flags: MW
HStem: -12 101<232 276> 287 187 389 85<220.5 271> 574 152<234 272>
LayerCount: 2
Back
Fore
SplineSet
373 118 m 1xb0
 381 115 l 1
 397 63 l 1
 397 63 306 -12 246 -12 c 0
 109 -12 25 76 25 219 c 0
 25 368 126 474 269 474 c 0
 344 474 396 453 396 453 c 1
 400 444 l 1
 400 444 383 373 378 289 c 1
 313 285 l 1
 313 318 l 2
 313 364 291 389 251 389 c 0
 190 389 158 343 158 257 c 0
 158 148 197 89 267 89 c 0
 322 89 373 118 373 118 c 1xb0
248 574 m 0
 202 574 178 604 178 646 c 0
 178 693 210 726 258 726 c 0
 302 726 328 697 328 654 c 0
 328 607 296 574 248 574 c 0
EndSplineSet
Validated: 8388609
EndChar

StartChar: dotaccent
Encoding: 729 729 153
Width: 398
Flags: MW
HStem: 574 152<180 218>
LayerCount: 2
Back
Fore
SplineSet
194 574 m 0
 148 574 124 604 124 646 c 0
 124 693 156 726 204 726 c 0
 248 726 274 697 274 654 c 0
 274 607 242 574 194 574 c 0
EndSplineSet
Validated: 1
EndChar

StartChar: d
Encoding: 100 100 154
Width: 537
Flags: MW
HStem: -12 21G<408.5 438> -8 100 387 84<224 277.5> 471 180<281.5 286> 722 20G<468 468>
LayerCount: 2
Back
Fore
SplineSet
331 62 m 1xa8
 268 16 228 -8 216 -8 c 0
 99 -8 25 76 25 211 c 0
 25 362 131 471 278 471 c 0
 294 471 310 471 328 469 c 1
 328 595 l 2
 328 637 318 651 286 651 c 0
 277 651 262 648 262 648 c 1
 268 709 l 1
 364 721 468 742 468 742 c 1
 477 725 l 1
 460 699 446 430 446 133 c 0
 446 108 458 92 478 92 c 0x58
 502 92 523 109 523 109 c 1
 539 88 l 1
 539 88 494 7 438 -12 c 1
 379 -12 345 12 338 60 c 1
 331 62 l 1xa8
328 119 m 1
 328 370 l 1
 328 370 299 387 256 387 c 0x68
 192 387 156 337 156 248 c 0
 156 149 195 86 253 86 c 0
 290 86 328 119 328 119 c 1
EndSplineSet
Validated: 1
EndChar

StartChar: dcaron
Encoding: 271 271 155
Width: 606
Flags: MW
HStem: -12 21G<408.5 438> -8 100 387 84<224 277.5> 471 180<281.5 286> 722 20G<468 468>
LayerCount: 2
Back
Fore
SplineSet
616 701 m 1xa8
 624 691 l 1
 624 691 609 582 586 475 c 1
 538 456 l 1
 523 460 l 1
 526 575 515 687 515 687 c 1
 616 701 l 1xa8
331 62 m 1
 268 16 228 -8 216 -8 c 0
 99 -8 25 76 25 211 c 0
 25 362 131 471 278 471 c 0
 294 471 310 471 328 469 c 1
 328 595 l 2
 328 637 318 651 286 651 c 0
 277 651 262 648 262 648 c 1
 268 709 l 1
 364 721 468 742 468 742 c 1
 477 725 l 1
 460 699 446 430 446 133 c 0
 446 108 458 92 478 92 c 0x58
 502 92 523 109 523 109 c 1
 539 88 l 1
 539 88 494 7 438 -12 c 1
 379 -12 345 12 338 60 c 1
 331 62 l 1
328 119 m 1
 328 370 l 1
 328 370 299 387 256 387 c 0x68
 192 387 156 337 156 248 c 0
 156 149 195 86 253 86 c 0
 290 86 328 119 328 119 c 1
EndSplineSet
Validated: 33
EndChar

StartChar: dotlessi
Encoding: 305 305 156
Width: 293
Flags: MW
HStem: -11 21G<26 26> 0 62<124 244> 454 20G<223 223>
LayerCount: 2
Back
Fore
SplineSet
26 -11 m 1xa0
 34 53 l 1
 74 60 91 79 91 115 c 2
 91 329 l 2
 91 371 80 385 48 385 c 0
 40 385 25 382 25 382 c 1
 31 441 l 1
 123 453 223 474 223 474 c 1
 232 457 l 1
 218 428 208 284 208 106 c 0
 208 74 217 62 239 62 c 0
 249 62 268 64 268 64 c 1
 270 60 l 1
 260 -3 l 1
 260 -3 191 0 149 0 c 0x60
 99 0 26 -11 26 -11 c 1xa0
EndSplineSet
Validated: 1
EndChar

StartChar: e
Encoding: 101 101 157
Width: 463
Flags: MW
HStem: -12 98<243 288.5> 234 59 394 80<219.5 265.5>
LayerCount: 2
Back
Fore
SplineSet
155 290 m 1
 289 297 l 2
 304 299 308 303 308 320 c 0
 308 369 286 394 245 394 c 0
 194 394 161 358 155 290 c 1
412 234 m 1
 155 234 l 1
 155 225 l 1
 159 136 206 86 280 86 c 0
 343 86 400 116 400 116 c 1
 408 113 l 1
 424 62 l 1
 424 62 325 -12 252 -12 c 0
 111 -12 25 76 25 219 c 0
 25 364 126 474 263 474 c 0
 375 474 431 416 431 302 c 0
 431 273 424 245 424 245 c 1
 412 234 l 1
EndSplineSet
Validated: 1
EndChar

StartChar: eacute
Encoding: 233 233 158
Width: 463
Flags: MW
HStem: -12 98<243 288.5> 234 59 394 80<219.5 265.5> 717 20G<333 333>
LayerCount: 2
Back
Fore
SplineSet
155 290 m 1
 289 297 l 2
 304 299 308 303 308 320 c 0
 308 369 286 394 245 394 c 0
 194 394 161 358 155 290 c 1
412 234 m 1
 155 234 l 1
 155 225 l 1
 159 136 206 86 280 86 c 0
 343 86 400 116 400 116 c 1
 408 113 l 1
 424 62 l 1
 424 62 325 -12 252 -12 c 0
 111 -12 25 76 25 219 c 0
 25 364 126 474 263 474 c 0
 375 474 431 416 431 302 c 0
 431 273 424 245 424 245 c 1
 412 234 l 1
401 666 m 1
 400 652 l 1
 400 652 304 592 211 523 c 1
 196 527 l 1
 166 566 l 1
 248 646 333 737 333 737 c 1
 347 736 l 1
 401 666 l 1
EndSplineSet
Validated: 1
EndChar

StartChar: ecaron
Encoding: 283 283 159
Width: 463
Flags: MW
HStem: -12 98<243 288.5> 234 59 394 80<219.5 265.5> 704 20G<129 129 369 369>
LayerCount: 2
Back
Fore
SplineSet
155 290 m 1
 289 297 l 2
 304 299 308 303 308 320 c 0
 308 369 286 394 245 394 c 0
 194 394 161 358 155 290 c 1
412 234 m 1
 155 234 l 1
 155 225 l 1
 159 136 206 86 280 86 c 0
 343 86 400 116 400 116 c 1
 408 113 l 1
 424 62 l 1
 424 62 325 -12 252 -12 c 0
 111 -12 25 76 25 219 c 0
 25 364 126 474 263 474 c 0
 375 474 431 416 431 302 c 0
 431 273 424 245 424 245 c 1
 412 234 l 1
84 679 m 1
 114 721 l 1
 129 724 l 1
 174 689 222 657 250 639 c 1
 277 657 325 689 369 724 c 1
 385 721 l 1
 415 679 l 1
 341 609 259 521 259 521 c 1
 239 521 l 1
 239 521 157 609 84 679 c 1
EndSplineSet
Validated: 1
EndChar

StartChar: ecircumflex
Encoding: 234 234 160
Width: 463
Flags: MW
HStem: -12 98<243 288.5> 234 59 394 80<219.5 265.5> 710 20G<241 261 261 261>
LayerCount: 2
Back
Fore
SplineSet
155 290 m 1
 289 297 l 2
 304 299 308 303 308 320 c 0
 308 369 286 394 245 394 c 0
 194 394 161 358 155 290 c 1
412 234 m 1
 155 234 l 1
 155 225 l 1
 159 136 206 86 280 86 c 0
 343 86 400 116 400 116 c 1
 408 113 l 1
 424 62 l 1
 424 62 325 -12 252 -12 c 0
 111 -12 25 76 25 219 c 0
 25 364 126 474 263 474 c 0
 375 474 431 416 431 302 c 0
 431 273 424 245 424 245 c 1
 412 234 l 1
118 535 m 1
 89 576 l 1
 160 644 241 730 241 730 c 1
 261 730 l 1
 261 730 341 644 412 576 c 1
 383 535 l 1
 368 531 l 1
 325 565 277 596 251 614 c 1
 223 596 177 566 134 531 c 1
 118 535 l 1
EndSplineSet
Validated: 1
EndChar

StartChar: edieresis
Encoding: 235 235 161
Width: 463
Flags: MW
HStem: -12 98<243 288.5> 234 59 394 80<219.5 265.5> 563 128<143 175.5 321.5 354>
LayerCount: 2
Back
Fore
SplineSet
155 290 m 1
 289 297 l 2
 304 299 308 303 308 320 c 0
 308 369 286 394 245 394 c 0
 194 394 161 358 155 290 c 1
412 234 m 1
 155 234 l 1
 155 225 l 1
 159 136 206 86 280 86 c 0
 343 86 400 116 400 116 c 1
 408 113 l 1
 424 62 l 1
 424 62 325 -12 252 -12 c 0
 111 -12 25 76 25 219 c 0
 25 364 126 474 263 474 c 0
 375 474 431 416 431 302 c 0
 431 273 424 245 424 245 c 1
 412 234 l 1
334 563 m 0
 295 563 274 588 274 623 c 0
 274 663 301 691 342 691 c 0
 380 691 401 666 401 630 c 0
 401 591 374 563 334 563 c 0
155 563 m 0
 117 563 96 588 96 623 c 0
 96 663 123 691 163 691 c 0
 201 691 223 666 223 630 c 0
 223 591 196 563 155 563 c 0
EndSplineSet
Validated: 1
EndChar

StartChar: edotaccent
Encoding: 279 279 162
Width: 463
Flags: MW
HStem: -12 98<243 288.5> 234 59 394 80<219.5 265.5> 574 152<230 268>
LayerCount: 2
Back
Fore
SplineSet
155 290 m 1
 289 297 l 2
 304 299 308 303 308 320 c 0
 308 369 286 394 245 394 c 0
 194 394 161 358 155 290 c 1
412 234 m 1
 155 234 l 1
 155 225 l 1
 159 136 206 86 280 86 c 0
 343 86 400 116 400 116 c 1
 408 113 l 1
 424 62 l 1
 424 62 325 -12 252 -12 c 0
 111 -12 25 76 25 219 c 0
 25 364 126 474 263 474 c 0
 375 474 431 416 431 302 c 0
 431 273 424 245 424 245 c 1
 412 234 l 1
244 574 m 0
 198 574 174 604 174 646 c 0
 174 693 206 726 254 726 c 0
 298 726 324 697 324 654 c 0
 324 607 292 574 244 574 c 0
EndSplineSet
Validated: 1
EndChar

StartChar: egrave
Encoding: 232 232 163
Width: 463
Flags: MW
HStem: -12 98<243 288.5> 234 59 394 80<219.5 265.5> 716 20G<181 181>
LayerCount: 2
Back
Fore
SplineSet
155 290 m 1
 289 297 l 2
 304 299 308 303 308 320 c 0
 308 369 286 394 245 394 c 0
 194 394 161 358 155 290 c 1
412 234 m 1
 155 234 l 1
 155 225 l 1
 159 136 206 86 280 86 c 0
 343 86 400 116 400 116 c 1
 408 113 l 1
 424 62 l 1
 424 62 325 -12 252 -12 c 0
 111 -12 25 76 25 219 c 0
 25 364 126 474 263 474 c 0
 375 474 431 416 431 302 c 0
 431 273 424 245 424 245 c 1
 412 234 l 1
115 651 m 1
 114 665 l 1
 168 735 l 1
 181 736 l 1
 181 736 267 646 349 566 c 1
 319 527 l 1
 304 523 l 1
 211 592 115 651 115 651 c 1
EndSplineSet
Validated: 1
EndChar

StartChar: emacron
Encoding: 275 275 164
Width: 463
Flags: MW
HStem: -12 98<243 288.5> 234 59 394 80<219.5 265.5> 581 85<237.5 249> 652 20G<394 394>
LayerCount: 2
Back
Fore
SplineSet
155 290 m 1xe8
 289 297 l 2
 304 299 308 303 308 320 c 0
 308 369 286 394 245 394 c 0
 194 394 161 358 155 290 c 1xe8
412 234 m 1
 155 234 l 1
 155 225 l 1
 159 136 206 86 280 86 c 0
 343 86 400 116 400 116 c 1
 408 113 l 1
 424 62 l 1
 424 62 325 -12 252 -12 c 0
 111 -12 25 76 25 219 c 0
 25 364 126 474 263 474 c 0
 375 474 431 416 431 302 c 0
 431 273 424 245 424 245 c 1
 412 234 l 1
394 672 m 1
 402 658 l 1
 390 582 l 1
 249 581 l 2
 190 581 110 580 110 580 c 1
 99 591 l 1
 113 667 l 1
 113 667 208 666 267 666 c 0xf0
 317 666 394 672 394 672 c 1
EndSplineSet
Validated: 1
EndChar

StartChar: eng
Encoding: 331 331 165
Width: 548
Flags: MW
HStem: -154 21G<283 283> 0 63<123 241> 369 105<216 324.5>
LayerCount: 2
Back
Fore
SplineSet
346 474 m 0
 441 474 497 426 497 344 c 1
 481 93 l 2
 470 -46 420 -112 283 -154 c 1
 255 -113 l 1
 257 -102 l 1
 344 -48 364 -7 366 111 c 2
 367 282 l 2
 367 341 346 369 303 369 c 0
 272 369 236 346 217 332 c 1
 212 227 207 133 207 108 c 0
 207 74 215 63 237 63 c 0
 245 63 263 65 263 65 c 1
 266 60 l 1
 255 -3 l 1
 255 -3 189 0 149 0 c 0
 97 0 30 -6 30 -6 c 1
 38 58 l 1
 76 62 90 76 90 113 c 2
 90 323 l 2
 90 369 79 383 41 383 c 2
 28 383 l 1
 24 388 l 1
 30 441 l 1
 121 455 216 474 216 474 c 1
 224 464 l 1
 224 464 215 429 213 395 c 1
 217 391 l 1
 255 427 321 474 346 474 c 0
EndSplineSet
Validated: 1
EndChar

StartChar: eogonek
Encoding: 281 281 166
Width: 463
Flags: MW
HStem: -241 71<335 339> -12 98<243 261> 234 59 394 80<219.5 265.5>
LayerCount: 2
Back
Fore
SplineSet
422 -146 m 1
 441 -174 l 1
 441 -174 389 -224 339 -241 c 1
 267 -241 219 -207 219 -149 c 0
 219 -104 253 -60 309 -1 c 1
 289 -8 270 -12 252 -12 c 0
 111 -12 25 76 25 219 c 0
 25 364 126 474 263 474 c 0
 375 474 431 416 431 302 c 0
 431 273 424 245 424 245 c 1
 412 234 l 1
 155 234 l 1
 155 225 l 1
 159 136 206 86 280 86 c 0
 343 86 400 116 400 116 c 1
 408 113 l 1
 424 62 l 1
 334 -39 301 -78 301 -122 c 0
 301 -150 320 -170 350 -170 c 0
 385 -170 422 -146 422 -146 c 1
155 290 m 1
 289 297 l 2
 304 299 308 303 308 320 c 0
 308 369 286 394 245 394 c 0
 194 394 161 358 155 290 c 1
EndSplineSet
Validated: 1
EndChar

StartChar: eth
Encoding: 240 240 167
Width: 508
Flags: MW
HStem: -12 77<233 291 233 314> 375 88<220.5 232 175 271.5> 721 20G<82 82>
LayerCount: 2
Back
Fore
SplineSet
392 716 m 1
 401 711 l 1
 418 652 l 1
 311 599 l 1
 419 500 479 379 479 250 c 0
 479 94 384 -12 244 -12 c 0
 112 -12 29 74 29 210 c 0
 29 353 118 463 232 463 c 1
 255 459 284 442 290 439 c 1
 293 444 l 1
 274 482 249 518 216 550 c 1
 87 486 l 1
 78 489 l 1
 61 550 l 1
 160 599 l 1
 125 628 84 655 37 680 c 1
 69 736 l 1
 82 741 l 1
 145 714 202 682 251 646 c 1
 392 716 l 1
344 204 m 0
 344 258 339 305 329 349 c 1
 316 360 292 375 251 375 c 0
 190 375 162 337 162 233 c 0
 162 122 200 65 266 65 c 0
 316 65 344 112 344 204 c 0
EndSplineSet
Validated: 1
EndChar

StartChar: f
Encoding: 102 102 168
Width: 342
Flags: MW
HStem: -6 21G<31 31> 0 67<135 268> 383 67<214 251> 651 91<277.5 342.5>
LayerCount: 2
Back
Fore
SplineSet
28 386 m 1xb0
 24 392 l 1
 32 444 l 1
 93 454 l 1
 93 462 l 2
 94 634 192 742 345 742 c 0
 414 742 460 721 460 721 c 1
 465 705 l 1
 465 705 447 665 430 616 c 1
 417 613 l 1
 417 613 373 651 312 651 c 0
 243 651 217 608 216 496 c 2
 215 450 l 1
 287 450 343 453 343 453 c 1
 347 448 l 1
 336 380 l 1
 336 380 285 382 214 383 c 1
 212 113 l 2
 212 81 225 67 253 67 c 0
 283 67 314 69 314 69 c 1
 317 64 l 1
 308 -3 l 1
 308 -3 207 0 163 0 c 0x70
 107 0 31 -6 31 -6 c 1
 38 56 l 1
 77 61 93 78 93 113 c 2
 93 346 l 2
 91 377 79 384 28 386 c 1xb0
EndSplineSet
Validated: 1
EndChar

StartChar: g
Encoding: 103 103 169
Width: 512
Flags: MW
HStem: -242 75<231.5 290 231.5 291> 127 68<230 279.5 230 300.5> 399 76<221.5 271> 445 20G<343 358> 478 20G<499 499>
LayerCount: 2
Back
Fore
SplineSet
238 127 m 0xd8
 217 127 197 130 176 134 c 1
 159 123 150 110 150 100 c 0
 150 76 181 64 247 62 c 0
 426 57 488 27 488 -55 c 0
 488 -151 359 -242 223 -242 c 0
 114 -242 44 -187 44 -101 c 1
 72 -69 144 -28 144 -28 c 1
 144 -22 l 1
 81 -12 39 28 39 80 c 1
 69 112 123 148 123 148 c 1
 123 155 l 1
 75 182 48 231 48 292 c 0
 48 396 136 475 256 475 c 0xe8
 298 475 328 465 358 465 c 0
 408 469 499 498 499 498 c 1
 505 493 l 1
 492 416 l 1
 492 416 456 411 419 410 c 1
 415 404 l 1
 441 376 454 343 454 306 c 0
 454 202 363 127 238 127 c 0xd8
256 195 m 0
 303 195 330 228 330 292 c 0
 330 360 298 399 244 399 c 0
 199 399 173 364 173 301 c 0
 173 234 204 195 256 195 c 0
259 -167 m 0
 321 -167 373 -133 373 -94 c 0
 373 -63 353 -55 206 -34 c 1
 206 -34 169 -67 169 -102 c 0
 169 -141 204 -167 259 -167 c 0
EndSplineSet
Validated: 1
EndChar

StartChar: gbreve
Encoding: 287 287 170
Width: 512
Flags: MW
HStem: -242 75<231.5 290 231.5 291> 127 68<230 279.5 230 300.5> 399 76<221.5 271> 445 20G<343 358> 547 95<233.5 278.5 233.5 298.5> 690 20G<153 153 359 359>
LayerCount: 2
Back
Fore
SplineSet
238 127 m 0xdc
 217 127 197 130 176 134 c 1
 159 123 150 110 150 100 c 0
 150 76 181 64 247 62 c 0
 426 57 488 27 488 -55 c 0
 488 -151 359 -242 223 -242 c 0
 114 -242 44 -187 44 -101 c 1
 72 -69 144 -28 144 -28 c 1
 144 -22 l 1
 81 -12 39 28 39 80 c 1
 69 112 123 148 123 148 c 1
 123 155 l 1
 75 182 48 231 48 292 c 0
 48 396 136 475 256 475 c 0xec
 298 475 328 465 358 465 c 0
 408 469 499 498 499 498 c 1
 505 493 l 1
 492 416 l 1
 492 416 456 411 419 410 c 1
 415 404 l 1
 441 376 454 343 454 306 c 0
 454 202 363 127 238 127 c 0xdc
256 195 m 0
 303 195 330 228 330 292 c 0
 330 360 298 399 244 399 c 0
 199 399 173 364 173 301 c 0
 173 234 204 195 256 195 c 0
259 -167 m 0
 321 -167 373 -133 373 -94 c 0
 373 -63 353 -55 206 -34 c 1
 206 -34 169 -67 169 -102 c 0
 169 -141 204 -167 259 -167 c 0
256 642 m 0
 301 642 341 664 359 710 c 1
 376 706 l 1
 404 672 l 1
 386 609 341 547 256 547 c 0
 171 547 126 609 108 672 c 1
 136 706 l 1
 153 710 l 1
 171 664 211 642 256 642 c 0
EndSplineSet
Validated: 1
EndChar

StartChar: gdotaccent
Encoding: 289 289 171
Width: 512
Flags: MW
HStem: -242 75<231.5 290 231.5 291> 127 68<230 279.5 230 300.5> 399 76<221.5 271> 445 20G<343 358> 574 152<237 275>
LayerCount: 2
Back
Fore
SplineSet
238 127 m 0xd8
 217 127 197 130 176 134 c 1
 159 123 150 110 150 100 c 0
 150 76 181 64 247 62 c 0
 426 57 488 27 488 -55 c 0
 488 -151 359 -242 223 -242 c 0
 114 -242 44 -187 44 -101 c 1
 72 -69 144 -28 144 -28 c 1
 144 -22 l 1
 81 -12 39 28 39 80 c 1
 69 112 123 148 123 148 c 1
 123 155 l 1
 75 182 48 231 48 292 c 0
 48 396 136 475 256 475 c 0xe8
 298 475 328 465 358 465 c 0
 408 469 499 498 499 498 c 1
 505 493 l 1
 492 416 l 1
 492 416 456 411 419 410 c 1
 415 404 l 1
 441 376 454 343 454 306 c 0
 454 202 363 127 238 127 c 0xd8
256 195 m 0
 303 195 330 228 330 292 c 0
 330 360 298 399 244 399 c 0
 199 399 173 364 173 301 c 0
 173 234 204 195 256 195 c 0
259 -167 m 0
 321 -167 373 -133 373 -94 c 0
 373 -63 353 -55 206 -34 c 1
 206 -34 169 -67 169 -102 c 0
 169 -141 204 -167 259 -167 c 0
251 574 m 0
 205 574 181 604 181 646 c 0
 181 693 213 726 261 726 c 0
 305 726 331 697 331 654 c 0
 331 607 299 574 251 574 c 0
EndSplineSet
Validated: 1
EndChar

StartChar: germandbls
Encoding: 223 223 172
Width: 639
Flags: MW
HStem: -12 79 0 67<139.5 256.5> 651 91<277.5 342.5>
LayerCount: 2
Back
Fore
SplineSet
302 47 m 1xa0
 303 76 326 132 345 157 c 1
 365 156 l 1
 368 103 401 68 450 68 c 0
 483 68 509 95 509 129 c 0
 509 220 299 225 299 368 c 0
 299 459 413 497 413 568 c 0
 413 618 373 651 312 651 c 0
 243 651 216 609 216 496 c 2
 212 113 l 2
 211 83 223 67 245 67 c 0
 268 67 282 68 282 68 c 1
 285 64 l 1
 276 -3 l 1
 276 -3 199 0 163 0 c 0x60
 116 0 31 -5 31 -6 c 2
 38 56 l 1
 81 61 93 77 93 120 c 2
 93 346 l 2
 91 376 79 384 28 386 c 1
 24 392 l 1
 32 444 l 1
 93 454 l 1
 93 635 187 742 345 742 c 0
 454 742 533 683 533 601 c 0
 533 501 421 466 421 398 c 0
 421 315 635 307 635 156 c 0
 635 62 548 -12 435 -12 c 0
 367 -12 310 13 302 47 c 1xa0
EndSplineSet
Validated: 37
EndChar

StartChar: h
Encoding: 104 104 173
Width: 544
Flags: MW
HStem: -8 21G<291 291> 0 62<103.5 224.5> 369 105<265 374.5> 632 20G<7 30 7 7> 722 20G<214 214>
LayerCount: 2
Back
Fore
SplineSet
17 -3 m 1x78
 25 59 l 1
 61 63 72 76 72 113 c 2
 72 597 l 2
 72 638 62 652 30 652 c 2
 7 652 l 1
 2 657 l 1
 8 710 l 1
 101 722 214 742 214 742 c 1
 221 723 l 1
 208 707 198 579 193 387 c 1
 222 414 296 474 326 474 c 0
 423 474 477 428 477 344 c 0
 477 305 458 158 458 109 c 0
 458 75 466 62 489 62 c 0
 500 62 519 63 519 63 c 1
 521 59 l 1
 512 -3 l 1
 512 -3 442 0 403 0 c 0x78
 364 0 291 -8 291 -8 c 1xb8
 297 55 l 1
 329 63 342 78 343 111 c 2
 347 282 l 2
 347 341 326 369 283 369 c 0
 247 369 207 339 192 328 c 1
 191 259 190 184 190 107 c 0
 190 74 198 62 220 62 c 0
 229 62 245 64 245 64 c 1
 247 58 l 1
 237 -3 l 1
 237 -3 169 0 128 0 c 0
 79 0 17 -3 17 -3 c 1x78
EndSplineSet
Validated: 1
EndChar

StartChar: hbar
Encoding: 295 295 174
Width: 547
Flags: MW
HStem: -8 21G<294 294> 0 62<106.5 227.5> 369 105<268 377.5> 474 42 516 55<54 75> 571 81<10 75> 722 20G<217 217>
LayerCount: 2
Back
Fore
SplineSet
20 -3 m 1x6a
 28 59 l 1
 64 63 75 76 75 113 c 2
 75 516 l 1x6a
 33 515 -3 515 -3 515 c 1
 -13 524 l 1
 -5 572 l 1
 -5 572 33 571 75 571 c 1
 75 597 l 2
 75 638 65 652 33 652 c 2
 10 652 l 1
 5 657 l 1
 11 710 l 1
 104 722 217 742 217 742 c 1
 224 723 l 1
 216 713 209 658 203 571 c 1x66
 244 573 285 576 285 576 c 1
 299 562 l 1
 295 516 l 1
 200 516 l 1
 198 477 197 434 196 387 c 1
 225 414 299 474 329 474 c 0
 426 474 480 428 480 344 c 0
 480 305 461 158 461 109 c 0
 461 75 469 62 492 62 c 0
 503 62 522 63 522 63 c 1
 524 59 l 1
 515 -3 l 1
 515 -3 445 0 406 0 c 0x56
 367 0 294 -8 294 -8 c 1xaa
 300 55 l 1
 332 63 345 78 346 111 c 2
 350 282 l 2
 350 341 329 369 286 369 c 0
 250 369 210 339 195 328 c 1
 194 259 193 184 193 107 c 0
 193 74 201 62 223 62 c 0
 232 62 248 64 248 64 c 1
 250 58 l 1
 240 -3 l 1
 240 -3 172 0 131 0 c 0
 82 0 20 -3 20 -3 c 1x6a
EndSplineSet
Validated: 1
EndChar

StartChar: i
Encoding: 105 105 175
Width: 293
Flags: MW
HStem: -11 21G<26 26> 0 62<124 244> 574 152<133.5 171.5>
LayerCount: 2
Back
Fore
SplineSet
148 574 m 0xa0
 104 574 78 601 78 646 c 0
 78 694 110 726 157 726 c 0
 200 726 228 699 228 654 c 0
 228 606 195 574 148 574 c 0xa0
26 -11 m 1
 34 53 l 1
 74 60 91 79 91 115 c 2
 91 329 l 2
 91 371 80 385 48 385 c 0
 40 385 25 382 25 382 c 1
 31 441 l 1
 123 453 223 474 223 474 c 1
 232 457 l 1
 218 428 208 284 208 106 c 0
 208 74 217 62 239 62 c 0
 249 62 268 64 268 64 c 1
 270 60 l 1
 260 -3 l 1
 260 -3 191 0 149 0 c 0x60
 99 0 26 -11 26 -11 c 1
EndSplineSet
Validated: 1
EndChar

StartChar: ij
Encoding: 307 307 176
Width: 568
Flags: MW
HStem: -244 21G<332 332> 0 62<124 244> 574 152<133.5 171.5 419 457.5>
LayerCount: 2
Back
Fore
SplineSet
148 574 m 0
 104 574 78 601 78 646 c 0
 78 694 110 726 157 726 c 0
 200 726 228 699 228 654 c 0
 228 606 195 574 148 574 c 0
26 -11 m 1
 34 53 l 1
 74 60 91 79 91 115 c 2
 91 329 l 2
 91 371 80 385 48 385 c 0
 40 385 25 382 25 382 c 1
 31 441 l 1
 123 453 223 474 223 474 c 1
 232 457 l 1
 218 428 208 284 208 106 c 0
 208 74 217 62 239 62 c 0
 249 62 268 64 268 64 c 1
 270 60 l 1
 260 -3 l 1
 260 -3 191 0 149 0 c 0
 99 0 26 -11 26 -11 c 1
332 -244 m 1
 300 -214 l 1
 302 -202 l 1
 359 -146 375 -93 375 36 c 2
 375 329 l 2
 375 372 366 385 339 385 c 0
 325 385 309 382 309 382 c 1
 315 440 l 1
 396 452 506 474 506 474 c 1
 515 457 l 1
 501 427 493 266 493 -14 c 0
 493 -108 432 -194 332 -244 c 1
434 574 m 0
 389 574 363 601 363 646 c 0
 363 694 395 726 443 726 c 0
 486 726 513 699 513 654 c 0
 513 606 481 574 434 574 c 0
EndSplineSet
Validated: 1
EndChar

StartChar: j
Encoding: 106 106 177
Width: 274
Flags: MW
HStem: -244 21G<39 39> 574 152<126 164.5>
LayerCount: 2
Back
Fore
SplineSet
39 -244 m 1
 7 -214 l 1
 9 -202 l 1
 66 -146 82 -93 82 36 c 2
 82 329 l 2
 82 372 73 385 46 385 c 0
 32 385 16 382 16 382 c 1
 22 440 l 1
 103 452 213 474 213 474 c 1
 222 457 l 1
 208 427 200 266 200 -14 c 0
 200 -108 139 -194 39 -244 c 1
141 574 m 0
 96 574 70 601 70 646 c 0
 70 694 102 726 150 726 c 0
 193 726 220 699 220 654 c 0
 220 606 188 574 141 574 c 0
EndSplineSet
Validated: 1
EndChar

StartChar: iogonek
Encoding: 303 303 178
Width: 293
Flags: MW
HStem: -237 71<177 180> 0 62 574 152<133.5 171.5>
LayerCount: 2
Back
Fore
SplineSet
26 -11 m 1
 34 53 l 1
 74 60 91 79 91 115 c 2
 91 329 l 2
 91 371 80 385 48 385 c 0
 40 385 25 382 25 382 c 1
 31 441 l 1
 123 453 223 474 223 474 c 1
 232 457 l 1
 218 428 208 284 208 106 c 0
 208 74 217 62 239 62 c 0
 249 62 268 64 268 64 c 1
 270 60 l 1
 260 -3 l 1
 260 -3 235 -2 207 -1 c 1
 159 -58 142 -86 142 -118 c 0
 142 -146 162 -166 192 -166 c 0
 227 -166 264 -142 264 -142 c 1
 282 -171 l 1
 282 -171 230 -220 180 -237 c 1
 108 -237 61 -203 61 -146 c 0
 61 -102 92 -59 148 0 c 1
 98 0 26 -11 26 -11 c 1
148 574 m 0
 104 574 78 601 78 646 c 0
 78 694 110 726 157 726 c 0
 200 726 228 699 228 654 c 0
 228 606 195 574 148 574 c 0
EndSplineSet
Validated: 1
EndChar

StartChar: k
Encoding: 107 107 179
Width: 519
Flags: MW
HStem: 0 61 442 20G<374 422> 631 20G<5 44 5 10> 722 20G<214 214>
LayerCount: 2
Back
Fore
SplineSet
17 -6 m 1
 24 57 l 1
 68 63 72 82 72 134 c 2
 72 597 l 2
 72 631 64 647 44 651 c 0
 33 653 15 651 5 651 c 1
 3 664 l 1
 8 710 l 1
 101 722 214 742 214 742 c 1
 221 723 l 1
 203 701 190 440 190 106 c 0
 190 73 198 61 220 61 c 0
 228 61 246 63 246 63 c 1
 248 57 l 1
 237 -4 l 1
 237 -4 168 0 128 0 c 0
 79 0 17 -6 17 -6 c 1
305 68 m 2
 205 236 l 1
 208 258 l 1
 304 354 l 2
 320 370 325 378 325 388 c 0
 325 403 311 408 273 408 c 1
 270 413 l 1
 279 464 l 1
 279 464 349 462 399 462 c 0
 445 462 507 466 507 466 c 1
 510 461 l 1
 501 404 l 1
 438 380 378 314 324 261 c 1
 408 131 l 2
 441 83 471 60 510 57 c 1
 514 49 l 1
 507 -1 l 1
 507 -1 458 -12 434 -13 c 0
 416 -14 399 -12 390 -10 c 0
 355 -2 334 18 305 68 c 2
EndSplineSet
Validated: 33
EndChar

StartChar: kcommaaccent
Encoding: 311 311 180
Width: 519
Flags: MW
HStem: -318 21G<199 199> 0 21G<103.5 148> 442 20G<374 422> 631 20G<5 44 5 10> 722 20G<214 214>
LayerCount: 2
Back
Fore
SplineSet
17 -6 m 1
 24 57 l 1
 68 63 72 82 72 134 c 2
 72 597 l 2
 72 631 64 647 44 651 c 0
 33 653 15 651 5 651 c 1
 3 664 l 1
 8 710 l 1
 101 722 214 742 214 742 c 1
 221 723 l 1
 203 701 190 440 190 106 c 0
 190 73 198 61 220 61 c 0
 228 61 246 63 246 63 c 1
 248 57 l 1
 237 -4 l 1
 237 -4 168 0 128 0 c 0
 79 0 17 -6 17 -6 c 1
305 68 m 2
 205 236 l 1
 208 258 l 1
 304 354 l 2
 320 370 325 378 325 388 c 0
 325 403 311 408 273 408 c 1
 270 413 l 1
 279 464 l 1
 279 464 349 462 399 462 c 0
 445 462 507 466 507 466 c 1
 510 461 l 1
 501 404 l 1
 438 380 378 314 324 261 c 1
 408 131 l 2
 441 83 471 60 510 57 c 1
 514 49 l 1
 507 -1 l 1
 507 -1 458 -12 434 -13 c 0
 416 -14 399 -12 390 -10 c 0
 355 -2 334 18 305 68 c 2
195 -100 m 1
 198 -86 l 1
 222 -67 252 -51 277 -51 c 0
 317 -51 346 -84 346 -137 c 0
 346 -208 277 -275 199 -318 c 1
 162 -288 l 1
 162 -271 l 1
 201 -244 230 -203 230 -169 c 0
 230 -142 215 -116 195 -100 c 1
EndSplineSet
Validated: 33
EndChar

StartChar: l
Encoding: 108 108 181
Width: 265
Flags: MW
HStem: -9 21G<15 15> 0 61<105 223.5> 631 20G<5 44 5 10> 722 20G<214 214>
LayerCount: 2
Back
Fore
SplineSet
15 -9 m 1xb0
 23 54 l 1
 69 64 72 84 72 134 c 2
 72 597 l 2
 72 631 64 647 44 651 c 0
 33 653 15 651 5 651 c 1
 3 664 l 1
 8 710 l 1
 101 722 214 742 214 742 c 1
 221 723 l 1
 203 701 190 439 190 106 c 0
 190 73 198 61 219 61 c 0
 228 61 253 63 253 63 c 1
 255 57 l 1
 245 -3 l 1
 245 -3 170 0 130 0 c 0x70
 80 0 15 -9 15 -9 c 1xb0
EndSplineSet
Validated: 33
EndChar

StartChar: lacute
Encoding: 314 314 182
Width: 265
Flags: MW
HStem: -9 21G<15 15> 0 61<105 223.5> 631 20G<5 44 5 10> 956 20G<220 220>
LayerCount: 2
Back
Fore
SplineSet
15 -9 m 1xb0
 23 54 l 1
 69 64 72 84 72 134 c 2
 72 597 l 2
 72 631 64 647 44 651 c 0
 33 653 15 651 5 651 c 1
 3 664 l 1
 8 710 l 1
 101 722 214 742 214 742 c 1
 221 723 l 1
 203 701 190 439 190 106 c 0
 190 73 198 61 219 61 c 0
 228 61 253 63 253 63 c 1
 255 57 l 1
 245 -3 l 1
 245 -3 170 0 130 0 c 0x70
 80 0 15 -9 15 -9 c 1xb0
288 905 m 1xb0
 287 891 l 1
 287 891 191 831 98 762 c 1
 83 766 l 1
 53 805 l 1
 135 885 220 976 220 976 c 1
 234 975 l 1
 288 905 l 1xb0
EndSplineSet
Validated: 33
EndChar

StartChar: lcaron
Encoding: 318 318 183
Width: 364
Flags: MW
HStem: -9 21G<15 15> 0 61<105 223.5> 631 20G<5 44 5 10> 722 20G<214 214>
LayerCount: 2
Back
Fore
SplineSet
356 692 m 1xb0
 364 682 l 1
 364 682 349 573 325 466 c 1
 277 447 l 1
 262 451 l 1
 265 565 255 678 255 678 c 1
 356 692 l 1xb0
15 -9 m 1
 23 54 l 1
 69 64 72 84 72 134 c 2
 72 597 l 2
 72 631 64 647 44 651 c 0
 33 653 15 651 5 651 c 1
 3 664 l 1
 8 710 l 1
 101 722 214 742 214 742 c 1
 221 723 l 1
 203 701 190 439 190 106 c 0
 190 73 198 61 219 61 c 0
 228 61 253 63 253 63 c 1
 255 57 l 1
 245 -3 l 1
 245 -3 170 0 130 0 c 0x70
 80 0 15 -9 15 -9 c 1
EndSplineSet
Validated: 33
EndChar

StartChar: lcommaaccent
Encoding: 316 316 184
Width: 265
Flags: MW
HStem: -318 21G<59 59> -51 51<124.5 150 105 157> 0 61<105 223.5> 631 20G<5 44 5 10> 722 20G<214 214>
LayerCount: 2
Back
Fore
SplineSet
15 -9 m 1xb8
 23 54 l 1
 69 64 72 84 72 134 c 2
 72 597 l 2
 72 631 64 647 44 651 c 0
 33 653 15 651 5 651 c 1
 3 664 l 1
 8 710 l 1
 101 722 214 742 214 742 c 1
 221 723 l 1
 203 701 190 439 190 106 c 0
 190 73 198 61 219 61 c 0
 228 61 253 63 253 63 c 1
 255 57 l 1
 245 -3 l 1
 245 -3 170 0 130 0 c 0
 80 0 15 -9 15 -9 c 1xb8
55 -100 m 1
 58 -86 l 1
 82 -67 112 -51 137 -51 c 0xd8
 177 -51 206 -84 206 -137 c 0
 206 -208 137 -275 59 -318 c 1
 22 -288 l 1
 22 -271 l 1
 61 -244 90 -203 90 -169 c 0
 90 -142 75 -116 55 -100 c 1
EndSplineSet
Validated: 33
EndChar

StartChar: ldot
Encoding: 320 320 185
Width: 394
Flags: MW
HStem: -9 21G<15 15> 0 61<105 223.5> 212 158<292 336> 631 20G<5 44 5 10> 722 20G<214 214>
LayerCount: 2
Back
Fore
SplineSet
15 -9 m 1xb8
 23 54 l 1
 69 64 72 84 72 134 c 2
 72 597 l 2
 72 631 64 647 44 651 c 0
 33 653 15 651 5 651 c 1
 3 664 l 1
 8 710 l 1
 101 722 214 742 214 742 c 1
 221 723 l 1
 203 701 190 439 190 106 c 0
 190 73 198 61 219 61 c 0
 228 61 253 63 253 63 c 1
 255 57 l 1
 245 -3 l 1
 245 -3 170 0 130 0 c 0x78
 80 0 15 -9 15 -9 c 1xb8
311 212 m 0xb8
 261 212 236 243 236 288 c 0
 236 336 267 370 317 370 c 0
 365 370 392 339 392 294 c 0
 392 246 361 212 311 212 c 0xb8
EndSplineSet
Validated: 33
EndChar

StartChar: lslash
Encoding: 322 322 186
Width: 296
Flags: MW
HStem: -9 21G<29 29> 0 61<119 237.5> 631 20G<19 58 19 24> 722 20G<228 228>
LayerCount: 2
Back
Fore
SplineSet
29 -9 m 1xb0
 37 54 l 1
 83 64 86 84 86 134 c 2
 86 307 l 1
 26 276 l 1
 17 278 l 1
 -1 340 l 1
 86 385 l 1
 86 597 l 2
 86 631 78 647 58 651 c 0
 47 653 29 651 19 651 c 1
 17 664 l 1
 22 710 l 1
 115 722 228 742 228 742 c 1
 235 723 l 1
 223 709 214 600 209 437 c 1
 269 469 l 1
 277 465 l 1
 295 404 l 1
 207 358 l 1
 205 281 204 196 204 106 c 0
 204 73 212 61 233 61 c 0
 242 61 267 63 267 63 c 1
 269 57 l 1
 259 -3 l 1
 259 -3 184 0 144 0 c 0x70
 94 0 29 -9 29 -9 c 1xb0
EndSplineSet
Validated: 33
EndChar

StartChar: m
Encoding: 109 109 187
Width: 839
Flags: MW
HStem: -8 21G<312 312> 0 62<404.5 515.5> 369 105<216 324.5>
LayerCount: 2
Back
Fore
SplineSet
312 -8 m 1xa0
 318 55 l 1
 350 63 363 78 364 111 c 2
 367 282 l 2
 367 341 346 369 303 369 c 0
 270 369 234 344 217 331 c 1
 213 259 207 136 207 108 c 0
 207 74 215 63 237 63 c 0
 245 63 263 65 263 65 c 1
 266 60 l 1
 255 -3 l 1
 255 -3 189 0 149 0 c 0
 97 0 30 -3 30 -3 c 1
 38 60 l 1
 77 63 90 76 90 113 c 2
 90 323 l 2
 90 369 79 383 41 383 c 2
 28 383 l 1
 24 388 l 1
 30 441 l 1
 121 455 216 474 216 474 c 1
 224 464 l 1
 224 464 215 429 213 395 c 1
 216 392 l 1
 250 420 321 474 346 474 c 0
 422 474 471 445 488 390 c 1
 517 416 594 474 620 474 c 0
 716 474 771 426 771 344 c 0
 771 305 753 158 753 109 c 0
 753 74 762 62 785 62 c 0
 796 62 815 63 815 63 c 1
 817 59 l 1
 807 -3 l 1
 807 -3 736 0 697 0 c 0
 658 0 589 -5 589 -5 c 1
 595 59 l 1
 626 63 637 76 638 111 c 2
 641 282 l 2
 641 341 621 369 577 369 c 0
 545 369 510 346 493 333 c 1
 480 109 l 2
 480 75 488 62 510 62 c 0
 521 62 538 63 538 63 c 1
 540 59 l 1
 530 -3 l 1
 530 -3 462 0 424 0 c 0x60
 385 0 312 -8 312 -8 c 1xa0
EndSplineSet
Validated: 1
EndChar

StartChar: n
Encoding: 110 110 188
Width: 570
Flags: MW
HStem: -8 21G<312 312> 0 62<404.5 515.5> 369 105<216 324.5>
LayerCount: 2
Back
Fore
SplineSet
312 -8 m 1xa0
 318 55 l 1
 350 63 363 78 364 111 c 2
 367 282 l 2
 367 341 346 369 303 369 c 0
 270 369 234 344 217 332 c 1
 213 259 207 136 207 108 c 0
 207 74 215 63 237 63 c 0
 245 63 263 65 263 65 c 1
 266 60 l 1
 255 -3 l 1
 255 -3 189 0 149 0 c 0
 97 0 30 -6 30 -6 c 1
 38 58 l 1
 76 62 90 76 90 113 c 2
 90 323 l 2
 90 369 79 383 41 383 c 2
 28 383 l 1
 24 388 l 1
 30 441 l 1
 121 455 216 474 216 474 c 1
 224 464 l 1
 224 464 215 429 213 395 c 1
 217 391 l 1
 249 419 319 474 346 474 c 0
 441 474 497 426 497 344 c 0
 497 305 479 158 479 109 c 0
 479 75 487 62 510 62 c 0
 521 62 540 63 540 63 c 1
 542 59 l 1
 533 -3 l 1
 533 -3 462 0 424 0 c 0x60
 385 0 312 -8 312 -8 c 1xa0
EndSplineSet
Validated: 1
EndChar

StartChar: nacute
Encoding: 324 324 189
Width: 570
Flags: MW
HStem: -8 21G<312 312> 0 62<404.5 515.5> 369 105<216 324.5> 717 20G<383 383>
LayerCount: 2
Back
Fore
SplineSet
312 -8 m 1xb0
 318 55 l 1
 350 63 363 78 364 111 c 2
 367 282 l 2
 367 341 346 369 303 369 c 0
 270 369 234 344 217 332 c 1
 213 259 207 136 207 108 c 0
 207 74 215 63 237 63 c 0
 245 63 263 65 263 65 c 1
 266 60 l 1
 255 -3 l 1
 255 -3 189 0 149 0 c 0
 97 0 30 -6 30 -6 c 1
 38 58 l 1
 76 62 90 76 90 113 c 2
 90 323 l 2
 90 369 79 383 41 383 c 2
 28 383 l 1
 24 388 l 1
 30 441 l 1
 121 455 216 474 216 474 c 1
 224 464 l 1
 224 464 215 429 213 395 c 1
 217 391 l 1
 249 419 319 474 346 474 c 0
 441 474 497 426 497 344 c 0
 497 305 479 158 479 109 c 0
 479 75 487 62 510 62 c 0
 521 62 540 63 540 63 c 1
 542 59 l 1
 533 -3 l 1
 533 -3 462 0 424 0 c 0x70
 385 0 312 -8 312 -8 c 1xb0
451 666 m 1xb0
 450 652 l 1
 450 652 354 592 261 523 c 1
 246 527 l 1
 216 566 l 1
 298 646 383 737 383 737 c 1
 397 736 l 1
 451 666 l 1xb0
EndSplineSet
Validated: 1
EndChar

StartChar: ncaron
Encoding: 328 328 190
Width: 570
Flags: MW
HStem: -8 21G<312 312> 0 62<404.5 515.5> 369 105<216 324.5> 704 20G<179 179 419 419>
LayerCount: 2
Back
Fore
SplineSet
312 -8 m 1xb0
 318 55 l 1
 350 63 363 78 364 111 c 2
 367 282 l 2
 367 341 346 369 303 369 c 0
 270 369 234 344 217 332 c 1
 213 259 207 136 207 108 c 0
 207 74 215 63 237 63 c 0
 245 63 263 65 263 65 c 1
 266 60 l 1
 255 -3 l 1
 255 -3 189 0 149 0 c 0
 97 0 30 -6 30 -6 c 1
 38 58 l 1
 76 62 90 76 90 113 c 2
 90 323 l 2
 90 369 79 383 41 383 c 2
 28 383 l 1
 24 388 l 1
 30 441 l 1
 121 455 216 474 216 474 c 1
 224 464 l 1
 224 464 215 429 213 395 c 1
 217 391 l 1
 249 419 319 474 346 474 c 0
 441 474 497 426 497 344 c 0
 497 305 479 158 479 109 c 0
 479 75 487 62 510 62 c 0
 521 62 540 63 540 63 c 1
 542 59 l 1
 533 -3 l 1
 533 -3 462 0 424 0 c 0x70
 385 0 312 -8 312 -8 c 1xb0
134 679 m 1xb0
 164 721 l 1
 179 724 l 1
 224 689 272 657 300 639 c 1
 327 657 375 689 419 724 c 1
 435 721 l 1
 465 679 l 1
 391 609 309 521 309 521 c 1
 289 521 l 1
 289 521 207 609 134 679 c 1xb0
EndSplineSet
Validated: 1
EndChar

StartChar: ncommaaccent
Encoding: 326 326 191
Width: 570
Flags: MW
HStem: -318 21G<212 212> -51 51 0 62<404.5 515.5> 369 105<216 324.5>
LayerCount: 2
Back
Fore
SplineSet
312 -8 m 1xb0
 318 55 l 1
 350 63 363 78 364 111 c 2
 367 282 l 2
 367 341 346 369 303 369 c 0
 270 369 234 344 217 332 c 1
 213 259 207 136 207 108 c 0
 207 74 215 63 237 63 c 0
 245 63 263 65 263 65 c 1
 266 60 l 1
 255 -3 l 1
 255 -3 189 0 149 0 c 0
 97 0 30 -6 30 -6 c 1
 38 58 l 1
 76 62 90 76 90 113 c 2
 90 323 l 2
 90 369 79 383 41 383 c 2
 28 383 l 1
 24 388 l 1
 30 441 l 1
 121 455 216 474 216 474 c 1
 224 464 l 1
 224 464 215 429 213 395 c 1
 217 391 l 1
 249 419 319 474 346 474 c 0
 441 474 497 426 497 344 c 0
 497 305 479 158 479 109 c 0
 479 75 487 62 510 62 c 0
 521 62 540 63 540 63 c 1
 542 59 l 1
 533 -3 l 1
 533 -3 462 0 424 0 c 0
 385 0 312 -8 312 -8 c 1xb0
208 -100 m 1
 211 -86 l 1
 235 -67 265 -51 290 -51 c 0xd0
 330 -51 359 -84 359 -137 c 0
 359 -208 290 -275 212 -318 c 1
 175 -288 l 1
 175 -271 l 1
 214 -244 243 -203 243 -169 c 0
 243 -142 228 -116 208 -100 c 1
EndSplineSet
Validated: 1
EndChar

StartChar: ntilde
Encoding: 241 241 192
Width: 570
Flags: MW
HStem: -8 21G<312 312> 0 62<404.5 515.5> 369 105<216 324.5> 595 63 595 96<220.5 229 212 247.5> 694 20G<427 438 438 438>
LayerCount: 2
Back
Fore
SplineSet
312 -8 m 1xac
 318 55 l 1
 350 63 363 78 364 111 c 2
 367 282 l 2
 367 341 346 369 303 369 c 0
 270 369 234 344 217 332 c 1
 213 259 207 136 207 108 c 0
 207 74 215 63 237 63 c 0
 245 63 263 65 263 65 c 1
 266 60 l 1
 255 -3 l 1
 255 -3 189 0 149 0 c 0
 97 0 30 -6 30 -6 c 1
 38 58 l 1
 76 62 90 76 90 113 c 2
 90 323 l 2
 90 369 79 383 41 383 c 2
 28 383 l 1
 24 388 l 1
 30 441 l 1
 121 455 216 474 216 474 c 1
 224 464 l 1
 224 464 215 429 213 395 c 1
 217 391 l 1
 249 419 319 474 346 474 c 0
 441 474 497 426 497 344 c 0
 497 305 479 158 479 109 c 0
 479 75 487 62 510 62 c 0
 521 62 540 63 540 63 c 1
 542 59 l 1
 533 -3 l 1
 533 -3 462 0 424 0 c 0x6c
 385 0 312 -8 312 -8 c 1xac
168 539 m 1xb4
 157 539 l 1
 117 575 l 1
 117 586 l 1
 196 687 l 1
 212 691 l 1x6c
 246 691 333 658 362 658 c 0
 385 658 427 714 427 714 c 1
 438 714 l 1
 477 677 l 1
 477 667 l 1
 399 565 l 1
 382 561 l 1
 349 561 262 595 233 595 c 0
 208 595 168 539 168 539 c 1xb4
EndSplineSet
Validated: 1
EndChar

StartChar: o
Encoding: 111 111 193
Width: 503
Flags: MW
HStem: -12 77<225.5 285 225.5 309> 388 86<216 275.5>
LayerCount: 2
Back
Fore
SplineSet
237 -12 m 0
 109 -12 25 79 25 217 c 0
 25 370 123 474 267 474 c 0
 397 474 478 386 478 245 c 0
 478 92 381 -12 237 -12 c 0
257 65 m 0
 313 65 343 109 343 199 c 0
 343 326 307 388 244 388 c 0
 188 388 158 343 158 254 c 0
 158 127 194 65 257 65 c 0
EndSplineSet
Validated: 1
EndChar

StartChar: oacute
Encoding: 243 243 194
Width: 503
Flags: MW
HStem: -12 77<225.5 285 225.5 309> 388 86<216 275.5> 717 20G<342 342>
LayerCount: 2
Back
Fore
SplineSet
237 -12 m 0
 109 -12 25 79 25 217 c 0
 25 370 123 474 267 474 c 0
 397 474 478 386 478 245 c 0
 478 92 381 -12 237 -12 c 0
257 65 m 0
 313 65 343 109 343 199 c 0
 343 326 307 388 244 388 c 0
 188 388 158 343 158 254 c 0
 158 127 194 65 257 65 c 0
410 666 m 1
 409 652 l 1
 409 652 313 592 220 523 c 1
 205 527 l 1
 175 566 l 1
 257 646 342 737 342 737 c 1
 356 736 l 1
 410 666 l 1
EndSplineSet
Validated: 1
EndChar

StartChar: ocircumflex
Encoding: 244 244 195
Width: 503
Flags: MW
HStem: -12 77<225.5 285 225.5 309> 388 86<216 275.5> 710 20G<250 270 270 270>
LayerCount: 2
Back
Fore
SplineSet
237 -12 m 0
 109 -12 25 79 25 217 c 0
 25 370 123 474 267 474 c 0
 397 474 478 386 478 245 c 0
 478 92 381 -12 237 -12 c 0
257 65 m 0
 313 65 343 109 343 199 c 0
 343 326 307 388 244 388 c 0
 188 388 158 343 158 254 c 0
 158 127 194 65 257 65 c 0
127 535 m 1
 98 576 l 1
 169 644 250 730 250 730 c 1
 270 730 l 1
 270 730 350 644 421 576 c 1
 392 535 l 1
 377 531 l 1
 334 565 286 596 260 614 c 1
 232 596 186 566 143 531 c 1
 127 535 l 1
EndSplineSet
Validated: 1
EndChar

StartChar: odieresis
Encoding: 246 246 196
Width: 503
Flags: MW
HStem: -12 77<225.5 285 225.5 309> 388 86<216 275.5> 563 128<152 184.5 330.5 363>
LayerCount: 2
Back
Fore
SplineSet
237 -12 m 0
 109 -12 25 79 25 217 c 0
 25 370 123 474 267 474 c 0
 397 474 478 386 478 245 c 0
 478 92 381 -12 237 -12 c 0
257 65 m 0
 313 65 343 109 343 199 c 0
 343 326 307 388 244 388 c 0
 188 388 158 343 158 254 c 0
 158 127 194 65 257 65 c 0
343 563 m 0
 304 563 283 588 283 623 c 0
 283 663 310 691 351 691 c 0
 389 691 410 666 410 630 c 0
 410 591 383 563 343 563 c 0
164 563 m 0
 126 563 105 588 105 623 c 0
 105 663 132 691 172 691 c 0
 210 691 232 666 232 630 c 0
 232 591 205 563 164 563 c 0
EndSplineSet
Validated: 1
EndChar

StartChar: oe
Encoding: 339 339 197
Width: 771
Flags: MW
HStem: -12 77<223.5 271> -12 98<551 596.5> 234 59 388 86<214 271.5>
LayerCount: 2
Back
Fore
SplineSet
588 86 m 0xb0
 651 86 708 116 708 116 c 1
 716 113 l 1
 732 62 l 1
 732 62 633 -12 560 -12 c 0
 484 -12 419 30 396 64 c 1
 375 36 308 -12 234 -12 c 0
 108 -12 25 79 25 217 c 0
 25 370 122 474 264 474 c 0
 336 474 396 427 413 398 c 1
 438 430 506 474 571 474 c 0
 690 474 740 407 740 308 c 0
 740 273 731 245 731 245 c 1
 719 234 l 1
 463 234 l 1
 463 224 l 1
 469 136 514 86 588 86 c 0xb0
254 65 m 0xb0
 309 65 337 109 337 199 c 0
 337 326 302 388 241 388 c 0
 187 388 158 343 158 254 c 0
 158 127 193 65 254 65 c 0xb0
553 394 m 0
 501 394 469 358 463 289 c 1
 597 297 l 2
 612 298 616 303 616 320 c 0
 616 369 594 394 553 394 c 0
EndSplineSet
Validated: 1
EndChar

StartChar: ograve
Encoding: 242 242 198
Width: 503
Flags: MW
HStem: -12 77<225.5 285 225.5 309> 388 86<216 275.5> 716 20G<189 189>
LayerCount: 2
Back
Fore
SplineSet
237 -12 m 0
 109 -12 25 79 25 217 c 0
 25 370 123 474 267 474 c 0
 397 474 478 386 478 245 c 0
 478 92 381 -12 237 -12 c 0
257 65 m 0
 313 65 343 109 343 199 c 0
 343 326 307 388 244 388 c 0
 188 388 158 343 158 254 c 0
 158 127 194 65 257 65 c 0
123 651 m 1
 122 665 l 1
 176 735 l 1
 189 736 l 1
 189 736 275 646 357 566 c 1
 327 527 l 1
 312 523 l 1
 219 592 123 651 123 651 c 1
EndSplineSet
Validated: 1
EndChar

StartChar: ohungarumlaut
Encoding: 337 337 199
Width: 503
Flags: MW
HStem: -12 77<225.5 285 225.5 309> 388 86<216 275.5> 707 20G<263 263 407 407>
LayerCount: 2
Back
Fore
SplineSet
237 -12 m 0
 109 -12 25 79 25 217 c 0
 25 370 123 474 267 474 c 0
 397 474 478 386 478 245 c 0
 478 92 381 -12 237 -12 c 0
257 65 m 0
 313 65 343 109 343 199 c 0
 343 326 307 388 244 388 c 0
 188 388 158 343 158 254 c 0
 158 127 194 65 257 65 c 0
320 677 m 1
 320 666 l 1
 320 666 246 602 172 531 c 1
 158 532 l 1
 127 560 l 1
 187 638 251 726 251 726 c 1
 263 727 l 1
 320 677 l 1
465 677 m 1
 465 666 l 1
 465 666 391 602 317 531 c 1
 303 532 l 1
 271 560 l 1
 332 638 396 726 396 726 c 1
 407 727 l 1
 465 677 l 1
EndSplineSet
Validated: 1
EndChar

StartChar: hungarumlaut
Encoding: 733 733 200
Width: 398
Flags: MW
HStem: 531 21G<94 94 239 239> 707 20G<185 185 329 329>
LayerCount: 2
Back
Fore
SplineSet
242 677 m 1
 242 666 l 1
 242 666 168 602 94 531 c 1
 80 532 l 1
 49 560 l 1
 109 638 173 726 173 726 c 1
 185 727 l 1
 242 677 l 1
387 677 m 1
 387 666 l 1
 387 666 313 602 239 531 c 1
 225 532 l 1
 193 560 l 1
 254 638 318 726 318 726 c 1
 329 727 l 1
 387 677 l 1
EndSplineSet
Validated: 1
EndChar

StartChar: omacron
Encoding: 333 333 201
Width: 503
Flags: MW
HStem: -12 77<225.5 285 225.5 309> 388 86<216 275.5> 581 85<245.5 257> 652 20G<402 402>
LayerCount: 2
Back
Fore
SplineSet
237 -12 m 0xd0
 109 -12 25 79 25 217 c 0
 25 370 123 474 267 474 c 0
 397 474 478 386 478 245 c 0
 478 92 381 -12 237 -12 c 0xd0
257 65 m 0
 313 65 343 109 343 199 c 0
 343 326 307 388 244 388 c 0
 188 388 158 343 158 254 c 0
 158 127 194 65 257 65 c 0
402 672 m 1
 410 658 l 1
 398 582 l 1
 257 581 l 2
 198 581 118 580 118 580 c 1
 107 591 l 1
 121 667 l 1
 121 667 216 666 275 666 c 0xe0
 325 666 402 672 402 672 c 1
EndSplineSet
Validated: 1
EndChar

StartChar: oslash
Encoding: 248 248 202
Width: 503
Flags: MW
HStem: -117 21G<86 86> -12 77<247.5 285 247.5 309> 388 86<216 253> 552 20G<410 410>
LayerCount: 2
Back
Fore
SplineSet
24 -78 m 1
 95 39 l 1
 50 79 25 141 25 217 c 0
 25 370 123 474 267 474 c 0
 295 474 320 469 343 462 c 1
 410 572 l 1
 471 542 l 1
 474 530 l 1
 409 424 l 1
 453 384 478 323 478 245 c 0
 478 92 381 -12 237 -12 c 0
 208 -12 182 -7 158 1 c 1
 86 -117 l 1
 27 -88 l 1
 24 -78 l 1
257 65 m 0
 313 65 343 109 343 199 c 0
 343 237 340 270 333 296 c 1
 207 82 l 1
 221 70 238 65 257 65 c 0
158 254 m 0
 158 217 161 186 167 160 c 1
 291 373 l 1
 277 383 262 388 244 388 c 0
 188 388 158 343 158 254 c 0
EndSplineSet
Validated: 1
EndChar

StartChar: otilde
Encoding: 245 245 203
Width: 503
Flags: MW
HStem: -12 77<225.5 285 225.5 309> 388 86<216 275.5> 561 97<324.5 332.5 306.5 341> 595 63 595 96<179.5 188 171 206.5> 694 20G<386 397 397 397>
LayerCount: 2
Back
Fore
SplineSet
237 -12 m 0xd4
 109 -12 25 79 25 217 c 0
 25 370 123 474 267 474 c 0
 397 474 478 386 478 245 c 0
 478 92 381 -12 237 -12 c 0xd4
257 65 m 0
 313 65 343 109 343 199 c 0
 343 326 307 388 244 388 c 0
 188 388 158 343 158 254 c 0
 158 127 194 65 257 65 c 0
127 539 m 1
 116 539 l 1
 76 575 l 1
 76 586 l 1
 155 687 l 1
 171 691 l 1xcc
 205 691 292 658 321 658 c 0
 344 658 386 714 386 714 c 1
 397 714 l 1
 436 677 l 1
 436 667 l 1
 358 565 l 1
 341 561 l 1xe4
 308 561 221 595 192 595 c 0
 167 595 127 539 127 539 c 1
EndSplineSet
Validated: 1
EndChar

StartChar: p
Encoding: 112 112 204
Width: 538
Flags: MW
HStem: -252 20G<264.5 273> -236 21G<29 29> -230 62<123 248> -186 20G<278.5 281> -10 83<267.5 313.5 267.5 324> 370 100<307 313.5> 454 20G<212 212>
LayerCount: 2
Back
Fore
SplineSet
37 -174 m 1x5c
 75 -170 83 -159 83 -112 c 2
 88 41 l 1
 88 323 l 2
 88 369 77 383 39 383 c 2
 26 383 l 1
 22 388 l 1
 27 441 l 1
 119 455 212 474 212 474 c 1xaa
 221 464 l 1
 221 464 213 430 210 401 c 1
 214 396 l 1
 266 444 301 470 313 470 c 0
 433 470 512 382 512 250 c 0
 512 93 402 -10 246 -10 c 0
 231 -10 205 -7 205 -7 c 1
 205 -99 l 2
 205 -150 209 -168 241 -168 c 0xac
 255 -168 276 -166 281 -166 c 1x5c
 284 -170 l 1
 273 -232 l 1
 256 -232 189 -230 151 -230 c 0xac
 95 -230 29 -236 29 -236 c 1
 37 -174 l 1x5c
208 87 m 1
 221 82 253 73 282 73 c 0
 345 73 382 123 382 212 c 0
 382 310 343 370 284 370 c 0xac
 265 370 238 359 214 341 c 1
 210 263 208 160 208 87 c 1
EndSplineSet
Validated: 1
EndChar

StartChar: q
Encoding: 113 113 205
Width: 517
Flags: MW
HStem: -234 21G<246 246> -230 64<463 483 463 498> -10 95<157.5 271.5> 387 84<224 277.5> 468 20G<455 455>
LayerCount: 2
Back
Fore
SplineSet
246 -234 m 1xb0
 252 -172 l 1
 311 -169 323 -160 324 -111 c 2
 328 59 l 1
 267 15 227 -10 216 -10 c 0
 99 -10 25 75 25 211 c 0
 25 362 131 471 278 471 c 0xb0
 308 471 347 468 389 461 c 1
 426 475 455 488 455 488 c 1
 466 476 l 1
 453 448 445 219 445 -101 c 0
 445 -156 450 -166 476 -166 c 0
 490 -166 502 -165 502 -165 c 1
 505 -168 l 1
 498 -230 l 1
 370 -230 l 2x68
 321 -230 246 -234 246 -234 c 1xb0
328 119 m 1
 328 370 l 1
 328 370 299 387 256 387 c 0
 192 387 156 337 156 248 c 0
 156 148 195 85 253 85 c 0
 290 85 328 119 328 119 c 1
EndSplineSet
Validated: 1
EndChar

StartChar: r
Encoding: 114 114 206
Width: 413
Flags: MW
HStem: -4 21G<35 35 292 292> 0 66<130.5 258.5> 270 197 347 120<275.5 371.5> 454 20G<216 216>
LayerCount: 2
Back
Fore
SplineSet
43 58 m 1xa0
 83 61 94 75 94 126 c 2
 94 324 l 2
 94 370 84 383 51 383 c 0
 43 383 32 382 32 382 c 1
 27 389 l 1
 33 441 l 1
 120 454 216 474 216 474 c 1x48
 226 465 l 1
 226 465 216 415 215 372 c 1
 221 368 l 1
 263 430 316 467 362 467 c 0
 381 467 396 463 396 463 c 1
 400 455 l 1
 400 455 384 354 380 272 c 1
 315 268 l 1
 315 332 309 347 286 347 c 0
 265 347 240 331 220 304 c 1
 220 304 211 130 211 112 c 0
 211 78 220 66 249 66 c 0x50
 268 66 300 70 300 70 c 1
 303 64 l 1
 292 -4 l 1xa0
 292 -4 209 0 161 0 c 0x60
 100 0 35 -4 35 -4 c 1
 43 58 l 1xa0
EndSplineSet
Validated: 1
EndChar

StartChar: racute
Encoding: 341 341 207
Width: 413
Flags: MW
HStem: -4 21G<35 35 292 292> 0 66<130.5 258.5> 270 197 347 120<275.5 371.5> 717 20G<237 237>
LayerCount: 2
Back
Fore
SplineSet
43 58 m 1xa8
 83 61 94 75 94 126 c 2
 94 324 l 2
 94 370 84 383 51 383 c 0
 43 383 32 382 32 382 c 1
 27 389 l 1
 33 441 l 1
 120 454 216 474 216 474 c 1
 226 465 l 1
 226 465 216 415 215 372 c 1
 221 368 l 1
 263 430 316 467 362 467 c 0
 381 467 396 463 396 463 c 1
 400 455 l 1
 400 455 384 354 380 272 c 1
 315 268 l 1
 315 332 309 347 286 347 c 0
 265 347 240 331 220 304 c 1
 220 304 211 130 211 112 c 0
 211 78 220 66 249 66 c 0x58
 268 66 300 70 300 70 c 1
 303 64 l 1
 292 -4 l 1xa8
 292 -4 209 0 161 0 c 0x68
 100 0 35 -4 35 -4 c 1
 43 58 l 1xa8
305 666 m 1
 304 652 l 1
 304 652 208 592 115 523 c 1
 100 527 l 1
 70 566 l 1
 152 646 237 737 237 737 c 1
 251 736 l 1
 305 666 l 1
EndSplineSet
Validated: 1
EndChar

StartChar: rcaron
Encoding: 345 345 208
Width: 413
Flags: MW
HStem: -4 21G<35 35 292 292> 0 66<130.5 258.5> 270 197 347 120<275.5 371.5> 704 20G<33 33 273 273>
LayerCount: 2
Back
Fore
SplineSet
43 58 m 1xa8
 83 61 94 75 94 126 c 2
 94 324 l 2
 94 370 84 383 51 383 c 0
 43 383 32 382 32 382 c 1
 27 389 l 1
 33 441 l 1
 120 454 216 474 216 474 c 1
 226 465 l 1
 226 465 216 415 215 372 c 1
 221 368 l 1
 263 430 316 467 362 467 c 0
 381 467 396 463 396 463 c 1
 400 455 l 1
 400 455 384 354 380 272 c 1
 315 268 l 1
 315 332 309 347 286 347 c 0
 265 347 240 331 220 304 c 1
 220 304 211 130 211 112 c 0
 211 78 220 66 249 66 c 0x58
 268 66 300 70 300 70 c 1
 303 64 l 1
 292 -4 l 1xa8
 292 -4 209 0 161 0 c 0x68
 100 0 35 -4 35 -4 c 1
 43 58 l 1xa8
-12 679 m 1
 18 721 l 1
 33 724 l 1
 78 689 126 657 154 639 c 1
 181 657 229 689 273 724 c 1
 289 721 l 1
 319 679 l 1
 245 609 163 521 163 521 c 1
 143 521 l 1
 143 521 61 609 -12 679 c 1
EndSplineSet
Validated: 1
EndChar

StartChar: rcommaaccent
Encoding: 343 343 209
Width: 413
Flags: MW
HStem: -318 21G<88 88> -51 51<153.5 185 130.5 186> 0 66<130.5 258.5> 347 120<275.5 371.5> 454 20G<216 216>
LayerCount: 2
Back
Fore
SplineSet
43 58 m 1xb0
 83 61 94 75 94 126 c 2
 94 324 l 2
 94 370 84 383 51 383 c 0
 43 383 32 382 32 382 c 1
 27 389 l 1
 33 441 l 1
 120 454 216 474 216 474 c 1xc8
 226 465 l 1
 226 465 216 415 215 372 c 1
 221 368 l 1
 263 430 316 467 362 467 c 0
 381 467 396 463 396 463 c 1
 400 455 l 1
 400 455 384 354 380 272 c 1
 315 268 l 1
 315 332 309 347 286 347 c 0
 265 347 240 331 220 304 c 1
 220 304 211 130 211 112 c 0
 211 78 220 66 249 66 c 0
 268 66 300 70 300 70 c 1
 303 64 l 1
 292 -4 l 1
 292 -4 209 0 161 0 c 0
 100 0 35 -4 35 -4 c 1
 43 58 l 1xb0
84 -100 m 1
 87 -86 l 1
 111 -67 141 -51 166 -51 c 0
 206 -51 235 -84 235 -137 c 0
 235 -208 166 -275 88 -318 c 1
 51 -288 l 1
 51 -271 l 1
 90 -244 119 -203 119 -169 c 0
 119 -142 104 -116 84 -100 c 1
EndSplineSet
Validated: 1
EndChar

StartChar: s
Encoding: 115 115 210
Width: 409
Flags: MW
HStem: -12 74<158 205.5 158 227> 397 77<203 243.5>
LayerCount: 2
Back
Fore
SplineSet
169 -12 m 0
 88 -12 35 15 35 15 c 1
 29 26 l 1
 33 53 40 119 42 157 c 1
 99 163 l 1
 99 96 129 62 187 62 c 0
 224 62 253 81 253 106 c 0
 253 132 234 148 154 186 c 0
 74 223 39 263 39 320 c 0
 39 411 125 474 247 474 c 0
 312 474 359 456 359 456 c 1
 365 445 l 1
 365 445 352 382 346 315 c 1
 288 312 l 1
 288 312 290 324 290 329 c 0
 289 376 267 397 220 397 c 0
 186 397 160 379 160 354 c 0
 160 329 179 309 227 286 c 0
 344 231 375 198 375 138 c 0
 375 54 285 -12 169 -12 c 0
EndSplineSet
Validated: 1
EndChar

StartChar: sacute
Encoding: 347 347 211
Width: 409
Flags: MW
HStem: -12 74<158 205.5 158 227> 397 77<203 243.5> 717 20G<300 300>
LayerCount: 2
Back
Fore
SplineSet
169 -12 m 0
 88 -12 35 15 35 15 c 1
 29 26 l 1
 33 53 40 119 42 157 c 1
 99 163 l 1
 99 96 129 62 187 62 c 0
 224 62 253 81 253 106 c 0
 253 132 234 148 154 186 c 0
 74 223 39 263 39 320 c 0
 39 411 125 474 247 474 c 0
 312 474 359 456 359 456 c 1
 365 445 l 1
 365 445 352 382 346 315 c 1
 288 312 l 1
 288 312 290 324 290 329 c 0
 289 376 267 397 220 397 c 0
 186 397 160 379 160 354 c 0
 160 329 179 309 227 286 c 0
 344 231 375 198 375 138 c 0
 375 54 285 -12 169 -12 c 0
368 666 m 1
 367 652 l 1
 367 652 271 592 178 523 c 1
 163 527 l 1
 133 566 l 1
 215 646 300 737 300 737 c 1
 314 736 l 1
 368 666 l 1
EndSplineSet
Validated: 1
EndChar

StartChar: scaron
Encoding: 353 353 212
Width: 409
Flags: MW
HStem: -12 74<158 205.5 158 227> 397 77<203 243.5> 704 20G<96 96 336 336>
LayerCount: 2
Back
Fore
SplineSet
169 -12 m 0
 88 -12 35 15 35 15 c 1
 29 26 l 1
 33 53 40 119 42 157 c 1
 99 163 l 1
 99 96 129 62 187 62 c 0
 224 62 253 81 253 106 c 0
 253 132 234 148 154 186 c 0
 74 223 39 263 39 320 c 0
 39 411 125 474 247 474 c 0
 312 474 359 456 359 456 c 1
 365 445 l 1
 365 445 352 382 346 315 c 1
 288 312 l 1
 288 312 290 324 290 329 c 0
 289 376 267 397 220 397 c 0
 186 397 160 379 160 354 c 0
 160 329 179 309 227 286 c 0
 344 231 375 198 375 138 c 0
 375 54 285 -12 169 -12 c 0
51 679 m 1
 81 721 l 1
 96 724 l 1
 141 689 189 657 217 639 c 1
 244 657 292 689 336 724 c 1
 352 721 l 1
 382 679 l 1
 308 609 226 521 226 521 c 1
 206 521 l 1
 206 521 124 609 51 679 c 1
EndSplineSet
Validated: 1
EndChar

StartChar: scedilla
Encoding: 351 351 213
Width: 409
Flags: MW
HStem: -237 50<169 195.5 169 198> -151 20G<123 132 132 132> -12 74<158 205.5> 397 77<203 243.5>
LayerCount: 2
Back
Fore
SplineSet
138 -86 m 1
 158 -12 l 1
 83 -10 35 15 35 15 c 1
 29 26 l 1
 33 53 40 119 42 157 c 1
 99 163 l 1
 99 96 129 62 187 62 c 0
 224 62 253 81 253 106 c 0
 253 132 234 148 154 186 c 0
 74 223 39 263 39 320 c 0
 39 411 125 474 247 474 c 0
 312 474 359 456 359 456 c 1
 365 445 l 1
 365 445 352 382 346 315 c 1
 288 312 l 1
 288 312 290 324 290 329 c 0
 289 376 267 397 220 397 c 0
 186 397 160 379 160 354 c 0
 160 329 179 309 227 286 c 0
 344 231 375 198 375 138 c 0
 375 64 306 5 211 -9 c 1
 201 -44 l 1
 239 -66 297 -100 297 -141 c 0
 297 -194 232 -237 164 -237 c 0
 130 -237 86 -221 86 -194 c 0
 86 -179 108 -149 123 -131 c 1
 132 -131 l 1
 133 -168 154 -187 184 -187 c 0
 207 -187 224 -175 224 -157 c 0
 224 -134 178 -107 138 -86 c 1
EndSplineSet
Validated: 1
EndChar

StartChar: scommaaccent
Encoding: 537 537 214
Width: 409
Flags: MW
HStem: -318 21G<132 132> -12 74<158 205.5 158 227> 397 77<203 243.5>
LayerCount: 2
Back
Fore
SplineSet
169 -12 m 0
 88 -12 35 15 35 15 c 1
 29 26 l 1
 33 53 40 119 42 157 c 1
 99 163 l 1
 99 96 129 62 187 62 c 0
 224 62 253 81 253 106 c 0
 253 132 234 148 154 186 c 0
 74 223 39 263 39 320 c 0
 39 411 125 474 247 474 c 0
 312 474 359 456 359 456 c 1
 365 445 l 1
 365 445 352 382 346 315 c 1
 288 312 l 1
 288 312 290 324 290 329 c 0
 289 376 267 397 220 397 c 0
 186 397 160 379 160 354 c 0
 160 329 179 309 227 286 c 0
 344 231 375 198 375 138 c 0
 375 54 285 -12 169 -12 c 0
128 -100 m 1
 131 -86 l 1
 155 -67 185 -51 210 -51 c 0
 250 -51 279 -84 279 -137 c 0
 279 -208 210 -275 132 -318 c 1
 95 -288 l 1
 95 -271 l 1
 134 -244 163 -203 163 -169 c 0
 163 -142 148 -116 128 -100 c 1
EndSplineSet
Validated: 1
EndChar

StartChar: t
Encoding: 116 116 215
Width: 332
Flags: MW
HStem: -12 99<158.5 263.5> 381 70 532 20G<181 181>
LayerCount: 2
Back
Fore
SplineSet
68 111 m 2
 68 333 l 2
 68 375 57 386 14 387 c 1
 4 394 l 1
 11 444 l 1
 98 485 181 552 181 552 c 1
 209 537 l 1
 209 537 203 505 198 450 c 1
 315 453 l 1
 319 448 l 1
 309 380 l 1
 192 383 l 1
 189 325 186 254 186 167 c 0
 186 111 205 87 250 87 c 0
 277 87 309 101 309 101 c 1
 321 68 l 1
 321 68 237 -12 206 -12 c 0
 111 -12 68 26 68 111 c 2
EndSplineSet
Validated: 1
EndChar

StartChar: tbar
Encoding: 359 359 216
Width: 347
Flags: MW
HStem: -12 99<165.5 270.5> 226 56<58.5 75> 381 70 532 20G<188 188>
LayerCount: 2
Back
Fore
SplineSet
75 111 m 2
 75 226 l 1
 42 225 16 225 16 225 c 1
 6 235 l 1
 13 283 l 1
 13 283 42 282 75 282 c 1
 75 333 l 2
 75 375 64 386 21 387 c 1
 11 394 l 1
 18 444 l 1
 105 485 188 552 188 552 c 1
 216 537 l 1
 216 537 210 505 205 450 c 1
 322 453 l 1
 326 448 l 1
 316 380 l 1
 199 383 l 1
 197 353 195 319 194 282 c 1
 241 282 299 286 299 286 c 1
 313 272 l 1
 308 227 l 1
 193 226 l 1
 193 167 l 2
 193 111 212 87 257 87 c 0
 284 87 316 101 316 101 c 1
 328 68 l 1
 328 68 244 -12 213 -12 c 0
 118 -12 75 26 75 111 c 2
EndSplineSet
Validated: 1
EndChar

StartChar: tcaron
Encoding: 357 357 217
Width: 438
Flags: MW
HStem: -12 99<158.5 263.5> 381 70 532 20G<181 181>
LayerCount: 2
Back
Fore
SplineSet
438 535 m 1
 446 525 l 1
 446 525 431 416 408 309 c 1
 360 290 l 1
 345 293 l 1
 348 408 337 521 337 521 c 1
 438 535 l 1
68 111 m 2
 68 333 l 2
 68 375 57 386 14 387 c 1
 4 394 l 1
 11 444 l 1
 98 485 181 552 181 552 c 1
 209 537 l 1
 209 537 203 505 198 450 c 1
 304 453 l 1
 308 448 l 1
 298 380 l 1
 192 383 l 1
 189 325 186 254 186 167 c 0
 186 111 205 87 250 87 c 0
 277 87 309 101 309 101 c 1
 321 68 l 1
 321 68 237 -12 206 -12 c 0
 111 -12 68 26 68 111 c 2
EndSplineSet
Validated: 33
EndChar

StartChar: tcedilla
Encoding: 355 355 218
Width: 332
Flags: MW
HStem: -237 50<166 192.5 166 195> -151 20G<120 129 129 129> 381 70 532 20G<181 181>
LayerCount: 2
Back
Fore
SplineSet
135 -86 m 1
 157 -8 l 1
 96 4 68 42 68 111 c 2
 68 333 l 2
 68 375 57 386 14 387 c 1
 4 394 l 1
 11 444 l 1
 98 485 181 552 181 552 c 1
 209 537 l 1
 209 537 203 505 198 450 c 1
 315 453 l 1
 319 448 l 1
 309 380 l 1
 192 383 l 1
 189 325 186 254 186 167 c 0
 186 111 205 87 250 87 c 0
 277 87 309 101 309 101 c 1
 321 68 l 1
 321 68 238 -10 207 -12 c 1
 198 -44 l 1
 236 -66 294 -100 294 -141 c 0
 294 -194 229 -237 161 -237 c 0
 127 -237 83 -221 83 -194 c 0
 83 -179 105 -149 120 -131 c 1
 129 -131 l 1
 130 -168 151 -187 181 -187 c 0
 204 -187 221 -175 221 -157 c 0
 221 -134 175 -107 135 -86 c 1
EndSplineSet
Validated: 1
EndChar

StartChar: thorn
Encoding: 254 254 219
Width: 513
Flags: MW
HStem: -252 20G<252.5 258> -236 21G<4 4> -230 62<117 230.5> -10 83<245 290.5 245 310.5> 631 20G<1 3> 633 20G<21 42> 722 20G<210 210>
LayerCount: 2
Back
Fore
SplineSet
68 75 m 1x5a
 68 597 l 2
 68 639 58 653 26 653 c 0xb6
 16 653 5 651 1 651 c 0
 0 655 0 660 0 664 c 2
 4 710 l 1
 97 722 210 742 210 742 c 1
 217 723 l 1
 205 708 196 591 191 406 c 1
 242 443 277 464 291 468 c 0
 303 470 312 471 320 469 c 0
 425 460 489 378 489 250 c 0
 489 99 384 -10 237 -10 c 0
 217 -10 199 -9 185 -7 c 1
 185 -100 176 -168 222 -168 c 0
 239 -168 266 -166 266 -166 c 1
 269 -170 l 1
 258 -232 l 1
 247 -232 181 -230 148 -230 c 0xba
 86 -230 4 -235 4 -236 c 2
 13 -174 l 1
 60 -169 63 -153 64 -97 c 2
 68 75 l 1x5a
188 342 m 1
 186 88 l 1
 199 82 231 73 259 73 c 0
 322 73 359 123 359 212 c 0
 359 312 320 375 262 375 c 0
 241 375 210 362 188 342 c 1
EndSplineSet
Validated: 37
EndChar

StartChar: u
Encoding: 117 117 220
Width: 547
Flags: MW
HStem: -12 21G<414.5 445> -11 103 454 20G<204 204>
LayerCount: 2
Back
Fore
SplineSet
67 115 m 2x60
 74 336 l 2
 74 370 64 385 41 385 c 0
 29 385 15 382 15 382 c 1
 21 441 l 1
 106 453 204 474 204 474 c 1
 214 457 l 1
 199 424 187 293 187 175 c 0
 187 120 207 94 249 94 c 0
 278 94 308 114 334 131 c 1
 334 335 l 2
 334 374 325 383 291 384 c 0
 286 384 275 383 274 383 c 2
 282 441 l 1
 369 453 469 472 469 472 c 1
 479 455 l 1
 464 424 452 283 452 133 c 0
 452 108 465 92 487 92 c 0x60
 511 92 534 109 534 109 c 1
 550 88 l 1
 550 88 494 0 445 -12 c 1xa0
 384 -12 350 14 343 65 c 1
 335 69 l 1
 284 21 239 -11 224 -11 c 0
 122 -11 67 33 67 115 c 2x60
EndSplineSet
Validated: 1
EndChar

StartChar: uacute
Encoding: 250 250 221
Width: 547
Flags: MW
HStem: -12 21G<414.5 445> -11 103 717 20G<348 348>
LayerCount: 2
Back
Fore
SplineSet
67 115 m 2x60
 74 336 l 2
 74 370 64 385 41 385 c 0
 29 385 15 382 15 382 c 1
 21 441 l 1
 106 453 204 474 204 474 c 1
 214 457 l 1
 199 424 187 293 187 175 c 0
 187 120 207 94 249 94 c 0
 278 94 308 114 334 131 c 1
 334 335 l 2
 334 374 325 383 291 384 c 0
 286 384 275 383 274 383 c 2
 282 441 l 1
 369 453 469 472 469 472 c 1
 479 455 l 1
 464 424 452 283 452 133 c 0
 452 108 465 92 487 92 c 0x60
 511 92 534 109 534 109 c 1
 550 88 l 1
 550 88 494 0 445 -12 c 1xa0
 384 -12 350 14 343 65 c 1
 335 69 l 1
 284 21 239 -11 224 -11 c 0
 122 -11 67 33 67 115 c 2x60
416 666 m 1
 415 652 l 1
 415 652 319 592 226 523 c 1
 211 527 l 1
 181 566 l 1
 263 646 348 737 348 737 c 1
 362 736 l 1
 416 666 l 1
EndSplineSet
Validated: 1
EndChar

StartChar: ucircumflex
Encoding: 251 251 222
Width: 547
Flags: MW
HStem: -12 21G<414.5 445> -11 103 710 20G<256 276 276 276>
LayerCount: 2
Back
Fore
SplineSet
67 115 m 2x60
 74 336 l 2
 74 370 64 385 41 385 c 0
 29 385 15 382 15 382 c 1
 21 441 l 1
 106 453 204 474 204 474 c 1
 214 457 l 1
 199 424 187 293 187 175 c 0
 187 120 207 94 249 94 c 0
 278 94 308 114 334 131 c 1
 334 335 l 2
 334 374 325 383 291 384 c 0
 286 384 275 383 274 383 c 2
 282 441 l 1
 369 453 469 472 469 472 c 1
 479 455 l 1
 464 424 452 283 452 133 c 0
 452 108 465 92 487 92 c 0x60
 511 92 534 109 534 109 c 1
 550 88 l 1
 550 88 494 0 445 -12 c 1xa0
 384 -12 350 14 343 65 c 1
 335 69 l 1
 284 21 239 -11 224 -11 c 0
 122 -11 67 33 67 115 c 2x60
133 535 m 1
 104 576 l 1
 175 644 256 730 256 730 c 1
 276 730 l 1
 276 730 356 644 427 576 c 1
 398 535 l 1
 383 531 l 1
 340 565 292 596 266 614 c 1
 238 596 192 566 149 531 c 1
 133 535 l 1
EndSplineSet
Validated: 1
EndChar

StartChar: udieresis
Encoding: 252 252 223
Width: 547
Flags: MW
HStem: -12 21G<414.5 445> -11 103 563 128<158 190.5 336.5 369>
LayerCount: 2
Back
Fore
SplineSet
67 115 m 2x60
 74 336 l 2
 74 370 64 385 41 385 c 0
 29 385 15 382 15 382 c 1
 21 441 l 1
 106 453 204 474 204 474 c 1
 214 457 l 1
 199 424 187 293 187 175 c 0
 187 120 207 94 249 94 c 0
 278 94 308 114 334 131 c 1
 334 335 l 2
 334 374 325 383 291 384 c 0
 286 384 275 383 274 383 c 2
 282 441 l 1
 369 453 469 472 469 472 c 1
 479 455 l 1
 464 424 452 283 452 133 c 0
 452 108 465 92 487 92 c 0x60
 511 92 534 109 534 109 c 1
 550 88 l 1
 550 88 494 0 445 -12 c 1xa0
 384 -12 350 14 343 65 c 1
 335 69 l 1
 284 21 239 -11 224 -11 c 0
 122 -11 67 33 67 115 c 2x60
349 563 m 0
 310 563 289 588 289 623 c 0
 289 663 316 691 357 691 c 0
 395 691 416 666 416 630 c 0
 416 591 389 563 349 563 c 0
170 563 m 0
 132 563 111 588 111 623 c 0
 111 663 138 691 178 691 c 0
 216 691 238 666 238 630 c 0
 238 591 211 563 170 563 c 0
EndSplineSet
Validated: 1
EndChar

StartChar: ugrave
Encoding: 249 249 224
Width: 547
Flags: MW
HStem: -12 21G<414.5 445> -11 103 716 20G<196 196>
LayerCount: 2
Back
Fore
SplineSet
67 115 m 2x60
 74 336 l 2
 74 370 64 385 41 385 c 0
 29 385 15 382 15 382 c 1
 21 441 l 1
 106 453 204 474 204 474 c 1
 214 457 l 1
 199 424 187 293 187 175 c 0
 187 120 207 94 249 94 c 0
 278 94 308 114 334 131 c 1
 334 335 l 2
 334 374 325 383 291 384 c 0
 286 384 275 383 274 383 c 2
 282 441 l 1
 369 453 469 472 469 472 c 1
 479 455 l 1
 464 424 452 283 452 133 c 0
 452 108 465 92 487 92 c 0x60
 511 92 534 109 534 109 c 1
 550 88 l 1
 550 88 494 0 445 -12 c 1xa0
 384 -12 350 14 343 65 c 1
 335 69 l 1
 284 21 239 -11 224 -11 c 0
 122 -11 67 33 67 115 c 2x60
130 651 m 1
 129 665 l 1
 183 735 l 1
 196 736 l 1
 196 736 282 646 364 566 c 1
 334 527 l 1
 319 523 l 1
 226 592 130 651 130 651 c 1
EndSplineSet
Validated: 1
EndChar

StartChar: uhungarumlaut
Encoding: 369 369 225
Width: 547
Flags: MW
HStem: -12 21G<414.5 445> -11 103 707 20G<269 269 413 413>
LayerCount: 2
Back
Fore
SplineSet
67 115 m 2x60
 74 336 l 2
 74 370 64 385 41 385 c 0
 29 385 15 382 15 382 c 1
 21 441 l 1
 106 453 204 474 204 474 c 1
 214 457 l 1
 199 424 187 293 187 175 c 0
 187 120 207 94 249 94 c 0
 278 94 308 114 334 131 c 1
 334 335 l 2
 334 374 325 383 291 384 c 0
 286 384 275 383 274 383 c 2
 282 441 l 1
 369 453 469 472 469 472 c 1
 479 455 l 1
 464 424 452 283 452 133 c 0
 452 108 465 92 487 92 c 0x60
 511 92 534 109 534 109 c 1
 550 88 l 1
 550 88 494 0 445 -12 c 1xa0
 384 -12 350 14 343 65 c 1
 335 69 l 1
 284 21 239 -11 224 -11 c 0
 122 -11 67 33 67 115 c 2x60
326 677 m 1
 326 666 l 1
 326 666 252 602 178 531 c 1
 164 532 l 1
 133 560 l 1
 193 638 257 726 257 726 c 1
 269 727 l 1
 326 677 l 1
471 677 m 1
 471 666 l 1
 471 666 397 602 323 531 c 1
 309 532 l 1
 277 560 l 1
 338 638 402 726 402 726 c 1
 413 727 l 1
 471 677 l 1
EndSplineSet
Validated: 1
EndChar

StartChar: umacron
Encoding: 363 363 226
Width: 547
Flags: MW
HStem: -12 21G<414.5 445> -11 103 581 85<252.5 264> 652 20G<409 409>
LayerCount: 2
Back
Fore
SplineSet
67 115 m 2x60
 74 336 l 2
 74 370 64 385 41 385 c 0
 29 385 15 382 15 382 c 1
 21 441 l 1
 106 453 204 474 204 474 c 1
 214 457 l 1
 199 424 187 293 187 175 c 0
 187 120 207 94 249 94 c 0
 278 94 308 114 334 131 c 1
 334 335 l 2
 334 374 325 383 291 384 c 0
 286 384 275 383 274 383 c 2
 282 441 l 1
 369 453 469 472 469 472 c 1
 479 455 l 1
 464 424 452 283 452 133 c 0
 452 108 465 92 487 92 c 0x50
 511 92 534 109 534 109 c 1
 550 88 l 1
 550 88 494 0 445 -12 c 1xa0
 384 -12 350 14 343 65 c 1
 335 69 l 1
 284 21 239 -11 224 -11 c 0
 122 -11 67 33 67 115 c 2x60
409 672 m 1
 417 658 l 1
 405 582 l 1
 264 581 l 2
 205 581 125 580 125 580 c 1
 114 591 l 1
 128 667 l 1
 128 667 223 666 282 666 c 0x60
 332 666 409 672 409 672 c 1
EndSplineSet
Validated: 1
EndChar

StartChar: uogonek
Encoding: 371 371 227
Width: 547
Flags: MW
HStem: -241 71<454.5 458> -11 103 454 20G<204 204>
LayerCount: 2
Back
Fore
SplineSet
541 -146 m 1
 560 -174 l 1
 560 -174 507 -224 458 -241 c 1
 384 -241 338 -206 338 -149 c 0
 338 -111 353 -80 412 -9 c 1
 372 -1 348 24 343 65 c 1
 335 69 l 1
 281 19 239 -11 224 -11 c 0
 122 -11 67 33 67 115 c 2
 74 336 l 2
 74 371 64 385 41 385 c 0
 29 385 15 382 15 382 c 1
 21 441 l 1
 106 453 204 474 204 474 c 1
 214 457 l 1
 199 423 187 291 187 175 c 0
 187 120 207 94 249 94 c 0
 270 94 294 104 334 131 c 1
 334 335 l 2
 334 373 326 382 291 384 c 0
 286 384 275 383 274 383 c 2
 282 441 l 1
 369 453 469 472 469 472 c 1
 479 455 l 1
 464 424 452 283 452 133 c 0
 452 108 465 92 487 92 c 0
 511 92 534 109 534 109 c 1
 553 85 l 1
 446 -38 419 -76 419 -118 c 0
 419 -148 440 -170 469 -170 c 0
 504 -170 541 -146 541 -146 c 1
EndSplineSet
Validated: 1
EndChar

StartChar: uring
Encoding: 367 367 228
Width: 547
Flags: MW
HStem: -12 21G<414.5 445> -11 103 384 212<258.5 291> 543 53<258.5 275.5 258.5 292> 674 55<249 277>
LayerCount: 2
Back
Fore
SplineSet
67 115 m 2x68
 74 336 l 2
 74 370 64 385 41 385 c 0
 29 385 15 382 15 382 c 1
 21 441 l 1
 106 453 204 474 204 474 c 1
 214 457 l 1
 199 424 187 293 187 175 c 0
 187 120 207 94 249 94 c 0
 278 94 308 114 334 131 c 1
 334 335 l 2
 334 374 325 383 291 384 c 0
 286 384 275 383 274 383 c 2
 282 441 l 1
 369 453 469 472 469 472 c 1
 479 455 l 1
 464 424 452 283 452 133 c 0
 452 108 465 92 487 92 c 0x68
 511 92 534 109 534 109 c 1
 550 88 l 1
 550 88 494 0 445 -12 c 1xa8
 384 -12 350 14 343 65 c 1
 335 69 l 1
 284 21 239 -11 224 -11 c 0
 122 -11 67 33 67 115 c 2x68
268 596 m 0
 283 596 308 601 308 633 c 0
 308 658 292 674 262 674 c 0
 236 674 223 660 223 639 c 0
 223 607 249 596 268 596 c 0
261 543 m 0x58
 204 543 173 580 173 634 c 0
 173 688 211 729 269 729 c 0
 334 729 358 686 358 643 c 0
 358 591 323 543 261 543 c 0x58
EndSplineSet
Validated: 1
EndChar

StartChar: v
Encoding: 118 118 229
Width: 468
Flags: MW
HStem: -15 21G<157 157> 401 61 449 20G<227 227>
LayerCount: 2
Back
Fore
SplineSet
333 380 m 0xa0
 333 396 325 400 300 400 c 2
 273 400 l 1
 269 407 l 1
 277 463 l 1
 277 463 340 462 385 462 c 0
 425 462 476 463 476 463 c 1
 469 401 l 1
 439 397 431 388 414 343 c 2
 288 0 l 1
 157 -15 l 1
 157 -15 77 276 53 351 c 0
 42 384 22 400 -9 401 c 1
 -11 406 l 1
 -4 463 l 1
 -4 463 58 462 91 462 c 0xc0
 157 462 227 469 227 469 c 1
 229 464 l 1
 221 405 l 1
 180 401 172 397 172 379 c 0
 172 352 233 112 233 112 c 1
 244 112 l 1
 296 256 333 360 333 380 c 0xa0
EndSplineSet
Validated: 1
EndChar

StartChar: w
Encoding: 119 119 230
Width: 740
Flags: MW
HStem: -15 21G<157 157 434 434> 400 62 449 20G<227 227>
LayerCount: 2
Back
Fore
SplineSet
602 380 m 0xc0
 602 396 595 401 571 401 c 2
 544 401 l 1
 540 407 l 1
 548 464 l 1
 548 464 609 462 654 462 c 0
 693 462 745 463 745 463 c 1
 737 401 l 1
 708 397 700 388 684 343 c 2
 560 0 l 1
 434 -15 l 1
 429 17 396 139 372 233 c 1
 361 233 l 1
 286 0 l 1
 157 -15 l 1
 157 -15 78 276 55 351 c 0
 44 384 25 400 -6 401 c 1
 -8 406 l 1
 -1 463 l 1
 -1 463 60 462 92 462 c 0xc0
 158 462 227 469 227 469 c 1xa0
 229 464 l 1
 221 405 l 1
 181 401 174 397 174 379 c 0
 174 351 233 112 233 112 c 1
 243 112 l 1
 270 179 315 327 324 359 c 1
 317 388 306 400 270 400 c 1
 267 406 l 1
 275 463 l 1
 275 463 335 462 367 462 c 0
 433 462 500 468 500 468 c 1
 502 463 l 1
 493 404 l 1
 452 400 446 397 446 379 c 0
 446 352 505 112 505 112 c 1
 516 112 l 1
 567 256 602 360 602 380 c 0xc0
EndSplineSet
Validated: 1
EndChar

StartChar: wacute
Encoding: 7811 7811 231
Width: 740
Flags: MW
HStem: -15 21G<157 157 434 434> 400 62 717 20G<458 458>
LayerCount: 2
Back
Fore
SplineSet
602 380 m 0
 602 396 595 401 571 401 c 2
 544 401 l 1
 540 407 l 1
 548 464 l 1
 548 464 609 462 654 462 c 0
 693 462 745 463 745 463 c 1
 737 401 l 1
 708 397 700 388 684 343 c 2
 560 0 l 1
 434 -15 l 1
 429 17 396 139 372 233 c 1
 361 233 l 1
 286 0 l 1
 157 -15 l 1
 157 -15 78 276 55 351 c 0
 44 384 25 400 -6 401 c 1
 -8 406 l 1
 -1 463 l 1
 -1 463 60 462 92 462 c 0
 158 462 227 469 227 469 c 1
 229 464 l 1
 221 405 l 1
 181 401 174 397 174 379 c 0
 174 351 233 112 233 112 c 1
 243 112 l 1
 270 179 315 327 324 359 c 1
 317 388 306 400 270 400 c 1
 267 406 l 1
 275 463 l 1
 275 463 335 462 367 462 c 0
 433 462 500 468 500 468 c 1
 502 463 l 1
 493 404 l 1
 452 400 446 397 446 379 c 0
 446 352 505 112 505 112 c 1
 516 112 l 1
 567 256 602 360 602 380 c 0
526 666 m 1
 525 652 l 1
 525 652 429 592 336 523 c 1
 321 527 l 1
 291 566 l 1
 373 646 458 737 458 737 c 1
 472 736 l 1
 526 666 l 1
EndSplineSet
Validated: 1
EndChar

StartChar: wcircumflex
Encoding: 373 373 232
Width: 740
Flags: MW
HStem: -15 21G<157 157 434 434> 400 62 710 20G<366 386 386 386>
LayerCount: 2
Back
Fore
SplineSet
602 380 m 0
 602 396 595 401 571 401 c 2
 544 401 l 1
 540 407 l 1
 548 464 l 1
 548 464 609 462 654 462 c 0
 693 462 745 463 745 463 c 1
 737 401 l 1
 708 397 700 388 684 343 c 2
 560 0 l 1
 434 -15 l 1
 429 17 396 139 372 233 c 1
 361 233 l 1
 286 0 l 1
 157 -15 l 1
 157 -15 78 276 55 351 c 0
 44 384 25 400 -6 401 c 1
 -8 406 l 1
 -1 463 l 1
 -1 463 60 462 92 462 c 0
 158 462 227 469 227 469 c 1
 229 464 l 1
 221 405 l 1
 181 401 174 397 174 379 c 0
 174 351 233 112 233 112 c 1
 243 112 l 1
 270 179 315 327 324 359 c 1
 317 388 306 400 270 400 c 1
 267 406 l 1
 275 463 l 1
 275 463 335 462 367 462 c 0
 433 462 500 468 500 468 c 1
 502 463 l 1
 493 404 l 1
 452 400 446 397 446 379 c 0
 446 352 505 112 505 112 c 1
 516 112 l 1
 567 256 602 360 602 380 c 0
243 535 m 1
 214 576 l 1
 285 644 366 730 366 730 c 1
 386 730 l 1
 386 730 466 644 537 576 c 1
 508 535 l 1
 493 531 l 1
 450 565 402 596 376 614 c 1
 348 596 302 566 259 531 c 1
 243 535 l 1
EndSplineSet
Validated: 1
EndChar

StartChar: wdieresis
Encoding: 7813 7813 233
Width: 740
Flags: MW
HStem: -15 21G<157 157 434 434> 400 62 563 128<268 300.5 446.5 479>
LayerCount: 2
Back
Fore
SplineSet
602 380 m 0
 602 396 595 401 571 401 c 2
 544 401 l 1
 540 407 l 1
 548 464 l 1
 548 464 609 462 654 462 c 0
 693 462 745 463 745 463 c 1
 737 401 l 1
 708 397 700 388 684 343 c 2
 560 0 l 1
 434 -15 l 1
 429 17 396 139 372 233 c 1
 361 233 l 1
 286 0 l 1
 157 -15 l 1
 157 -15 78 276 55 351 c 0
 44 384 25 400 -6 401 c 1
 -8 406 l 1
 -1 463 l 1
 -1 463 60 462 92 462 c 0
 158 462 227 469 227 469 c 1
 229 464 l 1
 221 405 l 1
 181 401 174 397 174 379 c 0
 174 351 233 112 233 112 c 1
 243 112 l 1
 270 179 315 327 324 359 c 1
 317 388 306 400 270 400 c 1
 267 406 l 1
 275 463 l 1
 275 463 335 462 367 462 c 0
 433 462 500 468 500 468 c 1
 502 463 l 1
 493 404 l 1
 452 400 446 397 446 379 c 0
 446 352 505 112 505 112 c 1
 516 112 l 1
 567 256 602 360 602 380 c 0
459 563 m 0
 420 563 399 588 399 623 c 0
 399 663 426 691 467 691 c 0
 505 691 526 666 526 630 c 0
 526 591 499 563 459 563 c 0
280 563 m 0
 242 563 221 588 221 623 c 0
 221 663 248 691 288 691 c 0
 326 691 348 666 348 630 c 0
 348 591 321 563 280 563 c 0
EndSplineSet
Validated: 1
EndChar

StartChar: wgrave
Encoding: 7809 7809 234
Width: 740
Flags: MW
HStem: -15 21G<157 157 434 434> 400 62 716 20G<306 306>
LayerCount: 2
Back
Fore
SplineSet
602 380 m 0
 602 396 595 401 571 401 c 2
 544 401 l 1
 540 407 l 1
 548 464 l 1
 548 464 609 462 654 462 c 0
 693 462 745 463 745 463 c 1
 737 401 l 1
 708 397 700 388 684 343 c 2
 560 0 l 1
 434 -15 l 1
 429 17 396 139 372 233 c 1
 361 233 l 1
 286 0 l 1
 157 -15 l 1
 157 -15 78 276 55 351 c 0
 44 384 25 400 -6 401 c 1
 -8 406 l 1
 -1 463 l 1
 -1 463 60 462 92 462 c 0
 158 462 227 469 227 469 c 1
 229 464 l 1
 221 405 l 1
 181 401 174 397 174 379 c 0
 174 351 233 112 233 112 c 1
 243 112 l 1
 270 179 315 327 324 359 c 1
 317 388 306 400 270 400 c 1
 267 406 l 1
 275 463 l 1
 275 463 335 462 367 462 c 0
 433 462 500 468 500 468 c 1
 502 463 l 1
 493 404 l 1
 452 400 446 397 446 379 c 0
 446 352 505 112 505 112 c 1
 516 112 l 1
 567 256 602 360 602 380 c 0
240 651 m 1
 239 665 l 1
 293 735 l 1
 306 736 l 1
 306 736 392 646 474 566 c 1
 444 527 l 1
 429 523 l 1
 336 592 240 651 240 651 c 1
EndSplineSet
Validated: 1
EndChar

StartChar: x
Encoding: 120 120 235
Width: 497
Flags: MW
HStem: -6 21G<249 249> 0 55 408 54 446 20G<252 252>
LayerCount: 2
Back
Fore
SplineSet
391 0 m 0x60
 352 0 249 -6 249 -6 c 1xa0
 246 -1 l 1
 253 49 l 1
 281 50 292 55 292 67 c 0
 292 74 289 82 279 96 c 2
 220 177 l 1
 192 142 148 88 148 71 c 0
 148 57 157 52 184 51 c 1
 187 45 l 1
 180 -4 l 1
 180 -4 106 0 82 0 c 0
 49 0 4 -3 4 -3 c 1
 1 4 l 1
 8 52 l 1
 35 65 52 86 97 140 c 2
 177 235 l 1
 110 328 l 2
 72 381 50 395 7 403 c 1
 5 407 l 1
 11 463 l 1
 11 463 70 462 128 462 c 0x60
 190 462 252 466 252 466 c 1x50
 255 460 l 1
 249 408 l 1
 222 408 211 403 211 389 c 0
 211 374 220 361 233 344 c 2
 274 286 l 1
 320 348 l 2
 334 367 345 379 345 392 c 0
 345 402 337 406 309 406 c 1
 307 410 l 1
 312 462 l 1
 402 462 l 2
 438 462 487 465 487 465 c 1
 490 459 l 1
 484 405 l 1
 455 390 425 364 398 331 c 2
 319 228 l 1
 396 124 l 2
 429 79 455 58 493 55 c 1
 496 51 l 1
 487 -2 l 1
 487 -2 421 0 391 0 c 0x60
EndSplineSet
Validated: 1
EndChar

StartChar: y
Encoding: 121 121 236
Width: 465
Flags: MW
HStem: -261 20G<43.5 53> 405 57<-14 71> 449 20G<224 224>
LayerCount: 2
Back
Fore
SplineSet
237 132 m 1xc0
 248 132 l 1
 288 235 338 363 338 381 c 0
 338 397 331 402 309 402 c 2
 277 402 l 1
 274 407 l 1
 282 465 l 1
 282 465 343 462 388 462 c 2
 481 462 l 1
 473 401 l 1
 444 394 434 385 422 352 c 2
 294 43 l 2
 209 -160 142 -243 53 -241 c 0
 34 -241 -23 -181 -23 -160 c 1
 -15 -147 l 1
 71 -140 142 -90 186 -9 c 1
 151 90 81 281 48 357 c 0
 32 388 16 399 -12 400 c 1
 -14 405 l 1
 -7 462 l 1
 71 462 l 2xc0
 139 462 224 468 224 469 c 2xa0
 226 464 l 1
 217 405 l 1
 179 403 169 397 169 381 c 0
 169 349 237 132 237 132 c 1xc0
EndSplineSet
Validated: 33
EndChar

StartChar: yacute
Encoding: 253 253 237
Width: 465
Flags: MW
HStem: -261 20G<43.5 53> 405 57<-14 71> 717 20G<333 333>
LayerCount: 2
Back
Fore
SplineSet
237 132 m 1
 248 132 l 1
 288 235 338 363 338 381 c 0
 338 397 331 402 309 402 c 2
 277 402 l 1
 274 407 l 1
 282 465 l 1
 282 465 343 462 388 462 c 2
 481 462 l 1
 473 401 l 1
 444 394 434 385 422 352 c 2
 294 43 l 2
 209 -160 142 -243 53 -241 c 0
 34 -241 -23 -181 -23 -160 c 1
 -15 -147 l 1
 71 -140 142 -90 186 -9 c 1
 151 90 81 281 48 357 c 0
 32 388 16 399 -12 400 c 1
 -14 405 l 1
 -7 462 l 1
 71 462 l 2
 139 462 224 468 224 469 c 2
 226 464 l 1
 217 405 l 1
 179 403 169 397 169 381 c 0
 169 349 237 132 237 132 c 1
401 666 m 1
 400 652 l 1
 400 652 304 592 211 523 c 1
 196 527 l 1
 166 566 l 1
 248 646 333 737 333 737 c 1
 347 736 l 1
 401 666 l 1
EndSplineSet
Validated: 33
EndChar

StartChar: ycircumflex
Encoding: 375 375 238
Width: 465
Flags: MW
HStem: -261 20G<43.5 53> 405 57<-14 71> 710 20G<241 261 261 261>
LayerCount: 2
Back
Fore
SplineSet
237 132 m 1
 248 132 l 1
 288 235 338 363 338 381 c 0
 338 397 331 402 309 402 c 2
 277 402 l 1
 274 407 l 1
 282 465 l 1
 282 465 343 462 388 462 c 2
 481 462 l 1
 473 401 l 1
 444 394 434 385 422 352 c 2
 294 43 l 2
 209 -160 142 -243 53 -241 c 0
 34 -241 -23 -181 -23 -160 c 1
 -15 -147 l 1
 71 -140 142 -90 186 -9 c 1
 151 90 81 281 48 357 c 0
 32 388 16 399 -12 400 c 1
 -14 405 l 1
 -7 462 l 1
 71 462 l 2
 139 462 224 468 224 469 c 2
 226 464 l 1
 217 405 l 1
 179 403 169 397 169 381 c 0
 169 349 237 132 237 132 c 1
118 535 m 1
 89 576 l 1
 160 644 241 730 241 730 c 1
 261 730 l 1
 261 730 341 644 412 576 c 1
 383 535 l 1
 368 531 l 1
 325 565 277 596 251 614 c 1
 223 596 177 566 134 531 c 1
 118 535 l 1
EndSplineSet
Validated: 33
EndChar

StartChar: ydieresis
Encoding: 255 255 239
Width: 465
Flags: MW
HStem: -261 20G<43.5 53> 405 57<-14 71> 563 128<143 175.5 321.5 354>
LayerCount: 2
Back
Fore
SplineSet
237 132 m 1
 248 132 l 1
 288 235 338 363 338 381 c 0
 338 397 331 402 309 402 c 2
 277 402 l 1
 274 407 l 1
 282 465 l 1
 282 465 343 462 388 462 c 2
 481 462 l 1
 473 401 l 1
 444 394 434 385 422 352 c 2
 294 43 l 2
 209 -160 142 -243 53 -241 c 0
 34 -241 -23 -181 -23 -160 c 1
 -15 -147 l 1
 71 -140 142 -90 186 -9 c 1
 151 90 81 281 48 357 c 0
 32 388 16 399 -12 400 c 1
 -14 405 l 1
 -7 462 l 1
 71 462 l 2
 139 462 224 468 224 469 c 2
 226 464 l 1
 217 405 l 1
 179 403 169 397 169 381 c 0
 169 349 237 132 237 132 c 1
334 563 m 0
 295 563 274 588 274 623 c 0
 274 663 301 691 342 691 c 0
 380 691 401 666 401 630 c 0
 401 591 374 563 334 563 c 0
155 563 m 0
 117 563 96 588 96 623 c 0
 96 663 123 691 163 691 c 0
 201 691 223 666 223 630 c 0
 223 591 196 563 155 563 c 0
EndSplineSet
Validated: 33
EndChar

StartChar: ygrave
Encoding: 7923 7923 240
Width: 465
Flags: MW
HStem: -261 20G<43.5 53> 405 57<-14 71> 716 20G<180 180>
LayerCount: 2
Back
Fore
SplineSet
237 132 m 1
 248 132 l 1
 288 235 338 363 338 381 c 0
 338 397 331 402 309 402 c 2
 277 402 l 1
 274 407 l 1
 282 465 l 1
 282 465 343 462 388 462 c 2
 481 462 l 1
 473 401 l 1
 444 394 434 385 422 352 c 2
 294 43 l 2
 209 -160 142 -243 53 -241 c 0
 34 -241 -23 -181 -23 -160 c 1
 -15 -147 l 1
 71 -140 142 -90 186 -9 c 1
 151 90 81 281 48 357 c 0
 32 388 16 399 -12 400 c 1
 -14 405 l 1
 -7 462 l 1
 71 462 l 2
 139 462 224 468 224 469 c 2
 226 464 l 1
 217 405 l 1
 179 403 169 397 169 381 c 0
 169 349 237 132 237 132 c 1
114 651 m 1
 113 665 l 1
 167 735 l 1
 180 736 l 1
 180 736 266 646 348 566 c 1
 318 527 l 1
 303 523 l 1
 210 592 114 651 114 651 c 1
EndSplineSet
Validated: 33
EndChar

StartChar: z
Encoding: 122 122 241
Width: 458
Flags: MW
HStem: -5 21G<392 392> 394 67 451 20G<56 56>
LayerCount: 2
Back
Fore
SplineSet
37 -4 m 1xc0
 20 29 l 1
 272 397 l 1
 182 391 l 2
 112 385 94 368 89 303 c 1
 38 298 l 1
 38 298 47 398 49 464 c 1
 56 471 l 1xa0
 186 463 l 1
 418 460 l 1
 431 430 l 1
 311 271 208 119 171 63 c 1
 277 72 l 2
 334 79 360 111 372 190 c 1
 425 195 l 1
 425 195 408 85 408 11 c 1
 392 -5 l 1
 93 2 l 1
 37 -4 l 1xc0
EndSplineSet
Validated: 1
EndChar

